<svg width="500" height="178" xmlns="http://www.w3.org/2000/svg" xml:space="preserve" version="1.1">
 <defs>
  <linearGradient y2="0.50015" x2="0.07333" y1="0.50015" x1="10.53753" id="SVGID_1_">
   <stop stop-color="#FEF7E5" offset="0"/>
   <stop stop-color="#FEF0C3" offset="0"/>
   <stop stop-color="#FFE48C" offset="0"/>
   <stop stop-color="#FFCE00" offset="0.5506"/>
   <stop stop-color="#FBC900" offset="0.6156"/>
   <stop stop-color="#E5B200" offset="1"/>
  </linearGradient>
  <linearGradient y2="0.50043" x2="-0.96876" y1="0.50043" x1="9.53572" id="SVGID_00000142866131959915718020000017162711138576172715_">
   <stop stop-color="#FEF7E5" offset="0"/>
   <stop stop-color="#FEF0C3" offset="0"/>
   <stop stop-color="#FFE48C" offset="0"/>
   <stop stop-color="#FFCE00" offset="0.5506"/>
   <stop stop-color="#FBC900" offset="0.6156"/>
   <stop stop-color="#E5B200" offset="1"/>
  </linearGradient>
  <linearGradient y2="0.49976" x2="-2.43418" y1="0.49976" x1="9.33321" id="SVGID_00000115498983035185262480000014994199639733568386_">
   <stop stop-color="#FEF7E5" offset="0"/>
   <stop stop-color="#FEF0C3" offset="0"/>
   <stop stop-color="#FFE48C" offset="0"/>
   <stop stop-color="#FFCE00" offset="0.5506"/>
   <stop stop-color="#FBC900" offset="0.6156"/>
   <stop stop-color="#E5B200" offset="1"/>
  </linearGradient>
  <linearGradient y2="0.50003" x2="-3.20628" y1="0.50003" x1="7.28664" id="SVGID_00000035489424638700186810000009604784082343790228_">
   <stop stop-color="#FEF7E5" offset="0"/>
   <stop stop-color="#FEF0C3" offset="0"/>
   <stop stop-color="#FFE48C" offset="0"/>
   <stop stop-color="#FFCE00" offset="0.5506"/>
   <stop stop-color="#FBC900" offset="0.6156"/>
   <stop stop-color="#E5B200" offset="1"/>
  </linearGradient>
  <linearGradient y2="0.49987" x2="-4.43532" y1="0.49987" x1="6.22761" id="SVGID_00000021826729075255534860000006723239930109808289_">
   <stop stop-color="#FEF7E5" offset="0"/>
   <stop stop-color="#FEF0C3" offset="0"/>
   <stop stop-color="#FFE48C" offset="0"/>
   <stop stop-color="#FFCE00" offset="0.5506"/>
   <stop stop-color="#FBC900" offset="0.6156"/>
   <stop stop-color="#E5B200" offset="1"/>
  </linearGradient>
  <linearGradient y2="0.50015" x2="-6.09516" y1="0.50015" x1="4.76802" id="SVGID_00000042724385362604289070000013537793806081868735_">
   <stop stop-color="#FEF7E5" offset="0"/>
   <stop stop-color="#FEF0C3" offset="0"/>
   <stop stop-color="#FFE48C" offset="0"/>
   <stop stop-color="#FFCE00" offset="0.5506"/>
   <stop stop-color="#FBC900" offset="0.6156"/>
   <stop stop-color="#E5B200" offset="1"/>
  </linearGradient>
  <linearGradient y2="0.49973" x2="-7.82137" y1="0.49973" x1="3.94602" id="SVGID_00000021121233703157321830000008607655485507351466_">
   <stop stop-color="#FEF7E5" offset="0"/>
   <stop stop-color="#FEF0C3" offset="0"/>
   <stop stop-color="#FFE48C" offset="0"/>
   <stop stop-color="#FFCE00" offset="0.5506"/>
   <stop stop-color="#FBC900" offset="0.6156"/>
   <stop stop-color="#E5B200" offset="1"/>
  </linearGradient>
  <linearGradient y2="0.49987" x2="-8.14029" y1="0.49987" x1="2.52257" id="SVGID_00000166637768446370350710000007945327544586225303_">
   <stop stop-color="#FEF7E5" offset="0"/>
   <stop stop-color="#FEF0C3" offset="0"/>
   <stop stop-color="#FFE48C" offset="0"/>
   <stop stop-color="#FFCE00" offset="0.5506"/>
   <stop stop-color="#FBC900" offset="0.6156"/>
   <stop stop-color="#E5B200" offset="1"/>
  </linearGradient>
  <linearGradient y2="0.49962" x2="-16.43656" y1="0.49962" x1="2.40517" id="SVGID_00000177477731868840445110000004956893925571611802_">
   <stop stop-color="#FEF7E5" offset="0"/>
   <stop stop-color="#FEF0C3" offset="0"/>
   <stop stop-color="#FFE48C" offset="0"/>
   <stop stop-color="#FFCE00" offset="0.5506"/>
   <stop stop-color="#FBC900" offset="0.6156"/>
   <stop stop-color="#E5B200" offset="1"/>
  </linearGradient>
  <linearGradient y2="1.15624" x2="1.11863" y1="-0.13864" x1="-0.10203" id="SVGID_00000181791745548337725120000009432953333205624231_">
   <stop stop-color="#82C392" offset="0"/>
   <stop stop-color="#3BB475" offset="0.2718"/>
   <stop stop-color="#03A85F" offset="0.5"/>
   <stop stop-color="#02A559" offset="0.5856"/>
   <stop stop-color="#009642" offset="1"/>
  </linearGradient>
 </defs>
 <g>
  <title>Layer 1</title>
  <g id="svg_1">
   <g id="svg_2">
    <path id="svg_3" fill="url(#SVGID_1_)" d="m1191.48,2700.76l-4.46,-7.77l-2.57,0l0,7.77l-5.41,0l0,-23.65l9.46,0c2.25,0 4.17,0.79 5.74,2.36c1.58,1.58 2.37,3.49 2.37,5.74c0,1.44 -0.4,2.78 -1.2,4c-0.8,1.23 -1.85,2.18 -3.16,2.85l5.03,8.68l-5.8,0l0,0.02zm-7.03,-18.58l0,6.08l4.05,0c0.74,0 1.38,-0.29 1.91,-0.88c0.53,-0.59 0.79,-1.31 0.79,-2.16c0,-0.86 -0.27,-1.58 -0.79,-2.16c-0.53,-0.59 -1.17,-0.88 -1.91,-0.88l-4.05,0z" class="st0"/>
    <path id="svg_4" fill="url(#SVGID_00000142866131959915718020000017162711138576172715_)" d="m1211.08,2683.87l5.07,0l0,16.89l-5.07,0l0,-1.59c-1.19,1.37 -2.87,2.06 -5.03,2.06c-2.23,0 -4.13,-0.86 -5.71,-2.59c-1.58,-1.72 -2.36,-3.83 -2.36,-6.33c0,-2.5 0.79,-4.61 2.36,-6.34c1.58,-1.72 3.48,-2.58 5.71,-2.58c2.16,0 3.84,0.69 5.03,2.06l0,-1.58zm-6.93,11.45c0.74,0.74 1.71,1.11 2.91,1.11c1.19,0 2.16,-0.37 2.91,-1.11c0.74,-0.74 1.11,-1.75 1.11,-3.01c0,-1.26 -0.37,-2.26 -1.11,-3.01c-0.74,-0.74 -1.71,-1.11 -2.91,-1.11c-1.19,0 -2.16,0.37 -2.91,1.11c-0.74,0.74 -1.11,1.75 -1.11,3.01c0,1.27 0.37,2.27 1.11,3.01z"/>
    <path id="svg_5" fill="url(#SVGID_00000115498983035185262480000014994199639733568386_)" d="m1229.76,2683.4c1.8,0 3.3,0.62 4.51,1.86c1.21,1.24 1.81,2.95 1.81,5.14l0,10.37l-5.07,0l0,-9.63c0,-0.99 -0.28,-1.75 -0.83,-2.28c-0.55,-0.53 -1.26,-0.79 -2.11,-0.79c-0.97,0 -1.73,0.29 -2.3,0.88c-0.56,0.59 -0.84,1.45 -0.84,2.6l0,9.22l-5.07,0l0,-16.89l5.07,0l0,1.59c1.01,-1.39 2.63,-2.07 4.83,-2.07z"/>
    <path id="svg_6" fill="url(#SVGID_00000035489424638700186810000009604784082343790228_)" d="m1251.96,2683.87l4.93,0l0,16.05c0,2.66 -0.87,4.67 -2.6,6.03c-1.73,1.36 -3.84,2.04 -6.32,2.04c-3.81,0 -6.48,-1.36 -8.01,-4.09l4.32,-2.5c0.77,1.42 2.05,2.13 3.85,2.13c1.19,0 2.13,-0.31 2.8,-0.93c0.68,-0.62 1.01,-1.51 1.01,-2.69l0,-1.55c-1.17,1.46 -2.82,2.2 -4.93,2.2c-2.36,0 -4.34,-0.84 -5.93,-2.52c-1.59,-1.68 -2.38,-3.7 -2.38,-6.06s0.79,-4.39 2.38,-6.06c1.59,-1.68 3.56,-2.52 5.93,-2.52c2.12,0 3.76,0.73 4.93,2.2l0,-1.73l0.02,0zm-7.03,10.95c0.77,0.72 1.75,1.08 2.94,1.08c1.19,0 2.17,-0.36 2.94,-1.08c0.77,-0.72 1.15,-1.67 1.15,-2.84c0,-1.17 -0.38,-2.12 -1.15,-2.84c-0.77,-0.72 -1.75,-1.08 -2.94,-1.08c-1.19,0 -2.17,0.36 -2.94,1.08c-0.77,0.72 -1.15,1.67 -1.15,2.84c0,1.17 0.39,2.12 1.15,2.84z"/>
    <path id="svg_7" fill="url(#SVGID_00000021826729075255534860000006723239930109808289_)" d="m1275.07,2698.65c-1.73,1.72 -3.85,2.59 -6.35,2.59s-4.62,-0.86 -6.35,-2.59c-1.73,-1.72 -2.6,-3.83 -2.6,-6.33c0,-2.5 0.87,-4.61 2.6,-6.34c1.73,-1.72 3.85,-2.58 6.35,-2.58s4.62,0.86 6.35,2.58c1.73,1.72 2.6,3.84 2.6,6.34c0,2.5 -0.87,4.61 -2.6,6.33zm-9.12,-3.46c0.74,0.74 1.67,1.11 2.77,1.11c1.1,0 2.03,-0.37 2.77,-1.11c0.74,-0.74 1.12,-1.7 1.12,-2.87c0,-1.17 -0.37,-2.13 -1.12,-2.87c-0.74,-0.74 -1.67,-1.12 -2.77,-1.12c-1.1,0 -2.03,0.37 -2.77,1.12c-0.74,0.74 -1.11,1.7 -1.11,2.87c-0.01,1.17 0.36,2.13 1.11,2.87z"/>
    <path id="svg_8" fill="url(#SVGID_00000042724385362604289070000013537793806081868735_)" d="m1305.04,2677.11l0,5.2l-6.08,0l0,18.45l-5.41,0l0,-18.45l-6.08,0l0,-5.2l17.57,0z"/>
    <path id="svg_9" fill="url(#SVGID_00000021121233703157321830000008607655485507351466_)" d="m1317.14,2683.4c1.8,0 3.3,0.62 4.51,1.86c1.21,1.24 1.81,2.95 1.81,5.14l0,10.37l-5.07,0l0,-9.63c0,-0.99 -0.28,-1.75 -0.83,-2.28c-0.55,-0.53 -1.26,-0.79 -2.11,-0.79c-0.97,0 -1.73,0.29 -2.3,0.88c-0.56,0.59 -0.84,1.45 -0.84,2.6l0,9.22l-5.07,0l0,-23.65l5.07,0l0,8.34c1.01,-1.38 2.62,-2.06 4.83,-2.06z"/>
    <path id="svg_10" fill="url(#SVGID_00000166637768446370350710000007945327544586225303_)" d="m1341.39,2698.65c-1.73,1.72 -3.85,2.59 -6.35,2.59s-4.62,-0.86 -6.35,-2.59c-1.73,-1.72 -2.6,-3.83 -2.6,-6.33c0,-2.5 0.87,-4.61 2.6,-6.34c1.73,-1.72 3.85,-2.58 6.35,-2.58s4.62,0.86 6.35,2.58c1.73,1.72 2.6,3.84 2.6,6.34c0.01,2.5 -0.86,4.61 -2.6,6.33zm-9.12,-3.46c0.74,0.74 1.67,1.11 2.77,1.11c1.1,0 2.03,-0.37 2.77,-1.11c0.74,-0.74 1.12,-1.7 1.12,-2.87c0,-1.17 -0.37,-2.13 -1.12,-2.87c-0.74,-0.74 -1.67,-1.12 -2.77,-1.12c-1.1,0 -2.03,0.37 -2.77,1.12c-0.74,0.74 -1.11,1.7 -1.11,2.87c0,1.17 0.37,2.13 1.11,2.87z"/>
    <path id="svg_11" fill="url(#SVGID_00000177477731868840445110000004956893925571611802_)" d="m1351.94,2686.88c0.31,-1.08 0.95,-1.91 1.91,-2.48c0.96,-0.57 2.01,-0.86 3.16,-0.86l0,5.74c-1.24,-0.2 -2.39,0.01 -3.46,0.62c-1.07,0.62 -1.6,1.7 -1.6,3.23l0,7.64l-5.07,0l0,-16.89l5.07,0l0,3l-0.01,0z"/>
   </g>
  </g>
  <path id="svg_12" fill="url(#SVGID_00000181791745548337725120000009432953333205624231_)" d="m410.84,1l-323.68,0c-48.69,0 -88.16,39.47 -88.16,88.16l0,0c0,48.69 39.47,88.16 88.16,88.16l323.68,0c48.69,0 88.16,-39.47 88.16,-88.16l0,0c0,-48.69 -39.47,-88.16 -88.16,-88.16z"/>
 </g>
</svg>