<?xml version="1.0" encoding="utf-8"?>
<!-- Generator: Adobe Illustrator 27.0.0, SVG Export Plug-In . SVG Version: 6.00 Build 0)  -->
<svg version="1.1" id="Capa_1" xmlns="http://www.w3.org/2000/svg" xmlns:xlink="http://www.w3.org/1999/xlink" x="0px" y="0px"
	 viewBox="0 0 2000 2000" style="enable-background:new 0 0 2000 2000;" xml:space="preserve">
<style type="text/css">
	.st0{fill:#04040E;}
</style>
<g>
	<g>
		<g>
			<path class="st0" d="M1487.35,780.33L667.93,38.96c-61.84-55.91-157.78-51.11-213.9,10.9c-55.69,62.01-50.85,157.87,10.86,213.69
				l814.1,736.48l-814.37,736.74c-61.66,56.17-66.29,152.11-10.29,213.77c29.83,32.79,70.95,49.45,112.21,49.45
				c36.2,0,72.52-12.82,101.44-38.99l819.47-741.45c61.88-56.08,97.38-136.15,97.38-219.62
				C1584.82,916.65,1549.37,836.67,1487.35,780.33z"/>
		</g>
		<g>
			<path class="st0" d="M512.65,1219.67l819.42,741.36c61.84,55.91,157.78,51.11,213.9-10.9c55.69-62.01,50.85-157.87-10.86-213.69
				l-814.1-736.48l814.37-736.74c61.66-56.17,66.29-152.11,10.29-213.77C1515.84,16.66,1474.72,0,1433.46,0
				c-36.2,0-72.52,12.82-101.44,38.99L512.56,780.44c-61.88,56.08-97.38,136.15-97.38,219.62
				C415.18,1083.35,450.63,1163.33,512.65,1219.67z"/>
		</g>
	</g>
</g>
</svg>
