<?xml version="1.0" encoding="utf-8"?>
<!-- Generator: Adobe Illustrator 27.0.0, SVG Export Plug-In . SVG Version: 6.00 Build 0)  -->
<svg version="1.1" id="Capa_1" xmlns="http://www.w3.org/2000/svg" xmlns:xlink="http://www.w3.org/1999/xlink" x="0px" y="0px"
	 viewBox="0 0 500 500" style="enable-background:new 0 0 500 500;" xml:space="preserve">
<style type="text/css">
	.st0{fill:#FFFFFF;}
</style>
<path class="st0" d="M380.84,0H119.16C53.2,0,0,53.34,0,119.15v261.69C0,446.52,53.2,500,119.16,500h261.69
	C446.66,500,500,446.52,500,380.84V119.15C500,53.34,446.66,0,380.84,0z M350.01,350.01c-25.67,25.52-60.94,41.44-100.09,41.44
	c-78.15,0-141.38-63.38-141.38-141.52c0-39,15.77-74.42,41.44-99.94c25.52-25.52,60.94-41.44,99.94-41.44
	c39.15,0,74.42,15.92,100.09,41.44c25.52,25.52,41.3,60.94,41.3,99.94S375.54,324.35,350.01,350.01z M426.87,120.88
	c-5.74,5.88-13.76,9.32-22.66,9.32c-17.64,0-31.98-14.34-31.98-31.98c0-8.89,3.58-16.92,9.32-22.65c5.88-5.88,13.91-9.32,22.66-9.32
	c8.89,0,16.92,3.44,22.66,9.32c5.88,5.73,9.46,13.76,9.46,22.65C436.34,106.97,432.75,115,426.87,120.88z M249.93,156.15
	c-51.76,0-93.63,42.01-93.63,93.92c0,51.62,41.87,93.63,93.63,93.63c51.76,0,93.78-42.01,93.78-93.63
	C343.71,198.16,301.69,156.15,249.93,156.15z"/>
</svg>
