<?xml version="1.0" encoding="utf-8"?>
<!-- Generator: Adobe Illustrator 27.0.0, SVG Export Plug-In . SVG Version: 6.00 Build 0)  -->
<svg version="1.1" id="Capa_1" xmlns="http://www.w3.org/2000/svg" xmlns:xlink="http://www.w3.org/1999/xlink" x="0px" y="0px"
	 viewBox="0 0 500 500" style="enable-background:new 0 0 500 500;" xml:space="preserve">
<style type="text/css">
	.st0{fill:#FFFFFF;}
</style>
<path class="st0" d="M386.4,375.48c-0.1-0.59-0.41-0.74-0.66-0.94c-2.67-2.09-5.38-4.12-7.98-6.29c-1.01-0.84-1.79-0.89-2.96-0.35
	c-11.96,5.51-24.23,10.21-36.81,14.11c-15.14,4.7-30.54,8.2-46.23,10.45c-14.73,2.11-29.53,3.13-44.4,2.97
	c-11.8-0.13-23.55-0.98-35.25-2.52c-30.31-3.98-59.3-12.49-87.13-25.06c-1.08-0.49-1.83-0.46-2.78,0.33
	c-2.5,2.09-5.11,4.03-7.67,6.05c-0.4,0.31-0.93,0.5-1.07,1.16c0.56,0.6,1.35,0.93,2.06,1.34c12.32,7.11,25.11,13.24,38.39,18.33
	c2.11,0.81,1.93,0.62,0.94,2.52c-7.28,14.01-15.52,27.43-24.85,40.17c-1.54,2.11-1.13,1.73-3.32,1.05
	c-41.81-12.96-80.63-32.06-116.54-57.09c-2.24-1.56-4.46-3.18-6.71-4.72c-0.86-0.59-1.31-1.24-1.42-2.35
	c-0.6-6.23-1.03-12.46-1.37-18.7c-0.69-12.56-0.78-25.13-0.39-37.71c0.38-12.57,1.39-25.09,2.93-37.58
	c3.77-30.5,11.02-60.15,21.62-88.99c10.23-27.85,23.36-54.28,38.86-79.56c3.78-6.16,7.71-12.23,11.72-18.25
	c0.72-1.08,1.59-1.79,2.76-2.32c28.27-12.86,57.63-22.35,88.05-28.54c4.02-0.82,8.06-1.49,12.1-2.22c1.48-0.27,1.5-0.26,2.23,1.11
	c4.11,7.7,8.01,15.5,11.53,23.49c0.87,1.96,0.86,1.95,3.05,1.63c8.12-1.21,16.28-2.03,24.46-2.7c13.39-1.1,26.8-1.36,40.22-1.07
	c12.18,0.27,24.33,1.12,36.43,2.61c3.1,0.38,6.2,0.79,9.3,1.19c1.86,0.24,1.86,0.24,2.61-1.47c3.47-8.01,7.22-15.89,11.49-23.51
	c0.88-1.56,0.89-1.56,2.54-1.27c32.37,5.55,63.57,14.98,93.71,28c2.27,0.98,4.51,2.03,6.79,3c0.87,0.37,1.53,0.89,2.07,1.68
	c29.47,43.38,51.51,90.13,63.93,141.23c3.49,14.37,6.15,28.9,8.04,43.57c2.43,18.9,3.52,37.87,3.33,56.91
	c-0.13,13.1-0.82,26.17-2.12,39.2c-0.12,1.23-0.55,1.99-1.54,2.7c-14.97,10.79-30.51,20.68-46.71,29.52
	c-24.55,13.39-50.22,24.09-76.92,32.38c-1.58,0.49-1.59,0.5-2.55-0.81c-9.5-12.94-17.92-26.56-25.27-40.83
	c-0.15-0.29-0.28-0.59-0.44-0.87c-0.23-0.43-0.15-0.74,0.32-0.92c0.67-0.26,1.33-0.53,2-0.78c13.34-5.13,26.16-11.34,38.5-18.55
	C385.63,375.98,386.01,375.73,386.4,375.48z M334.22,218.65c-3.87,0.06-6.53,0.24-9.15,0.78c-12.27,2.56-21.64,9.38-28.38,19.78
	c-8.01,12.34-10.25,25.91-7.51,40.25c2.2,11.48,7.62,21.31,16.62,28.9c11.1,9.35,23.83,12.57,37.97,8.94
	c11.11-2.85,19.51-9.62,25.74-19.12c5.11-7.79,7.78-16.41,8.42-25.69c0.96-13.97-2.47-26.65-11.44-37.53
	C357.85,224.49,346.72,218.89,334.22,218.65z M212.06,268.32c0.17-13.05-4.31-26.49-14.51-36.57
	c-11.93-11.8-26.21-15.92-42.49-11.26c-11.37,3.25-19.72,10.63-25.63,20.75c-6.81,11.66-8.82,24.28-6.39,37.49
	c2.3,12.55,8.26,23.1,18.43,31.01c9.05,7.05,19.35,10.06,30.76,8.65c10.95-1.35,19.95-6.57,27.12-14.85
	C208.08,293.45,211.95,281.55,212.06,268.32z"/>
</svg>
