<?xml version="1.0" encoding="utf-8"?>
<!-- Generator: Adobe Illustrator 27.0.0, SVG Export Plug-In . SVG Version: 6.00 Build 0)  -->
<svg version="1.1" id="Capa_1" xmlns="http://www.w3.org/2000/svg" xmlns:xlink="http://www.w3.org/1999/xlink" x="0px" y="0px"
	 viewBox="0 0 500 500" style="enable-background:new 0 0 500 500;" xml:space="preserve">
<style type="text/css">
	.st0{fill:#FFFFFF;}
</style>
<g>
	<path class="st0" d="M500,94.6c-0.49,3.15-2.22,4.75-3.52,6.52c-12.11,16.5-26.28,31-42.67,43.26c-2.41,1.81-3.69,3.63-3.63,6.94
		c1.28,81.62-25.68,152.81-80.63,212.9C323.21,414.9,265,443.57,197.01,452.09c-68.74,8.61-133.2-4.2-192.84-39.9
		c-1.35-0.81-3.04-1.28-4.17-3.51c55.45,4.94,104.98-8.84,150.18-42.69c-6.27-0.88-11.41-1.32-16.41-2.36
		c-37.07-7.76-62.92-29.19-77.51-64.14c-2.27-5.44-1.93-5.6,4.21-4.88c12.68,1.47,25.28,1.18,39.05-2.58
		c-2.74-0.89-4.19-1.42-5.67-1.83c-43.42-12.05-73.99-50.48-75.86-95.43c-0.21-4.98,0.17-5.24,4.76-3.03
		c12.5,6.01,25.6,9.58,39.93,10.25c-0.61-2.54-2.65-3.17-4.04-4.26C19.73,167.32,7.66,113.61,29.9,69.59
		c2.78-5.49,2.75-5.46,6.86-0.72c51.23,59.08,115.77,92.98,193.39,102.1c3.77,0.45,7.58,0.56,11.35,1c3.36,0.4,4.31-0.6,3.65-4.12
		c-3.56-19.29-1.99-38.18,5.17-56.5c26.88-68.78,114.39-88.24,167.94-37.25c3.03,2.88,5.67,3.62,9.6,2.67
		c18.73-4.54,36.66-11.12,53.57-20.39c1.57-0.85,3.18-1.66,5.22-2.04c-7.3,22.84-21.41,40.51-41.04,54.37
		c9.47-0.11,18.39-2.45,27.31-4.76C481.97,101.57,490.7,98.19,500,94.6z"/>
	<path class="st0" d="M500,94.6c-0.49,3.15-2.22,4.75-3.52,6.52c-12.11,16.5-26.28,31-42.67,43.26c-2.41,1.81-3.69,3.63-3.63,6.94
		c1.28,81.62-25.68,152.81-80.63,212.9C323.21,414.9,265,443.57,197.01,452.09c-68.74,8.61-133.2-4.2-192.84-39.9
		c-1.35-0.81-3.04-1.28-4.17-3.51c55.45,4.94,104.98-8.84,150.18-42.69c-6.27-0.88-11.41-1.32-16.41-2.36
		c-37.07-7.76-62.92-29.19-77.51-64.14c-2.27-5.44-1.93-5.6,4.21-4.88c12.68,1.47,25.28,1.18,39.05-2.58
		c-2.74-0.89-4.19-1.42-5.67-1.83c-43.42-12.05-73.99-50.48-75.86-95.43c-0.21-4.98,0.17-5.24,4.76-3.03
		c12.5,6.01,25.6,9.58,39.93,10.25c-0.61-2.54-2.65-3.17-4.04-4.26C19.73,167.32,7.66,113.61,29.9,69.59
		c2.78-5.49,2.75-5.46,6.86-0.72c51.23,59.08,115.77,92.98,193.39,102.1c3.77,0.45,7.58,0.56,11.35,1c3.36,0.4,4.31-0.6,3.65-4.12
		c-3.56-19.29-1.99-38.18,5.17-56.5c26.88-68.78,114.39-88.24,167.94-37.25c3.03,2.88,5.67,3.62,9.6,2.67
		c18.73-4.54,36.66-11.12,53.57-20.39c1.57-0.85,3.18-1.66,5.22-2.04c-7.3,22.84-21.41,40.51-41.04,54.37
		c9.47-0.11,18.39-2.45,27.31-4.76C481.97,101.57,490.7,98.19,500,94.6z"/>
</g>
</svg>
