<?xml version="1.0" encoding="utf-8"?>
<!-- Generator: Adobe Illustrator 27.0.0, SVG Export Plug-In . SVG Version: 6.00 Build 0)  -->
<svg version="1.1" id="Capa_1" xmlns="http://www.w3.org/2000/svg" xmlns:xlink="http://www.w3.org/1999/xlink" x="0px" y="0px"
	 viewBox="0 0 500 500" style="enable-background:new 0 0 500 500;" xml:space="preserve">
<style type="text/css">
	.st0{fill:#FFFFFF;}
</style>
<path class="st0" d="M500,119.15v261.7C500,446.57,446.69,500,380.85,500h-93.14c3.9,0,3.9-0.12,3.9-4.02V324.23
	c0-3.78,0-3.9,3.78-3.9h47.75c6.26,0,6.26,0,7.21-6.03c0.12-0.83,0.24-1.54,0.35-2.25c2.6-19.27,5.08-38.53,7.68-57.8
	c0.59-3.9,0.59-3.9-3.19-3.9c-20.09,0-40.07,0-60.17,0.12c-2.25,0-3.55-0.47-3.55-3.19c0.12-11.82-0.12-23.76,0.12-35.58
	c0.24-8.98,1.3-17.85,5.08-26.12c5.2-11.35,14.07-18.32,26.36-19.38c11.82-1.06,23.76-0.95,35.7-1.18c1.77,0,2.96-0.12,2.96-2.6
	c-0.12-17.85-0.12-35.82,0-53.78c0-1.77-0.59-2.48-2.36-2.72c-4.85-0.71-9.69-1.54-14.54-2.36c-20.21-3.43-40.54-3.66-60.76,0.24
	c-25.77,5.08-44.8,18.91-56.5,42.55c-7.57,15.13-10.87,31.21-10.99,47.99c-0.12,17.38,0,34.75,0,52.01c0,4.02,0,4.02-4.02,4.02
	c-18.56,0-37.12,0.12-55.67,0c-2.36,0-3.19,0.71-3.19,3.07v63.83c0,2.48,0.83,3.08,3.19,3.08c18.08-0.12,36.17-0.12,54.25-0.12
	c0.83,0,1.54,0.12,2.36,0c2.25-0.23,3.07,0.83,2.96,3.08c-0.12,0.94,0,1.89,0,2.83c-0.12,56.5-0.12,113.12-0.12,169.62
	c0,4.14,0,4.26,4.14,4.26h-101.3C53.31,500,0,446.57,0,380.85v-261.7C0,53.31,53.31,0,119.15,0h261.7C446.69,0,500,53.31,500,119.15
	z"/>
</svg>
