<?xml version="1.0" encoding="utf-8"?>
<!-- Generator: Adobe Illustrator 27.0.0, SVG Export Plug-In . SVG Version: 6.00 Build 0)  -->
<svg version="1.1" id="Capa_1" xmlns="http://www.w3.org/2000/svg" xmlns:xlink="http://www.w3.org/1999/xlink" x="0px" y="0px"
	 viewBox="0 0 500 500" style="enable-background:new 0 0 500 500;" xml:space="preserve">
<style type="text/css">
	.st0{fill:#FFFFFF;}
</style>
<path class="st0" d="M472.59,128.81L291.88,12.33c-25.5-16.44-58.25-16.44-83.75,0L27.41,128.81
	c-14.72,9.49-23.62,25.81-23.62,43.32v83.14v193.18c0,28.47,23.08,51.54,51.54,51.54h84.54c20.68,0,37.45-16.77,37.45-37.45v-99.74
	c0-23.35,18.93-42.27,42.27-42.27H250h30.4c23.35,0,42.27,18.92,42.27,42.27v99.74c0,20.68,16.77,37.45,37.45,37.45h84.54
	c28.46,0,51.54-23.08,51.54-51.54V256.02v-83.88C496.21,154.62,487.31,138.3,472.59,128.81z"/>
</svg>
