<svg width="689.625" height="79.039" xmlns="http://www.w3.org/2000/svg" version="1.1">
 <defs>
  <linearGradient y2="0.5002" x2="20.15054" y1="0.5002" x1="0.19803" id="SVGID_1_">
   <stop stop-color="#7F2CE3" offset="0.0053"/>
   <stop stop-color="#FFFFFF" offset="1"/>
  </linearGradient>
  <linearGradient y2="0.4996" x2="19.1658" y1="0.4996" x1="-0.71032" id="SVGID_00000164510778613328535730000006714214098911086226_">
   <stop stop-color="#7F2CE3" offset="0.0053"/>
   <stop stop-color="#FFFFFF" offset="1"/>
  </linearGradient>
  <linearGradient y2="0.5" x2="12.54527" y1="0.5" x1="-1.31421" id="SVGID_00000057129055211541395860000010521795025695970210_">
   <stop stop-color="#7F2CE3" offset="0.0053"/>
   <stop stop-color="#FFFFFF" offset="1"/>
  </linearGradient>
  <linearGradient y2="0.5001" x2="15.79982" y1="0.5001" x1="-3.41447" id="SVGID_00000000941122670744288930000008446743924777919369_">
   <stop stop-color="#7F2CE3" offset="0.0053"/>
   <stop stop-color="#FFFFFF" offset="1"/>
  </linearGradient>
  <linearGradient y2="0.4996" x2="14.843" y1="0.4996" x1="-4.58695" id="SVGID_00000063616351509694552520000009757841530119896200_">
   <stop stop-color="#7F2CE3" offset="0.0053"/>
   <stop stop-color="#FFFFFF" offset="1"/>
  </linearGradient>
  <linearGradient y2="0.50031" x2="25.75754" y1="0.50031" x1="-10.85214" id="SVGID_00000026150284601159461650000017591472750969922202_">
   <stop stop-color="#7F2CE3" offset="0.0053"/>
   <stop stop-color="#FFFFFF" offset="1"/>
  </linearGradient>
  <linearGradient y2="0.50014" x2="12.93094" y1="0.50014" x1="-6.27321" id="SVGID_00000062153348228946592820000010725669184286464915_">
   <stop stop-color="#7F2CE3" offset="0.0053"/>
   <stop stop-color="#FFFFFF" offset="1"/>
  </linearGradient>
  <linearGradient y2="0.5003" x2="11.76865" y1="0.5003" x1="-7.44566" id="SVGID_00000037675703768323276310000014498262250916656300_">
   <stop stop-color="#7F2CE3" offset="0.0053"/>
   <stop stop-color="#FFFFFF" offset="1"/>
  </linearGradient>
  <linearGradient y2="0.50014" x2="10.59125" y1="0.50014" x1="-8.61287" id="SVGID_00000137811040659636719990000003725203711630014631_">
   <stop stop-color="#7F2CE3" offset="0.0053"/>
   <stop stop-color="#FFFFFF" offset="1"/>
  </linearGradient>
  <linearGradient y2="0.4999" x2="9.71852" y1="0.4999" x1="-11.09054" id="SVGID_00000070104382789538610040000003016252742485981332_">
   <stop stop-color="#7F2CE3" offset="0.0053"/>
   <stop stop-color="#FFFFFF" offset="1"/>
  </linearGradient>
  <linearGradient y2="0.49984" x2="23.4482" y1="0.49984" x1="-37.14086" id="SVGID_00000111175940621738109160000005845655984932121768_">
   <stop stop-color="#7F2CE3" offset="0.0053"/>
   <stop stop-color="#FFFFFF" offset="1"/>
  </linearGradient>
  <linearGradient y2="0.4489" x2="19.31692" y1="0.50157" x1="-0.12928" id="SVGID_00000119825883750895429560000013901058732707960706_">
   <stop stop-color="#449AF9" offset="0"/>
   <stop stop-color="#64EFE2" offset="0.5"/>
   <stop stop-color="#FFFFFF" offset="1"/>
  </linearGradient>
  <linearGradient y2="0.45203" x2="22.7072" y1="0.50472" x1="-1.66143" id="SVGID_00000058591821015891005020000002366375792362402443_">
   <stop stop-color="#449AF9" offset="0"/>
   <stop stop-color="#64EFE2" offset="0.5"/>
   <stop stop-color="#FFFFFF" offset="1"/>
  </linearGradient>
  <linearGradient y2="0.45529" x2="14.32175" y1="0.50796" x1="-1.81384" id="SVGID_00000112601144274554148180000018037193663985465279_">
   <stop stop-color="#449AF9" offset="0"/>
   <stop stop-color="#64EFE2" offset="0.5"/>
   <stop stop-color="#FFFFFF" offset="1"/>
  </linearGradient>
  <linearGradient y2="0.45985" x2="13.56299" y1="0.51038" x1="-2.8634" id="SVGID_00000159447656267500017680000009242522121951935929_">
   <stop stop-color="#449AF9" offset="0"/>
   <stop stop-color="#64EFE2" offset="0.5"/>
   <stop stop-color="#FFFFFF" offset="1"/>
  </linearGradient>
  <linearGradient y2="0.46106" x2="14.94864" y1="0.51371" x1="-4.74791" id="SVGID_00000156571792219546622000000010843667046317220027_">
   <stop stop-color="#449AF9" offset="0"/>
   <stop stop-color="#64EFE2" offset="0.5"/>
   <stop stop-color="#FFFFFF" offset="1"/>
  </linearGradient>
  <linearGradient y2="0.46479" x2="11.40953" y1="0.51746" x1="-4.72605" id="SVGID_00000102541901183558375030000004482691107480803747_">
   <stop stop-color="#449AF9" offset="0"/>
   <stop stop-color="#64EFE2" offset="0.5"/>
   <stop stop-color="#FFFFFF" offset="1"/>
  </linearGradient>
  <linearGradient y2="0.46673" x2="16.34088" y1="0.51942" x1="-9.1743" id="SVGID_00000155106278034323924690000004212268421719001016_">
   <stop stop-color="#449AF9" offset="0"/>
   <stop stop-color="#64EFE2" offset="0.5"/>
   <stop stop-color="#FFFFFF" offset="1"/>
  </linearGradient>
  <linearGradient y2="0.46944" x2="12.47704" y1="0.5221" x1="-8.41036" id="SVGID_00000117676503348341351190000009364748787647074702_">
   <stop stop-color="#449AF9" offset="0"/>
   <stop stop-color="#64EFE2" offset="0.5"/>
   <stop stop-color="#FFFFFF" offset="1"/>
  </linearGradient>
  <linearGradient y2="0.47368" x2="10.16769" y1="0.52635" x1="-9.27852" id="SVGID_00000109719894184896297590000001883981177150827427_">
   <stop stop-color="#449AF9" offset="0"/>
   <stop stop-color="#64EFE2" offset="0.5"/>
   <stop stop-color="#FFFFFF" offset="1"/>
  </linearGradient>
  <linearGradient y2="0.47682" x2="11.2484" y1="0.52951" x1="-13.13406" id="SVGID_00000067938309450369911410000015222619919997097869_">
   <stop stop-color="#449AF9" offset="0"/>
   <stop stop-color="#64EFE2" offset="0.5"/>
   <stop stop-color="#FFFFFF" offset="1"/>
  </linearGradient>
  <linearGradient y2="0.47895" x2="8.7033" y1="0.53161" x1="-12.18409" id="SVGID_00000181770437473414324950000011874966149788040616_">
   <stop stop-color="#449AF9" offset="0"/>
   <stop stop-color="#64EFE2" offset="0.5"/>
   <stop stop-color="#FFFFFF" offset="1"/>
  </linearGradient>
  <linearGradient y2="0.48244" x2="4.05581" y1="0.53511" x1="-6.98827" id="SVGID_00000177471291039367085350000012382528857218670265_">
   <stop stop-color="#449AF9" offset="0"/>
   <stop stop-color="#64EFE2" offset="0.5"/>
   <stop stop-color="#FFFFFF" offset="1"/>
  </linearGradient>
  <linearGradient y2="0.48759" x2="4.13731" y1="0.53812" x1="-10.81035" id="SVGID_00000127756814777837369420000011911880009080804781_">
   <stop stop-color="#449AF9" offset="0"/>
   <stop stop-color="#64EFE2" offset="0.5"/>
   <stop stop-color="#FFFFFF" offset="1"/>
  </linearGradient>
  <linearGradient y2="0.49037" x2="3.98692" y1="0.54302" x1="-15.7187" id="SVGID_00000071559321512092813970000017644212658762457237_">
   <stop stop-color="#449AF9" offset="0"/>
   <stop stop-color="#64EFE2" offset="0.5"/>
   <stop stop-color="#FFFFFF" offset="1"/>
  </linearGradient>
  <linearGradient y2="0.49358" x2="2.75788" y1="0.54625" x1="-16.15601" id="SVGID_00000103244617549570321750000005280803101399790980_">
   <stop stop-color="#449AF9" offset="0"/>
   <stop stop-color="#64EFE2" offset="0.5"/>
   <stop stop-color="#FFFFFF" offset="1"/>
  </linearGradient>
 </defs>
 <g>
  <title>Layer 1</title>
  <g id="svg_1">
   <g id="svg_2">
    <path id="svg_3" fill="#FFFFFF" d="m480.91,5.62l4.24,0l0,24.76l-4.88,0l0,-19.6l-4.67,1.31l-1.2,-4.17l6.51,-2.3z" class="st0"/>
    <path id="svg_4" fill="#FFFFFF" d="m494.57,29.96c-0.59,0.59 -1.3,0.88 -2.12,0.88c-0.83,0 -1.53,-0.29 -2.12,-0.88c-0.59,-0.59 -0.88,-1.3 -0.88,-2.12c0,-0.82 0.29,-1.53 0.88,-2.12c0.59,-0.59 1.3,-0.88 2.12,-0.88c0.82,0 1.53,0.29 2.12,0.88c0.59,0.59 0.88,1.3 0.88,2.12c0,0.82 -0.3,1.53 -0.88,2.12z" class="st0"/>
    <path id="svg_5" fill="#FFFFFF" d="m512.68,17.51c2.29,1.37 3.43,3.36 3.43,5.98c0,2.29 -0.8,4.09 -2.39,5.41c-1.59,1.32 -3.76,1.98 -6.49,1.98c-2.76,0 -4.93,-0.66 -6.51,-1.98c-1.58,-1.32 -2.37,-3.13 -2.37,-5.41c0,-2.62 1.13,-4.61 3.4,-5.98c-1.72,-1.25 -2.58,-2.96 -2.58,-5.13c0,-2.29 0.77,-4.07 2.32,-5.34c1.54,-1.27 3.46,-1.91 5.75,-1.91c2.29,0 4.2,0.64 5.73,1.91c1.53,1.27 2.3,3.05 2.3,5.34c-0.01,2.19 -0.87,3.9 -2.59,5.13zm-8.37,7.87c0.74,0.6 1.72,0.9 2.92,0.9c1.2,0 2.17,-0.3 2.92,-0.9s1.12,-1.45 1.12,-2.53c0,-1.06 -0.37,-1.89 -1.12,-2.49s-1.72,-0.9 -2.92,-0.9c-1.2,0 -2.18,0.3 -2.92,0.9s-1.11,1.43 -1.11,2.49c0,1.08 0.37,1.93 1.11,2.53zm5.22,-14.88c-0.59,-0.52 -1.36,-0.78 -2.3,-0.78c-0.94,0 -1.71,0.26 -2.3,0.78c-0.59,0.52 -0.88,1.23 -0.88,2.12c0,0.9 0.29,1.61 0.88,2.14c0.59,0.53 1.35,0.8 2.3,0.8c0.94,0 1.71,-0.26 2.3,-0.8c0.59,-0.53 0.88,-1.24 0.88,-2.14c0,-0.89 -0.29,-1.6 -0.88,-2.12z" class="st0"/>
    <path id="svg_6" fill="#FFFFFF" d="m524.14,29.96c-0.59,0.59 -1.3,0.88 -2.12,0.88c-0.83,0 -1.53,-0.29 -2.12,-0.88c-0.59,-0.59 -0.88,-1.3 -0.88,-2.12c0,-0.82 0.29,-1.53 0.88,-2.12c0.59,-0.59 1.3,-0.88 2.12,-0.88c0.82,0 1.53,0.29 2.12,0.88c0.59,0.59 0.88,1.3 0.88,2.12c0.01,0.82 -0.29,1.53 -0.88,2.12z" class="st0"/>
    <path id="svg_7" fill="#FFFFFF" d="m536.84,30.88c-3.09,0 -5.51,-1.17 -7.27,-3.52c-1.76,-2.35 -2.64,-5.47 -2.64,-9.36c0,-3.89 0.88,-7.01 2.64,-9.36c1.76,-2.35 4.18,-3.52 7.27,-3.52c3.11,0 5.54,1.17 7.29,3.52c1.74,2.35 2.62,5.47 2.62,9.36c0,3.89 -0.87,7.01 -2.62,9.36c-1.75,2.35 -4.18,3.52 -7.29,3.52zm-3.75,-6.85c0.85,1.38 2.1,2.07 3.75,2.07c1.65,0 2.91,-0.7 3.77,-2.09c0.86,-1.39 1.29,-3.4 1.29,-6.01c0,-2.64 -0.43,-4.66 -1.29,-6.05c-0.86,-1.39 -2.12,-2.09 -3.77,-2.09c-1.65,0 -2.9,0.7 -3.75,2.09c-0.85,1.39 -1.27,3.41 -1.27,6.05c0,2.64 0.42,4.66 1.27,6.03z" class="st0"/>
    <path id="svg_8" fill="#FFFFFF" d="m550.28,21.89l0,-4.39l13.27,0l0,4.39l-13.27,0z" class="st0"/>
    <path id="svg_9" fill="#FFFFFF" d="m572.75,5.62l4.24,0l0,24.76l-4.88,0l0,-19.6l-4.67,1.31l-1.2,-4.17l6.51,-2.3z" class="st0"/>
    <path id="svg_10" fill="#FFFFFF" d="m586.4,29.96c-0.59,0.59 -1.3,0.88 -2.12,0.88c-0.83,0 -1.53,-0.29 -2.12,-0.88c-0.59,-0.59 -0.88,-1.3 -0.88,-2.12c0,-0.82 0.29,-1.53 0.88,-2.12c0.59,-0.59 1.3,-0.88 2.12,-0.88c0.82,0 1.53,0.29 2.12,0.88c0.59,0.59 0.88,1.3 0.88,2.12c0.01,0.82 -0.29,1.53 -0.88,2.12z" class="st0"/>
    <path id="svg_11" fill="#FFFFFF" d="m589.97,30.38l0,-3.64l8.46,-8.7c1.89,-1.98 2.83,-3.63 2.83,-4.95c0,-0.97 -0.3,-1.75 -0.9,-2.34c-0.6,-0.59 -1.37,-0.88 -2.32,-0.88c-1.86,0 -3.24,0.97 -4.14,2.9l-4.1,-2.41c0.78,-1.7 1.9,-3 3.36,-3.89c1.46,-0.9 3.07,-1.34 4.81,-1.34c2.24,0 4.16,0.7 5.77,2.1c1.6,1.4 2.41,3.3 2.41,5.68c0,2.57 -1.36,5.2 -4.06,7.91l-4.86,4.86l9.31,0l0,4.7l-16.57,0z" class="st0"/>
    <path id="svg_12" fill="#FFFFFF" d="m618.59,30.88c-3.09,0 -5.51,-1.17 -7.27,-3.52c-1.76,-2.35 -2.64,-5.47 -2.64,-9.36c0,-3.89 0.88,-7.01 2.64,-9.36c1.76,-2.35 4.18,-3.52 7.27,-3.52c3.11,0 5.54,1.17 7.29,3.52c1.74,2.35 2.62,5.47 2.62,9.36c0,3.89 -0.87,7.01 -2.62,9.36c-1.74,2.35 -4.17,3.52 -7.29,3.52zm-3.75,-6.85c0.85,1.38 2.1,2.07 3.75,2.07c1.65,0 2.91,-0.7 3.77,-2.09c0.86,-1.39 1.29,-3.4 1.29,-6.01c0,-2.64 -0.43,-4.66 -1.29,-6.05c-0.86,-1.39 -2.12,-2.09 -3.77,-2.09c-1.65,0 -2.9,0.7 -3.75,2.09c-0.85,1.39 -1.27,3.41 -1.27,6.05c0,2.64 0.43,4.66 1.27,6.03z" class="st0"/>
    <path id="svg_13" fill="#FFFFFF" d="m635.54,29.96c-0.59,0.59 -1.3,0.88 -2.12,0.88c-0.83,0 -1.53,-0.29 -2.12,-0.88c-0.59,-0.59 -0.88,-1.3 -0.88,-2.12c0,-0.82 0.29,-1.53 0.88,-2.12c0.59,-0.59 1.3,-0.88 2.12,-0.88c0.82,0 1.53,0.29 2.12,0.88c0.59,0.59 0.88,1.3 0.88,2.12c0.01,0.82 -0.29,1.53 -0.88,2.12z" class="st0"/>
    <path id="svg_14" fill="#FFFFFF" d="m639.11,30.38l0,-3.64l8.46,-8.7c1.89,-1.98 2.83,-3.63 2.83,-4.95c0,-0.97 -0.3,-1.75 -0.9,-2.34c-0.6,-0.59 -1.37,-0.88 -2.32,-0.88c-1.86,0 -3.24,0.97 -4.14,2.9l-4.1,-2.41c0.78,-1.7 1.9,-3 3.36,-3.89c1.46,-0.9 3.07,-1.34 4.81,-1.34c2.24,0 4.16,0.7 5.77,2.1c1.6,1.4 2.41,3.3 2.41,5.68c0,2.57 -1.36,5.2 -4.06,7.91l-4.86,4.86l9.31,0l0,4.7l-16.57,0z" class="st0"/>
   </g>
   <g id="svg_15">
    <path id="svg_16" fill="url(#SVGID_1_)" d="m84.68,43.87l0,4.67l-6.69,0l0,20.09l-4.88,0l0,-20.09l-6.65,0l0,-4.67l18.22,0z" class="st1"/>
    <path id="svg_17" fill="url(#SVGID_00000164510778613328535730000006714214098911086226_)" d="m87.83,61.67c0.61,2.22 2.28,3.33 4.99,3.33c1.74,0 3.07,-0.59 3.96,-1.77l3.68,2.12c-1.75,2.52 -4.32,3.79 -7.71,3.79c-2.92,0 -5.27,-0.88 -7.04,-2.65c-1.77,-1.77 -2.65,-4 -2.65,-6.69c0,-2.66 0.87,-4.89 2.62,-6.67c1.74,-1.78 3.99,-2.67 6.72,-2.67c2.59,0 4.73,0.9 6.42,2.69c1.69,1.79 2.53,4.01 2.53,6.65c0,0.59 -0.06,1.21 -0.18,1.87l-13.34,0zm-0.08,-3.54l9.02,0c-0.26,-1.2 -0.8,-2.1 -1.61,-2.69c-0.81,-0.59 -1.74,-0.88 -2.78,-0.88c-1.23,0 -2.24,0.31 -3.04,0.94c-0.8,0.62 -1.33,1.5 -1.59,2.63z"/>
    <path id="svg_18" fill="url(#SVGID_00000057129055211541395860000010521795025695970210_)" d="m124.09,50.45c2.03,0 3.65,0.66 4.86,1.98c1.21,1.32 1.82,3.09 1.82,5.31l0,10.9l-4.56,0l0,-10.58c0,-1.06 -0.26,-1.89 -0.78,-2.48c-0.52,-0.59 -1.25,-0.88 -2.19,-0.88c-1.04,0 -1.85,0.34 -2.42,1.03c-0.58,0.68 -0.87,1.67 -0.87,2.97l0,9.94l-4.56,0l0,-10.58c0,-1.06 -0.26,-1.89 -0.78,-2.48c-0.52,-0.59 -1.25,-0.88 -2.19,-0.88c-1.01,0 -1.82,0.34 -2.42,1.03c-0.6,0.68 -0.9,1.67 -0.9,2.97l0,9.94l-4.56,0l0,-17.69l4.56,0l0,1.87c1.06,-1.58 2.7,-2.37 4.92,-2.37c2.17,0 3.77,0.85 4.81,2.55c1.16,-1.7 2.92,-2.55 5.26,-2.55z"/>
    <path id="svg_19" fill="url(#SVGID_00000000941122670744288930000008446743924777919369_)" d="m144.96,50.45c2.38,0 4.42,0.9 6.1,2.71c1.69,1.8 2.53,4.02 2.53,6.63s-0.84,4.83 -2.53,6.63c-1.69,1.8 -3.72,2.71 -6.1,2.71c-2.48,0 -4.39,-0.86 -5.73,-2.58l0,9.16l-4.56,0l0,-24.76l4.56,0l0,2.09c1.34,-1.73 3.25,-2.59 5.73,-2.59zm-4.35,12.93c0.92,0.93 2.09,1.4 3.5,1.4c1.41,0 2.59,-0.47 3.52,-1.4c0.93,-0.93 1.4,-2.13 1.4,-3.59c0,-1.46 -0.47,-2.66 -1.4,-3.59c-0.93,-0.93 -2.11,-1.4 -3.52,-1.4c-1.41,0 -2.58,0.47 -3.5,1.4c-0.92,0.93 -1.38,2.13 -1.38,3.59c0,1.47 0.46,2.66 1.38,3.59z"/>
    <path id="svg_20" fill="url(#SVGID_00000063616351509694552520000009757841530119896200_)" d="m171.88,66.43c-1.82,1.8 -4.03,2.71 -6.65,2.71s-4.83,-0.9 -6.63,-2.71c-1.8,-1.8 -2.71,-4.01 -2.71,-6.63s0.9,-4.83 2.71,-6.63c1.8,-1.8 4.02,-2.71 6.63,-2.71s4.83,0.9 6.65,2.71c1.82,1.8 2.72,4.02 2.72,6.63s-0.9,4.82 -2.72,6.63zm-10.07,-3.14c0.91,0.92 2.05,1.38 3.41,1.38c1.37,0 2.51,-0.46 3.43,-1.38c0.92,-0.92 1.38,-2.09 1.38,-3.5c0,-1.42 -0.46,-2.58 -1.38,-3.5c-0.92,-0.92 -2.06,-1.38 -3.43,-1.38c-1.37,0 -2.51,0.46 -3.41,1.38c-0.91,0.92 -1.36,2.09 -1.36,3.5c0,1.42 0.46,2.59 1.36,3.5z"/>
    <path id="svg_21" fill="url(#SVGID_00000026150284601159461650000017591472750969922202_)" d="m182.39,53.99c0.42,-1.13 1.13,-1.98 2.1,-2.55c0.98,-0.57 2.07,-0.85 3.27,-0.85l0,5.09c-1.39,-0.16 -2.64,0.12 -3.73,0.85c-1.1,0.73 -1.64,1.95 -1.64,3.64l0,8.46l-4.56,0l0,-17.69l4.56,0l0,3.05z"/>
    <path id="svg_22" fill="url(#SVGID_00000062153348228946592820000010725669184286464915_)" d="m203.19,50.95l4.56,0l0,17.69l-4.56,0l0,-2.09c-1.37,1.72 -3.29,2.58 -5.77,2.58c-2.36,0 -4.38,-0.9 -6.07,-2.71c-1.69,-1.8 -2.53,-4.01 -2.53,-6.63s0.84,-4.83 2.53,-6.63c1.69,-1.8 3.71,-2.71 6.07,-2.71c2.48,0 4.4,0.86 5.77,2.58l0,-2.08zm-8.42,12.43c0.92,0.93 2.09,1.4 3.5,1.4c1.41,0 2.59,-0.47 3.52,-1.4c0.93,-0.93 1.4,-2.13 1.4,-3.59c0,-1.46 -0.47,-2.66 -1.4,-3.59c-0.93,-0.93 -2.11,-1.4 -3.52,-1.4c-1.41,0 -2.58,0.47 -3.5,1.4c-0.92,0.93 -1.38,2.13 -1.38,3.59c0,1.47 0.46,2.66 1.38,3.59z"/>
    <path id="svg_23" fill="url(#SVGID_00000037675703768323276310000014498262250916656300_)" d="m225.3,43.87l4.56,0l0,24.76l-4.56,0l0,-2.09c-1.34,1.72 -3.25,2.58 -5.73,2.58c-2.38,0 -4.42,-0.9 -6.1,-2.71c-1.69,-1.8 -2.53,-4.01 -2.53,-6.63s0.84,-4.83 2.53,-6.63c1.69,-1.8 3.72,-2.71 6.1,-2.71c2.48,0 4.39,0.86 5.73,2.58l0,-9.15zm-8.41,19.51c0.93,0.93 2.11,1.4 3.52,1.4c1.41,0 2.58,-0.47 3.5,-1.4c0.92,-0.93 1.38,-2.13 1.38,-3.59c0,-1.46 -0.46,-2.66 -1.38,-3.59c-0.92,-0.93 -2.09,-1.4 -3.5,-1.4c-1.41,0 -2.59,0.47 -3.52,1.4c-0.93,0.93 -1.4,2.13 -1.4,3.59c0.01,1.47 0.47,2.66 1.4,3.59z"/>
    <path id="svg_24" fill="url(#SVGID_00000137811040659636719990000003725203711630014631_)" d="m247.48,50.95l4.56,0l0,17.69l-4.56,0l0,-2.09c-1.37,1.72 -3.29,2.58 -5.77,2.58c-2.36,0 -4.38,-0.9 -6.07,-2.71c-1.69,-1.8 -2.53,-4.01 -2.53,-6.63s0.84,-4.83 2.53,-6.63c1.69,-1.8 3.71,-2.71 6.07,-2.71c2.48,0 4.4,0.86 5.77,2.58l0,-2.08zm-8.42,12.43c0.92,0.93 2.09,1.4 3.5,1.4c1.41,0 2.59,-0.47 3.52,-1.4c0.93,-0.93 1.4,-2.13 1.4,-3.59c0,-1.46 -0.47,-2.66 -1.4,-3.59c-0.93,-0.93 -2.11,-1.4 -3.52,-1.4c-1.41,0 -2.58,0.47 -3.5,1.4c-0.92,0.93 -1.38,2.13 -1.38,3.59c0,1.47 0.46,2.66 1.38,3.59z"/>
    <path id="svg_25" fill="url(#SVGID_00000070104382789538610040000003016252742485981332_)" d="m272.84,52.89c2.38,0 4.39,0.71 6.01,2.14c1.63,1.43 2.44,3.41 2.44,5.96s-0.85,4.54 -2.56,5.98c-1.71,1.44 -3.8,2.16 -6.28,2.16c-2.01,0 -3.77,-0.45 -5.31,-1.34s-2.64,-2.22 -3.32,-3.96l4.17,-2.44c0.61,1.98 2.1,2.97 4.46,2.97c1.25,0 2.22,-0.3 2.92,-0.9c0.7,-0.6 1.04,-1.42 1.04,-2.46c0,-1.01 -0.34,-1.83 -1.03,-2.44c-0.68,-0.61 -1.62,-0.92 -2.79,-0.92l-7.5,0l0.99,-13.76l14.04,0l0,4.56l-9.52,0l-0.32,4.46l2.56,0l0,-0.01z"/>
   </g>
   <path id="svg_26" fill="url(#SVGID_00000111175940621738109160000005845655984932121768_)" d="m298.67,53.64c-0.59,0.59 -1.3,0.88 -2.12,0.88c-0.83,0 -1.53,-0.29 -2.12,-0.88c-0.59,-0.59 -0.88,-1.3 -0.88,-2.12c0,-0.83 0.29,-1.53 0.88,-2.12c0.59,-0.59 1.3,-0.88 2.12,-0.88c0.83,0 1.53,0.29 2.12,0.88c0.59,0.59 0.88,1.3 0.88,2.12c0,0.82 -0.29,1.53 -0.88,2.12zm0,12.66c-0.59,0.59 -1.3,0.88 -2.12,0.88c-0.83,0 -1.53,-0.29 -2.12,-0.88c-0.59,-0.59 -0.88,-1.3 -0.88,-2.12c0,-0.83 0.29,-1.53 0.88,-2.12c0.59,-0.59 1.3,-0.88 2.12,-0.88c0.83,0 1.53,0.3 2.12,0.88c0.59,0.59 0.88,1.3 0.88,2.12c0,0.83 -0.29,1.53 -0.88,2.12z"/>
   <g id="svg_27">
    <g id="svg_28">
     <path id="svg_29" fill="#FDC830" d="m326.12,43.87l4.88,0l0,24.76l-3.72,0l-10.61,-15.14l0,15.14l-4.88,0l0,-24.76l3.71,0l10.61,15.11l0,-15.11l0.01,0z" class="st12"/>
     <path id="svg_30" fill="#FDC830" d="m350.46,66.43c-1.82,1.8 -4.03,2.71 -6.65,2.71s-4.83,-0.9 -6.63,-2.71c-1.8,-1.8 -2.71,-4.01 -2.71,-6.63s0.9,-4.83 2.71,-6.63c1.8,-1.8 4.02,-2.71 6.63,-2.71s4.83,0.9 6.65,2.71c1.82,1.8 2.72,4.02 2.72,6.63s-0.91,4.82 -2.72,6.63zm-10.07,-3.14c0.91,0.92 2.05,1.38 3.41,1.38c1.37,0 2.51,-0.46 3.43,-1.38c0.92,-0.92 1.38,-2.09 1.38,-3.5c0,-1.42 -0.46,-2.58 -1.38,-3.5c-0.92,-0.92 -2.06,-1.38 -3.43,-1.38c-1.37,0 -2.51,0.46 -3.41,1.38c-0.91,0.92 -1.36,2.09 -1.36,3.5c0,1.42 0.45,2.59 1.36,3.5z" class="st12"/>
     <path id="svg_31" fill="#FDC830" d="m360.96,53.99c0.42,-1.13 1.13,-1.98 2.1,-2.55c0.98,-0.57 2.07,-0.85 3.27,-0.85l0,5.09c-1.39,-0.16 -2.64,0.12 -3.73,0.85c-1.1,0.73 -1.64,1.95 -1.64,3.64l0,8.46l-4.56,0l0,-17.69l4.56,0l0,3.05z" class="st12"/>
     <path id="svg_32" fill="#FDC830" d="m381.73,43.87l4.56,0l0,24.76l-4.56,0l0,-2.09c-1.34,1.72 -3.25,2.58 -5.73,2.58c-2.38,0 -4.42,-0.9 -6.1,-2.71c-1.69,-1.8 -2.53,-4.01 -2.53,-6.63s0.84,-4.83 2.53,-6.63c1.69,-1.8 3.72,-2.71 6.1,-2.71c2.48,0 4.39,0.86 5.73,2.58l0,-9.15zm-8.4,19.51c0.93,0.93 2.11,1.4 3.52,1.4s2.58,-0.47 3.5,-1.4c0.92,-0.93 1.38,-2.13 1.38,-3.59c0,-1.46 -0.46,-2.66 -1.38,-3.59c-0.92,-0.93 -2.09,-1.4 -3.5,-1.4s-2.59,0.47 -3.52,1.4c-0.93,0.93 -1.4,2.13 -1.4,3.59c0,1.47 0.47,2.66 1.4,3.59z" class="st12"/>
     <path id="svg_33" fill="#FDC830" d="m392.73,48.83c-0.76,0 -1.41,-0.28 -1.96,-0.83c-0.55,-0.55 -0.83,-1.21 -0.83,-1.96c0,-0.75 0.28,-1.41 0.83,-1.98c0.55,-0.57 1.21,-0.85 1.96,-0.85c0.78,0 1.44,0.28 2,0.85c0.55,0.57 0.83,1.23 0.83,1.98c0,0.76 -0.28,1.41 -0.83,1.96c-0.55,0.55 -1.22,0.83 -2,0.83zm-2.26,19.81l0,-17.69l4.56,0l0,17.69l-4.56,0z" class="st12"/>
     <path id="svg_34" fill="#FDC830" d="m407.62,69.13c-2.67,0 -4.89,-0.9 -6.67,-2.69c-1.78,-1.79 -2.67,-4.01 -2.67,-6.65c0,-2.64 0.89,-4.86 2.67,-6.65c1.78,-1.79 4,-2.69 6.67,-2.69c1.72,0 3.29,0.41 4.7,1.24c1.41,0.83 2.49,1.93 3.22,3.33l-3.93,2.3c-0.35,-0.73 -0.89,-1.31 -1.61,-1.73c-0.72,-0.42 -1.53,-0.64 -2.42,-0.64c-1.37,0 -2.5,0.45 -3.4,1.36c-0.9,0.91 -1.34,2.07 -1.34,3.48c0,1.39 0.45,2.54 1.34,3.45c0.9,0.91 2.03,1.36 3.4,1.36c0.92,0 1.74,-0.21 2.46,-0.62c0.72,-0.41 1.26,-0.98 1.61,-1.72l3.96,2.26c-0.78,1.39 -1.88,2.51 -3.29,3.34c-1.41,0.85 -2.97,1.27 -4.7,1.27z" class="st12"/>
     <path id="svg_35" fill="#FDC830" d="m431.18,50.95l4.56,0l0,17.69l-4.56,0l0,-2.09c-1.37,1.72 -3.29,2.58 -5.77,2.58c-2.36,0 -4.38,-0.9 -6.07,-2.71c-1.69,-1.8 -2.53,-4.01 -2.53,-6.63s0.84,-4.83 2.53,-6.63c1.69,-1.8 3.71,-2.71 6.07,-2.71c2.48,0 4.4,0.86 5.77,2.58l0,-2.08zm-8.42,12.43c0.92,0.93 2.09,1.4 3.5,1.4s2.59,-0.47 3.52,-1.4c0.93,-0.93 1.4,-2.13 1.4,-3.59c0,-1.46 -0.47,-2.66 -1.4,-3.59c-0.93,-0.93 -2.11,-1.4 -3.52,-1.4s-2.58,0.47 -3.5,1.4c-0.92,0.93 -1.38,2.13 -1.38,3.59c0.01,1.47 0.46,2.66 1.38,3.59z" class="st12"/>
    </g>
   </g>
   <g id="svg_36">
    <g id="svg_37">
     <path id="svg_38" fill="#F37335" d="m487.71,68.64l-8.31,-24.76l5.31,0l6.05,19.03l6.01,-19.03l5.34,0l-8.35,24.76l-6.05,0z" class="st13"/>
     <path id="svg_39" fill="#F37335" d="m505.83,48.83c-0.76,0 -1.41,-0.28 -1.96,-0.83c-0.55,-0.55 -0.83,-1.21 -0.83,-1.96c0,-0.75 0.28,-1.41 0.83,-1.98c0.55,-0.57 1.21,-0.85 1.96,-0.85c0.78,0 1.44,0.28 2,0.85c0.55,0.57 0.83,1.23 0.83,1.98c0,0.76 -0.28,1.41 -0.83,1.96c-0.56,0.55 -1.22,0.83 -2,0.83zm-2.27,19.81l0,-17.69l4.56,0l0,17.69l-4.56,0z" class="st13"/>
     <path id="svg_40" fill="#F37335" d="m528.61,68.64l-5.31,0l-6.44,-8.03l0,8.03l-4.56,0l0,-24.76l4.56,0l0,14.86l6.08,-7.78l5.45,0l-7.11,8.74l7.33,8.94z" class="st13"/>
     <path id="svg_41" fill="#F37335" d="m533.14,48.83c-0.76,0 -1.41,-0.28 -1.96,-0.83c-0.55,-0.55 -0.83,-1.21 -0.83,-1.96c0,-0.75 0.28,-1.41 0.83,-1.98c0.55,-0.57 1.21,-0.85 1.96,-0.85c0.78,0 1.44,0.28 2,0.85c0.55,0.57 0.83,1.23 0.83,1.98c0,0.76 -0.28,1.41 -0.83,1.96c-0.56,0.55 -1.22,0.83 -2,0.83zm-2.27,19.81l0,-17.69l4.56,0l0,17.69l-4.56,0z" class="st13"/>
     <path id="svg_42" fill="#F37335" d="m549.45,50.45c1.93,0 3.53,0.65 4.79,1.95c1.26,1.3 1.89,3.09 1.89,5.38l0,10.86l-4.56,0l0,-10.29c0,-1.18 -0.32,-2.08 -0.96,-2.71c-0.64,-0.62 -1.49,-0.94 -2.55,-0.94c-1.18,0 -2.12,0.37 -2.83,1.1c-0.71,0.73 -1.06,1.83 -1.06,3.29l0,9.55l-4.56,0l0,-17.69l4.56,0l0,1.98c1.11,-1.65 2.87,-2.48 5.28,-2.48z" class="st13"/>
     <path id="svg_43" fill="#F37335" d="m573.57,50.95l4.46,0l0,16.84c0,2.74 -0.9,4.82 -2.71,6.26c-1.8,1.44 -3.98,2.16 -6.53,2.16c-1.91,0 -3.59,-0.37 -5.04,-1.1c-1.45,-0.73 -2.56,-1.8 -3.34,-3.22l3.89,-2.23c0.9,1.65 2.44,2.48 4.63,2.48c1.44,0 2.57,-0.38 3.4,-1.13c0.83,-0.76 1.24,-1.83 1.24,-3.22l0,-1.91c-1.34,1.79 -3.23,2.69 -5.66,2.69c-2.5,0 -4.59,-0.88 -6.28,-2.64c-1.69,-1.76 -2.53,-3.9 -2.53,-6.42c0,-2.5 0.85,-4.63 2.55,-6.4c1.7,-1.77 3.79,-2.65 6.26,-2.65c2.43,0 4.32,0.9 5.66,2.69l0,-2.2zm-8.51,12.04c0.93,0.91 2.12,1.36 3.56,1.36s2.62,-0.45 3.56,-1.36c0.93,-0.91 1.4,-2.07 1.4,-3.48c0,-1.39 -0.47,-2.54 -1.4,-3.45c-0.93,-0.91 -2.12,-1.36 -3.56,-1.36s-2.62,0.45 -3.56,1.36c-0.93,0.91 -1.4,2.06 -1.4,3.45c0.01,1.41 0.47,2.58 1.4,3.48z" class="st13"/>
     <path id="svg_44" fill="#F37335" d="m595.61,50.95l4.56,0l0,17.69l-4.56,0l0,-2.09c-1.37,1.72 -3.29,2.58 -5.77,2.58c-2.36,0 -4.38,-0.9 -6.07,-2.71c-1.69,-1.8 -2.53,-4.01 -2.53,-6.63s0.84,-4.83 2.53,-6.63c1.69,-1.8 3.71,-2.71 6.07,-2.71c2.48,0 4.4,0.86 5.77,2.58l0,-2.08zm-8.42,12.43c0.92,0.93 2.09,1.4 3.5,1.4c1.41,0 2.59,-0.47 3.52,-1.4c0.93,-0.93 1.4,-2.13 1.4,-3.59c0,-1.46 -0.47,-2.66 -1.4,-3.59c-0.93,-0.93 -2.11,-1.4 -3.52,-1.4c-1.41,0 -2.58,0.47 -3.5,1.4c-0.92,0.93 -1.38,2.13 -1.38,3.59c0,1.47 0.46,2.66 1.38,3.59z" class="st13"/>
    </g>
   </g>
   <g id="svg_45">
    <g id="svg_46">
     <rect id="svg_47" fill="#FFFFFF" height="29.2" width="1.02" class="st0" y="2.67" x="10.29"/>
    </g>
    <g id="svg_48">
     <rect id="svg_49" fill="#FFFFFF" height="1.02" width="1.02" class="st0" y="30.85" x="10.29"/>
    </g>
    <g id="svg_50">
     <rect id="svg_51" fill="#FFFFFF" height="1.02" width="1.02" class="st0" y="2.67" x="10.29"/>
    </g>
    <g id="svg_52">
     <g id="svg_53">
      <polygon id="svg_54" fill="#FFFFFF" points="17.44000244140625,17.459999084472656 16.720001220703125,18.18000030517578 2.2300033569335938,3.6999969482421875 3.6800003051757812,3.6999969482421875 " class="st0"/>
     </g>
     <g id="svg_55">
      <polygon id="svg_56" fill="#FFFFFF" points="19.360000610351562,3.6999969482421875 11.519996643066406,11.540000915527344 11.30999755859375,11.75 10.800003051757812,12.260002136230469 10.290000915527344,12.779998779296875 5.599998474121094,17.459999084472656 4.879997253417969,18.18000030517578 4.150001525878906,17.459999084472656 4.879997253417969,16.73999786376953 17.919998168945312,3.6999969482421875 " class="st0"/>
     </g>
    </g>
    <g id="svg_57">
     <g id="svg_58">
      <polygon id="svg_59" fill="#FFFFFF" points="18.98999786376953,30.849998474121094 17.540000915527344,30.849998474121094 11.30999755859375,24.62000274658203 4.150001525878906,17.459999084472656 4.879997253417969,16.73999786376953 5.599998474121094,17.459999084472656 10.290000915527344,22.139999389648438 11.30999755859375,23.169998168945312 11.519996643066406,23.37999725341797 " class="st0"/>
     </g>
     <g id="svg_60">
      <polygon id="svg_61" fill="#FFFFFF" points="17.44000244140625,17.459999084472656 11.30999755859375,23.589996337890625 10.800003051757812,24.099998474121094 10.290000915527344,24.62000274658203 4.0500030517578125,30.849998474121094 2.5999984741210938,30.849998474121094 10.069999694824219,23.37999725341797 10.290000915527344,23.169998168945312 11.30999755859375,22.139999389648438 15.989997863769531,17.459999084472656 16.720001220703125,16.73999786376953 " class="st0"/>
     </g>
    </g>
   </g>
   <g id="svg_62">
    <g id="svg_63">
     <rect id="svg_64" fill="#FFFFFF" height="29.2" width="1.02" class="st0" y="2.67" x="679.65"/>
    </g>
    <g id="svg_65">
     <rect id="svg_66" fill="#FFFFFF" height="1.02" width="1.02" class="st0" y="30.85" x="679.65"/>
    </g>
    <g id="svg_67">
     <rect id="svg_68" fill="#FFFFFF" height="1.02" width="1.02" class="st0" y="2.67" x="679.65"/>
    </g>
    <g id="svg_69">
     <g id="svg_70">
      <polygon id="svg_71" fill="#FFFFFF" points="686.8099975585938,17.459999084472656 686.0800170898438,18.18000030517578 671.5999755859375,3.6999969482421875 673.0399780273438,3.6999969482421875 " class="st0"/>
     </g>
     <g id="svg_72">
      <polygon id="svg_73" fill="#FFFFFF" points="688.72998046875,3.6999969482421875 680.8900146484375,11.540000915527344 680.6699829101562,11.75 680.1599731445312,12.260002136230469 679.6500244140625,12.779998779296875 674.969970703125,17.459999084472656 674.239990234375,18.18000030517578 673.52001953125,17.459999084472656 674.239990234375,16.73999786376953 687.280029296875,3.6999969482421875 " class="st0"/>
     </g>
    </g>
    <g id="svg_74">
     <g id="svg_75">
      <polygon id="svg_76" fill="#FFFFFF" points="688.3599853515625,30.849998474121094 686.9099731445312,30.849998474121094 680.6699829101562,24.62000274658203 673.52001953125,17.459999084472656 674.239990234375,16.73999786376953 674.969970703125,17.459999084472656 679.6500244140625,22.139999389648438 680.6699829101562,23.169998168945312 680.8900146484375,23.37999725341797 " class="st0"/>
     </g>
     <g id="svg_77">
      <polygon id="svg_78" fill="#FFFFFF" points="686.8099975585938,17.459999084472656 680.6699829101562,23.589996337890625 680.1599731445312,24.099998474121094 679.6500244140625,24.62000274658203 673.4199829101562,30.849998474121094 671.969970703125,30.849998474121094 679.4400024414062,23.37999725341797 679.6500244140625,23.169998168945312 680.6699829101562,22.139999389648438 685.3599853515625,17.459999084472656 686.0800170898438,16.73999786376953 " class="st0"/>
     </g>
    </g>
   </g>
   <g id="svg_79">
    <path id="svg_80" fill="url(#SVGID_00000119825883750895429560000013901058732707960706_)" d="m56.82,3.65l6.95,0l0,27.34l-5.39,0l-9.65,-13.75l0,13.75l-6.99,0l0,-27.34l5.43,0l9.65,13.75l0,-13.75z"/>
    <path id="svg_81" fill="url(#SVGID_00000058591821015891005020000002366375792362402443_)" d="m75.1,24.42l10.58,0l0,6.56l-17.58,0l0,-27.33l17.38,0l0,6.52l-10.38,0l0,3.79l9.41,0l0,6.44l-9.41,0l0,4.02z"/>
    <path id="svg_82" fill="url(#SVGID_00000112601144274554148180000018037193663985465279_)" d="m106.41,30.99l-1.31,-3.94l-9.3,0l-1.18,3.94l-7.57,0l8.71,-27.34l8.8,0l9.04,27.34l-7.19,0zm-8.82,-9.96l5.51,0l-2.77,-9.29l-2.74,9.29z"/>
    <path id="svg_83" fill="url(#SVGID_00000159447656267500017680000009242522121951935929_)" d="m127.82,31.57c-4.11,0 -7.52,-1.36 -10.21,-4.08s-4.04,-6.11 -4.04,-10.17s1.35,-7.45 4.04,-10.17s6.1,-4.08 10.21,-4.08c2.47,0 4.76,0.58 6.87,1.76s3.76,2.75 4.96,4.73l-6.05,3.48c-0.52,-0.96 -1.3,-1.72 -2.32,-2.29c-1.03,-0.56 -2.18,-0.84 -3.46,-0.84c-2.19,0 -3.95,0.68 -5.29,2.05c-1.34,1.37 -2.01,3.16 -2.01,5.37s0.67,4 2.01,5.37c1.34,1.37 3.1,2.05 5.29,2.05c1.28,0 2.43,-0.28 3.46,-0.84c1.03,-0.56 1.8,-1.33 2.32,-2.32l6.05,3.51c-1.2,2.01 -2.84,3.59 -4.94,4.75c-2.09,1.14 -4.39,1.72 -6.89,1.72z"/>
    <path id="svg_84" fill="url(#SVGID_00000156571792219546622000000010843667046317220027_)" d="m156.41,30.99l-4.76,-8.83l-2.5,0l0,8.83l-6.99,0l0,-27.34l10.94,0c2.79,0 5.12,0.89 7.01,2.68c1.89,1.78 2.83,4.04 2.83,6.78c0,1.64 -0.42,3.14 -1.25,4.51c-0.83,1.37 -1.97,2.45 -3.4,3.26l5.62,10.12l-7.5,0l0,-0.01zm-7.27,-20.9l0,6.13l3.87,0c0.86,0.03 1.56,-0.25 2.11,-0.82c0.55,-0.57 0.82,-1.31 0.82,-2.23s-0.27,-1.65 -0.82,-2.23c-0.55,-0.57 -1.25,-0.86 -2.11,-0.86l-3.87,0l0,0.01z"/>
    <path id="svg_85" fill="url(#SVGID_00000102541901183558375030000004482691107480803747_)" d="m183.73,30.99l-1.31,-3.94l-9.3,0l-1.18,3.94l-7.57,0l8.71,-27.34l8.8,0l9.04,27.34l-7.19,0zm-8.81,-9.96l5.51,0l-2.77,-9.29l-2.74,9.29z"/>
    <path id="svg_86" fill="url(#SVGID_00000155106278034323924690000004212268421719001016_)" d="m209.72,10.4l-9.8,0l0,4.45l9.61,0l0,6.76l-9.61,0l0,9.37l-6.99,0l0,-27.33l16.79,0l0,6.75z"/>
    <path id="svg_87" fill="url(#SVGID_00000117676503348341351190000009364748787647074702_)" d="m231.9,3.65l0,6.76l-6.76,0l0,20.58l-6.99,0l0,-20.59l-6.76,0l0,-6.76l20.51,0l0,0.01z"/>
    <path id="svg_88" fill="url(#SVGID_00000109719894184896297590000001883981177150827427_)" d="m258.38,3.65l6.95,0l0,27.34l-5.39,0l-9.65,-13.75l0,13.75l-6.99,0l0,-27.34l5.43,0l9.65,13.75l0,-13.75z"/>
    <path id="svg_89" fill="url(#SVGID_00000067938309450369911410000015222619919997097869_)" d="m276.65,24.42l10.58,0l0,6.56l-17.57,0l0,-27.33l17.38,0l0,6.52l-10.39,0l0,3.79l9.41,0l0,6.44l-9.41,0l0,4.02z"/>
    <path id="svg_90" fill="url(#SVGID_00000181770437473414324950000011874966149788040616_)" d="m309.3,3.65l0,6.76l-6.76,0l0,20.58l-6.99,0l0,-20.59l-6.76,0l0,-6.76l20.51,0l0,0.01z"/>
    <path id="svg_91" fill="url(#SVGID_00000177471291039367085350000012382528857218670265_)" d="m317.62,30.99l-7.65,-27.34l7.54,0l4.22,17.22l4.88,-17.22l5.51,0l4.88,17.22l4.26,-17.22l7.5,0l-7.62,27.34l-7.38,0l-4.37,-15.43l-4.39,15.43l-7.38,0z"/>
    <path id="svg_92" fill="url(#SVGID_00000127756814777837369420000011911880009080804781_)" d="m373.22,27.45c-2.77,2.75 -6.17,4.12 -10.17,4.12c-4.01,0 -7.4,-1.37 -10.17,-4.12s-4.16,-6.12 -4.16,-10.13s1.39,-7.39 4.16,-10.13s6.16,-4.12 10.17,-4.12c4.01,0 7.4,1.37 10.17,4.12c2.77,2.75 4.16,6.12 4.16,10.13s-1.39,7.38 -4.16,10.13zm-15.45,-4.8c1.41,1.39 3.16,2.09 5.27,2.09s3.87,-0.7 5.27,-2.09s2.11,-3.17 2.11,-5.33s-0.7,-3.94 -2.11,-5.33s-3.16,-2.09 -5.27,-2.09s-3.87,0.7 -5.27,2.09s-2.11,3.17 -2.11,5.33s0.71,3.94 2.11,5.33z"/>
    <path id="svg_93" fill="url(#SVGID_00000071559321512092813970000017644212658762457237_)" d="m394.87,30.99l-4.76,-8.83l-2.5,0l0,8.83l-6.99,0l0,-27.34l10.93,0c2.79,0 5.12,0.89 7.01,2.68s2.83,4.04 2.83,6.78c0,1.64 -0.42,3.14 -1.25,4.51c-0.83,1.37 -1.97,2.45 -3.4,3.26l5.62,10.12l-7.49,0l0,-0.01zm-7.26,-20.9l0,6.13l3.87,0c0.86,0.03 1.56,-0.25 2.11,-0.82c0.55,-0.57 0.82,-1.31 0.82,-2.23s-0.27,-1.65 -0.82,-2.23c-0.55,-0.57 -1.25,-0.86 -2.11,-0.86l-3.87,0l0,0.01z"/>
    <path id="svg_94" fill="url(#SVGID_00000103244617549570321750000005280803101399790980_)" d="m427.48,30.99l-7.81,0l-7.85,-12.25l0,12.25l-6.99,0l0,-27.34l6.99,0l0,11.5l7.46,-11.5l7.81,0l-8.67,13.28l9.06,14.06z"/>
   </g>
   <rect id="svg_95" fill="#FFFFFF" height="25.41" width="4.3" class="st0" y="5.04" x="448.78"/>
  </g>
 </g>
</svg>