<svg width="2000" height="166" xmlns="http://www.w3.org/2000/svg" xml:space="preserve" version="1.1">
 <defs>
  <linearGradient y2="0.50001" x2="0.39773" y1="0.50001" x1="24.24193" id="SVGID_1_">
   <stop stop-color="#82C392" offset="0"/>
   <stop stop-color="#3BB475" offset="0.2718"/>
   <stop stop-color="#03A85F" offset="0.5"/>
   <stop stop-color="#02A559" offset="0.5856"/>
   <stop stop-color="#009642" offset="1"/>
  </linearGradient>
  <linearGradient y2="0.5" x2="-0.79652" y1="0.5" x1="26.11628" id="SVGID_00000036216095315659847180000008321385952115599516_">
   <stop stop-color="#82C392" offset="0"/>
   <stop stop-color="#3BB475" offset="0.2718"/>
   <stop stop-color="#03A85F" offset="0.5"/>
   <stop stop-color="#02A559" offset="0.5856"/>
   <stop stop-color="#009642" offset="1"/>
  </linearGradient>
  <linearGradient y2="0.49998" x2="-1.67223" y1="0.49998" x1="22.08195" id="SVGID_00000132783882782935303710000001241920534789821604_">
   <stop stop-color="#82C392" offset="0"/>
   <stop stop-color="#3BB475" offset="0.2718"/>
   <stop stop-color="#03A85F" offset="0.5"/>
   <stop stop-color="#02A559" offset="0.5856"/>
   <stop stop-color="#009642" offset="1"/>
  </linearGradient>
  <linearGradient y2="0.49998" x2="-7.88977" y1="0.49998" x1="60.62768" id="SVGID_00000003098934060892303420000010952929136388571524_">
   <stop stop-color="#82C392" offset="0"/>
   <stop stop-color="#3BB475" offset="0.2718"/>
   <stop stop-color="#03A85F" offset="0.5"/>
   <stop stop-color="#02A559" offset="0.5856"/>
   <stop stop-color="#009642" offset="1"/>
  </linearGradient>
  <linearGradient y2="0.49998" x2="-3.14539" y1="0.49998" x1="20.61083" id="SVGID_00000024720549823948835850000002793882361946283178_">
   <stop stop-color="#82C392" offset="0"/>
   <stop stop-color="#3BB475" offset="0.2718"/>
   <stop stop-color="#03A85F" offset="0.5"/>
   <stop stop-color="#02A559" offset="0.5856"/>
   <stop stop-color="#009642" offset="1"/>
  </linearGradient>
  <linearGradient y2="0.50007" x2="-4.23114" y1="0.50007" x1="20.00545" id="SVGID_00000119818676538896608580000012648564445586800774_">
   <stop stop-color="#82C392" offset="0"/>
   <stop stop-color="#3BB475" offset="0.2718"/>
   <stop stop-color="#03A85F" offset="0.5"/>
   <stop stop-color="#02A559" offset="0.5856"/>
   <stop stop-color="#009642" offset="1"/>
  </linearGradient>
  <linearGradient y2="0.49999" x2="-17.68668" y1="0.49999" x1="61.58011" id="SVGID_00000008854583632474338340000016211593082071317410_">
   <stop stop-color="#82C392" offset="0"/>
   <stop stop-color="#3BB475" offset="0.2718"/>
   <stop stop-color="#03A85F" offset="0.5"/>
   <stop stop-color="#02A559" offset="0.5856"/>
   <stop stop-color="#009642" offset="1"/>
  </linearGradient>
  <linearGradient y2="0.50004" x2="-6.15143" y1="0.50004" x1="17.69071" id="SVGID_00000128463316110970639740000014780528878835106738_">
   <stop stop-color="#82C392" offset="0"/>
   <stop stop-color="#3BB475" offset="0.2718"/>
   <stop stop-color="#03A85F" offset="0.5"/>
   <stop stop-color="#02A559" offset="0.5856"/>
   <stop stop-color="#009642" offset="1"/>
  </linearGradient>
  <linearGradient y2="0.49998" x2="-7.63606" y1="0.49998" x1="17.47767" id="SVGID_00000157280903316356320670000006251645552304041402_">
   <stop stop-color="#82C392" offset="0"/>
   <stop stop-color="#3BB475" offset="0.2718"/>
   <stop stop-color="#03A85F" offset="0.5"/>
   <stop stop-color="#02A559" offset="0.5856"/>
   <stop stop-color="#009642" offset="1"/>
  </linearGradient>
  <linearGradient y2="0.49991" x2="-6.03191" y1="0.49991" x1="11.23848" id="SVGID_00000108278915907623074090000016399814800884050358_">
   <stop stop-color="#82C392" offset="0"/>
   <stop stop-color="#3BB475" offset="0.2718"/>
   <stop stop-color="#03A85F" offset="0.5"/>
   <stop stop-color="#02A559" offset="0.5856"/>
   <stop stop-color="#009642" offset="1"/>
  </linearGradient>
  <linearGradient y2="0.49998" x2="-28.29864" y1="0.49998" x1="40.21891" id="SVGID_00000020375681684746268140000012471938203162287034_">
   <stop stop-color="#82C392" offset="0"/>
   <stop stop-color="#3BB475" offset="0.2718"/>
   <stop stop-color="#03A85F" offset="0.5"/>
   <stop stop-color="#02A559" offset="0.5856"/>
   <stop stop-color="#009642" offset="1"/>
  </linearGradient>
  <linearGradient y2="0.49991" x2="-14.65862" y1="0.49991" x1="19.08243" id="SVGID_00000122684257220290434500000008346822566580306054_">
   <stop stop-color="#82C392" offset="0"/>
   <stop stop-color="#3BB475" offset="0.2718"/>
   <stop stop-color="#03A85F" offset="0.5"/>
   <stop stop-color="#02A559" offset="0.5856"/>
   <stop stop-color="#009642" offset="1"/>
  </linearGradient>
  <linearGradient y2="0.49999" x2="-9.22155" y1="0.49999" x1="10.56825" id="SVGID_00000170973359037432841830000006684180624790793907_">
   <stop stop-color="#82C392" offset="0"/>
   <stop stop-color="#3BB475" offset="0.2718"/>
   <stop stop-color="#03A85F" offset="0.5"/>
   <stop stop-color="#02A559" offset="0.5856"/>
   <stop stop-color="#009642" offset="1"/>
  </linearGradient>
  <linearGradient y2="0.50007" x2="-12.45217" y1="0.50007" x1="11.78443" id="SVGID_00000137097495438124967970000003367606644604380069_">
   <stop stop-color="#82C392" offset="0"/>
   <stop stop-color="#3BB475" offset="0.2718"/>
   <stop stop-color="#03A85F" offset="0.5"/>
   <stop stop-color="#02A559" offset="0.5856"/>
   <stop stop-color="#009642" offset="1"/>
  </linearGradient>
  <linearGradient y2="0.50005" x2="-15.13223" y1="0.50005" x1="11.77794" id="SVGID_00000086690022635352976000000004828570655544535231_">
   <stop stop-color="#82C392" offset="0"/>
   <stop stop-color="#3BB475" offset="0.2718"/>
   <stop stop-color="#03A85F" offset="0.5"/>
   <stop stop-color="#02A559" offset="0.5856"/>
   <stop stop-color="#009642" offset="1"/>
  </linearGradient>
  <linearGradient y2="0.49998" x2="-41.47585" y1="0.49998" x1="27.0417" id="SVGID_00000062895695975154078720000008689554159827405201_">
   <stop stop-color="#82C392" offset="0"/>
   <stop stop-color="#3BB475" offset="0.2718"/>
   <stop stop-color="#03A85F" offset="0.5"/>
   <stop stop-color="#02A559" offset="0.5856"/>
   <stop stop-color="#009642" offset="1"/>
  </linearGradient>
  <linearGradient y2="0.49999" x2="-49.63925" y1="0.49999" x1="29.62768" id="SVGID_00000060748396396855626350000008554903985179083429_">
   <stop stop-color="#82C392" offset="0"/>
   <stop stop-color="#3BB475" offset="0.2718"/>
   <stop stop-color="#03A85F" offset="0.5"/>
   <stop stop-color="#02A559" offset="0.5856"/>
   <stop stop-color="#009642" offset="1"/>
  </linearGradient>
  <linearGradient y2="0.49999" x2="-51.21726" y1="0.49999" x1="28.04966" id="SVGID_00000015329097804758515280000010214721738166574241_">
   <stop stop-color="#82C392" offset="0"/>
   <stop stop-color="#3BB475" offset="0.2718"/>
   <stop stop-color="#03A85F" offset="0.5"/>
   <stop stop-color="#02A559" offset="0.5856"/>
   <stop stop-color="#009642" offset="1"/>
  </linearGradient>
  <linearGradient y2="0.50007" x2="-16.09669" y1="0.50007" x1="8.13991" id="SVGID_00000029022499259975068150000009113573291226140855_">
   <stop stop-color="#82C392" offset="0"/>
   <stop stop-color="#3BB475" offset="0.2718"/>
   <stop stop-color="#03A85F" offset="0.5"/>
   <stop stop-color="#02A559" offset="0.5856"/>
   <stop stop-color="#009642" offset="1"/>
  </linearGradient>
 </defs>
 <g>
  <title>Layer 1</title>
  <g id="svg_1">
   <path id="svg_2" fill="url(#SVGID_1_)" d="m60.17,158.16003c-15.57,0 -28.48,-3.29 -38.71,-9.89c-10.24,-6.59 -17.39,-15.49 -21.46,-26.72l32.19,-18.72c5.47,13.04 15.15,19.57 29.04,19.57c11.5,0 17.25,-3.27 17.25,-9.81c0,-4.31 -3.32,-7.78 -9.95,-10.43c-2.8,-1.16 -8.95,-3.11 -18.46,-5.86c-13.46,-3.92 -24.12,-9.43 -31.97,-16.52c-7.87,-7.07 -11.79,-16.92 -11.79,-29.55c0,-13.6 4.87,-24.61 14.62,-33.03c9.75,-8.41 21.91,-12.62 36.5,-12.62c12.34,0 23.28,2.87 32.82,8.63c9.54,5.75 16.84,14.09 21.88,25.03l-31.56,18.52c-4.62,-10.94 -12.27,-16.41 -22.93,-16.41c-4.49,0 -7.89,0.91 -10.2,2.75c-2.32,1.83 -3.47,4.15 -3.47,6.98c0,3.24 1.71,6 5.15,8.25c3.42,2.26 10.11,4.87 20.05,7.83c7,2.52 12.72,4.58 17.14,6.17c4.43,1.6 9.24,4.11 14.44,7.54c5.19,3.43 9.05,7.84 11.58,13.23c2.52,5.38 3.79,11.71 3.79,18.99c0,14.45 -5.12,25.74 -15.36,33.87c-10.22,8.14 -23.76,12.2 -40.59,12.2z" class="st0"/>
   <path id="svg_3" fill="url(#SVGID_00000036216095315659847180000008321385952115599516_)" d="m196.08,49.81003l34.93,0l0,105.2l-34.93,0l0,-10.52c-6.31,8.98 -16.06,13.46 -29.24,13.46c-11.36,0 -20.65,-3.89 -27.87,-11.68c-7.23,-7.78 -10.84,-18.97 -10.84,-33.55l0,-62.91l34.93,0l0,58.49c0,5.47 1.44,9.61 4.32,12.41c2.87,2.81 6.7,4.21 11.46,4.21c5.47,0 9.71,-1.64 12.73,-4.95c3.02,-3.29 4.52,-8.03 4.52,-14.2l0,-55.96l-0.01,0z"/>
   <path id="svg_4" fill="url(#SVGID_00000132783882782935303710000001241920534789821604_)" d="m318.95,49.81003l38.71,0l-39.35,105.2l-37.87,0l-39.34,-105.2l38.71,0l19.57,60.38l19.57,-60.38z"/>
   <path id="svg_5" fill="url(#SVGID_00000003098934060892303420000010952929136388571524_)" d="m399.42,35.19003c-4,4 -8.73,6 -14.2,6c-5.47,0 -10.21,-1.99 -14.21,-6c-3.99,-3.99 -6,-8.73 -6,-14.2c0,-5.47 2,-10.17 6,-14.09c4,-3.93 8.73,-5.9 14.21,-5.9c5.47,0 10.2,1.97 14.2,5.9c3.99,3.92 6,8.63 6,14.09c0,5.47 -2.01,10.2 -6,14.2zm-31.67,119.82l0,-105.2l34.93,0l0,105.2l-34.93,0z"/>
   <path id="svg_6" fill="url(#SVGID_00000024720549823948835850000002793882361946283178_)" d="m490.62,49.81003l38.71,0l-39.34,105.2l-37.87,0l-39.34,-105.2l38.71,0l19.57,60.38l19.56,-60.38z"/>
   <path id="svg_7" fill="url(#SVGID_00000119818676538896608580000012648564445586800774_)" d="m608.86,49.81003l34.93,0l0,105.2l-34.93,0l0,-9.68c-7.15,8.41 -17.12,12.62 -29.87,12.62c-14.03,0 -25.78,-5.29 -35.24,-15.89c-9.47,-10.58 -14.2,-23.81 -14.2,-39.66c0,-15.84 4.73,-29.07 14.2,-39.66c9.46,-10.59 21.21,-15.89 35.24,-15.89c12.76,0 22.72,4.21 29.87,12.62l0,-9.66zm-38.08,69.22c4.07,4.21 9.39,6.31 15.99,6.31c6.59,0 11.92,-2.1 15.99,-6.31c4.07,-4.21 6.1,-9.75 6.1,-16.62c0,-6.87 -2.04,-12.41 -6.1,-16.62c-4.07,-4.2 -9.4,-6.31 -15.99,-6.31c-6.6,0 -11.92,2.11 -15.99,6.31c-4.07,4.21 -6.1,9.76 -6.1,16.62c0,6.87 2.03,12.41 6.1,16.62z"/>
   <path id="svg_8" fill="url(#SVGID_00000008854583632474338340000016211593082071317410_)" d="m663.98,155.01003l0,-153.59l34.93,0l0,153.59l-34.93,0z"/>
   <path id="svg_9" fill="url(#SVGID_00000128463316110970639740000014780528878835106738_)" d="m820.72,158.16003c-15.57,0 -28.48,-3.29 -38.71,-9.89c-10.24,-6.59 -17.39,-15.49 -21.46,-26.72l32.19,-18.72c5.47,13.04 15.15,19.57 29.04,19.57c11.5,0 17.25,-3.27 17.25,-9.81c0,-4.31 -3.32,-7.78 -9.95,-10.43c-2.8,-1.16 -8.95,-3.11 -18.46,-5.86c-13.46,-3.92 -24.12,-9.43 -31.97,-16.52c-7.86,-7.08 -11.78,-16.93 -11.78,-29.56c0,-13.6 4.87,-24.61 14.62,-33.03c9.75,-8.41 21.91,-12.62 36.5,-12.62c12.34,0 23.28,2.87 32.82,8.63c9.54,5.75 16.84,14.09 21.88,25.03l-31.56,18.52c-4.62,-10.94 -12.27,-16.41 -22.93,-16.41c-4.49,0 -7.89,0.91 -10.2,2.75c-2.32,1.83 -3.47,4.15 -3.47,6.98c0,3.24 1.71,6 5.15,8.25c3.42,2.26 10.11,4.87 20.05,7.83c7,2.52 12.72,4.58 17.14,6.17c4.43,1.6 9.24,4.11 14.44,7.54c5.19,3.43 9.05,7.84 11.58,13.23c2.52,5.38 3.79,11.71 3.79,18.99c0,14.45 -5.12,25.74 -15.36,33.87c-10.24,8.15 -23.77,12.21 -40.6,12.21z"/>
   <path id="svg_10" fill="url(#SVGID_00000157280903316356320670000006251645552304041402_)" d="m924.23,115.24003c3.5,8.55 11.36,12.84 23.56,12.84c7.58,0 13.96,-2.45 19.15,-7.37l25.25,17.67c-10.38,13.05 -25.46,19.57 -45.23,19.57c-17.82,0 -32.09,-5.22 -42.81,-15.67c-10.73,-10.45 -16.09,-23.67 -16.09,-39.66c0,-15.85 5.26,-29.11 15.78,-39.76c10.51,-10.66 23.91,-15.99 40.18,-15.99c15.71,0 28.69,5.26 38.93,15.78c10.23,10.52 15.36,23.71 15.36,39.56c0,4.62 -0.49,8.98 -1.47,13.04l-72.61,0l0,-0.01zm-0.43,-24.2l40.4,0c-2.81,-9.81 -9.4,-14.72 -19.78,-14.72c-10.8,0 -17.67,4.91 -20.62,14.72z"/>
   <path id="svg_11" fill="url(#SVGID_00000108278915907623074090000016399814800884050358_)" d="m1133.98,46.86003c12.21,0 21.85,3.89 28.93,11.68c7.08,7.78 10.63,18.48 10.63,32.09l0,64.38l-35.13,0l0,-60.38c0,-9.82 -4.35,-14.73 -13.05,-14.73c-4.77,0 -8.38,1.58 -10.83,4.74c-2.45,3.15 -3.68,7.47 -3.68,12.94l0,57.44l-34.93,0l0,-60.38c0,-9.82 -4.42,-14.73 -13.26,-14.73c-4.77,0 -8.38,1.58 -10.83,4.74c-2.45,3.15 -3.68,7.47 -3.68,12.94l0,57.44l-34.93,0l0,-105.2l34.93,0l0,9.89c6.45,-8.55 15.92,-12.84 28.4,-12.84c12.06,0 21.04,4.49 26.94,13.46c7.28,-8.99 17.45,-13.48 30.49,-13.48z"/>
   <path id="svg_12" fill="url(#SVGID_00000020375681684746268140000012471938203162287034_)" d="m1224.14,35.19003c-4,4 -8.73,6 -14.2,6c-5.47,0 -10.21,-1.99 -14.21,-6c-3.99,-3.99 -6,-8.73 -6,-14.2c0,-5.47 2,-10.17 6,-14.09c4,-3.93 8.73,-5.9 14.21,-5.9c5.47,0 10.2,1.97 14.2,5.9c3.99,3.92 6,8.63 6,14.09c-0.01,5.47 -2.01,10.2 -6,14.2zm-31.67,119.82l0,-105.2l34.93,0l0,105.2l-34.93,0z"/>
   <path id="svg_13" fill="url(#SVGID_00000122684257220290434500000008346822566580306054_)" d="m1249.07,108.30003l0,-33.24l82.06,0l0,33.24l-82.06,0z"/>
   <path id="svg_14" fill="url(#SVGID_00000170973359037432841830000006684180624790793907_)" d="m1383.92,155.01003l-47.55,-147.28l41.24,0l28.61,101.41l28.82,-101.41l41.24,0l-47.55,147.28l-44.81,0z"/>
   <path id="svg_15" fill="url(#SVGID_00000137097495438124967970000003367606644604380069_)" d="m1548.03,49.81003l34.93,0l0,105.2l-34.93,0l0,-9.68c-7.15,8.41 -17.12,12.62 -29.87,12.62c-14.03,0 -25.78,-5.29 -35.24,-15.89c-9.47,-10.58 -14.2,-23.81 -14.2,-39.66c0,-15.84 4.73,-29.07 14.2,-39.66c9.46,-10.59 21.21,-15.89 35.24,-15.89c12.76,0 22.72,4.21 29.87,12.62l0,-9.66zm-38.08,69.22c4.07,4.21 9.39,6.31 15.99,6.31c6.59,0 11.92,-2.1 15.99,-6.31c4.07,-4.21 6.1,-9.75 6.1,-16.62c0,-6.87 -2.04,-12.41 -6.1,-16.62c-4.07,-4.2 -9.4,-6.31 -15.99,-6.31c-6.6,0 -11.92,2.11 -15.99,6.31c-4.07,4.21 -6.1,9.76 -6.1,16.62c0,6.87 2.03,12.41 6.1,16.62z"/>
   <path id="svg_16" fill="url(#SVGID_00000086690022635352976000000004828570655544535231_)" d="m1667.32,46.86003c11.36,0 20.65,3.89 27.88,11.68c7.22,7.78 10.83,18.97 10.83,33.56l0,62.9l-34.93,0l0,-58.49c0,-5.47 -1.44,-9.6 -4.31,-12.41c-2.88,-2.8 -6.7,-4.21 -11.47,-4.21c-5.47,0 -9.71,1.65 -12.73,4.95s-4.52,8.03 -4.52,14.2l0,55.96l-34.93,0l0,-105.2l34.93,0l0,10.52c6.31,-8.97 16.06,-13.46 29.25,-13.46z"/>
   <path id="svg_17" fill="url(#SVGID_00000062895695975154078720000008689554159827405201_)" d="m1756.63,35.19003c-4,4 -8.73,6 -14.2,6c-5.47,0 -10.21,-1.99 -14.21,-6c-3.99,-3.99 -6,-8.73 -6,-14.2c0,-5.47 2,-10.17 6,-14.09c4,-3.93 8.73,-5.9 14.21,-5.9c5.47,0 10.2,1.97 14.2,5.9c3.99,3.92 6,8.63 6,14.09c-0.01,5.47 -2.01,10.2 -6,14.2zm-31.67,119.82l0,-105.2l34.93,0l0,105.2l-34.93,0z"/>
   <path id="svg_18" fill="url(#SVGID_00000060748396396855626350000008554903985179083429_)" d="m1780.08,155.01003l0,-153.59l34.93,0l0,153.59l-34.93,0z"/>
   <path id="svg_19" fill="url(#SVGID_00000015329097804758515280000010214721738166574241_)" d="m1835.2,155.01003l0,-153.59l34.93,0l0,153.59l-34.93,0z"/>
   <path id="svg_20" fill="url(#SVGID_00000029022499259975068150000009113573291226140855_)" d="m1964.38,49.81003l34.93,0l0,105.2l-34.93,0l0,-9.68c-7.15,8.41 -17.12,12.62 -29.87,12.62c-14.03,0 -25.78,-5.29 -35.24,-15.89c-9.47,-10.58 -14.2,-23.81 -14.2,-39.66c0,-15.84 4.73,-29.07 14.2,-39.66c9.46,-10.59 21.21,-15.89 35.24,-15.89c12.76,0 22.72,4.21 29.87,12.62l0,-9.66zm-38.07,69.22c4.07,4.21 9.39,6.31 15.99,6.31c6.59,0 11.92,-2.1 15.99,-6.31s6.1,-9.75 6.1,-16.62c0,-6.87 -2.04,-12.41 -6.1,-16.62c-4.07,-4.2 -9.4,-6.31 -15.99,-6.31c-6.6,0 -11.92,2.11 -15.99,6.31c-4.07,4.21 -6.1,9.76 -6.1,16.62c-0.01,6.87 2.02,12.41 6.1,16.62z"/>
  </g>
 </g>
</svg>