<svg width="2000" height="489.99999999999994" xmlns="http://www.w3.org/2000/svg" xml:space="preserve" version="1.1">
 <defs>
  <linearGradient y2="0.49999" x2="-0.09046" y1="0.49999" x1="9.14541" id="SVGID_1_">
   <stop stop-color="#E30C13" offset="0"/>
   <stop stop-color="#E00C13" offset="0.175"/>
   <stop stop-color="#D60B12" offset="0.3124"/>
   <stop stop-color="#C50A11" offset="0.4369"/>
   <stop stop-color="#AE090F" offset="0.5539"/>
   <stop stop-color="#90080C" offset="0.6657"/>
   <stop stop-color="#6A0609" offset="0.7735"/>
   <stop stop-color="#3E0305" offset="0.8781"/>
   <stop stop-color="#0C0101" offset="0.9777"/>
   <stop stop-color="#000000" offset="1"/>
  </linearGradient>
  <linearGradient y2="0.5" x2="-0.93336" y1="0.5" x1="6.60203" id="SVGID_00000005948880671460222460000008433612100146458046_">
   <stop stop-color="#E30C13" offset="0"/>
   <stop stop-color="#E00C13" offset="0.175"/>
   <stop stop-color="#D60B12" offset="0.3124"/>
   <stop stop-color="#C50A11" offset="0.4369"/>
   <stop stop-color="#AE090F" offset="0.5539"/>
   <stop stop-color="#90080C" offset="0.6657"/>
   <stop stop-color="#6A0609" offset="0.7735"/>
   <stop stop-color="#3E0305" offset="0.8781"/>
   <stop stop-color="#0C0101" offset="0.9777"/>
   <stop stop-color="#000000" offset="1"/>
  </linearGradient>
  <linearGradient y2="0.49996" x2="-1.93577" y1="0.49996" x1="5.31094" id="SVGID_00000164495859469285636840000011211990822566506117_">
   <stop stop-color="#E30C13" offset="0"/>
   <stop stop-color="#E00C13" offset="0.175"/>
   <stop stop-color="#D60B12" offset="0.3124"/>
   <stop stop-color="#C50A11" offset="0.4369"/>
   <stop stop-color="#AE090F" offset="0.5539"/>
   <stop stop-color="#90080C" offset="0.6657"/>
   <stop stop-color="#6A0609" offset="0.7735"/>
   <stop stop-color="#3E0305" offset="0.8781"/>
   <stop stop-color="#0C0101" offset="0.9777"/>
   <stop stop-color="#000000" offset="1"/>
  </linearGradient>
  <linearGradient y2="0.5" x2="-3.15898" y1="0.5" x1="4.37641" id="SVGID_00000161591422920712039450000007891438628491759546_">
   <stop stop-color="#E30C13" offset="0"/>
   <stop stop-color="#E00C13" offset="0.175"/>
   <stop stop-color="#D60B12" offset="0.3124"/>
   <stop stop-color="#C50A11" offset="0.4369"/>
   <stop stop-color="#AE090F" offset="0.5539"/>
   <stop stop-color="#90080C" offset="0.6657"/>
   <stop stop-color="#6A0609" offset="0.7735"/>
   <stop stop-color="#3E0305" offset="0.8781"/>
   <stop stop-color="#0C0101" offset="0.9777"/>
   <stop stop-color="#000000" offset="1"/>
  </linearGradient>
  <linearGradient y2="0.5" x2="-4.49368" y1="0.5" x1="3.44902" id="SVGID_00000156545818536845618770000000647364689565557644_">
   <stop stop-color="#E30C13" offset="0"/>
   <stop stop-color="#E00C13" offset="0.175"/>
   <stop stop-color="#D60B12" offset="0.3124"/>
   <stop stop-color="#C50A11" offset="0.4369"/>
   <stop stop-color="#AE090F" offset="0.5539"/>
   <stop stop-color="#90080C" offset="0.6657"/>
   <stop stop-color="#6A0609" offset="0.7735"/>
   <stop stop-color="#3E0305" offset="0.8781"/>
   <stop stop-color="#0C0101" offset="0.9777"/>
   <stop stop-color="#000000" offset="1"/>
  </linearGradient>
  <linearGradient y2="0.5" x2="-5.1057" y1="0.5" x1="2.14151" id="SVGID_00000011711149648394111400000015871008381126850955_">
   <stop stop-color="#E30C13" offset="0"/>
   <stop stop-color="#E00C13" offset="0.175"/>
   <stop stop-color="#D60B12" offset="0.3124"/>
   <stop stop-color="#C50A11" offset="0.4369"/>
   <stop stop-color="#AE090F" offset="0.5539"/>
   <stop stop-color="#90080C" offset="0.6657"/>
   <stop stop-color="#6A0609" offset="0.7735"/>
   <stop stop-color="#3E0305" offset="0.8781"/>
   <stop stop-color="#0C0101" offset="0.9777"/>
   <stop stop-color="#000000" offset="1"/>
  </linearGradient>
  <linearGradient y2="0.50004" x2="-7.39822" y1="0.50004" x1="1.2539" id="SVGID_00000126290261647632019990000006421275997991310526_">
   <stop stop-color="#E30C13" offset="0"/>
   <stop stop-color="#E00C13" offset="0.175"/>
   <stop stop-color="#D60B12" offset="0.3124"/>
   <stop stop-color="#C50A11" offset="0.4369"/>
   <stop stop-color="#AE090F" offset="0.5539"/>
   <stop stop-color="#90080C" offset="0.6657"/>
   <stop stop-color="#6A0609" offset="0.7735"/>
   <stop stop-color="#3E0305" offset="0.8781"/>
   <stop stop-color="#0C0101" offset="0.9777"/>
   <stop stop-color="#000000" offset="1"/>
  </linearGradient>
 </defs>
 <g>
  <title>Layer 1</title>
  <g id="svg_1">
   <path id="svg_2" fill="url(#SVGID_1_)" d="m104.79,266.10997l120.5,0l0,101.65l-225.29,0l0,-366.76l104.79,0l0,265.11z" class="st0"/>
   <path id="svg_3" fill="url(#SVGID_00000005948880671460222460000008433612100146458046_)" d="m335.32,269.78997c8.4,17.46 26.2,26.19 53.44,26.19c16.07,0 30.91,-5.58 44.55,-16.76l63.39,53.44c-26.19,28.28 -63.21,42.43 -111.07,42.43c-44.7,0 -80.6,-13.01 -107.67,-39.03s-40.61,-58.77 -40.61,-98.24c0,-39.82 13.18,-73 39.56,-99.55c26.38,-26.55 59.63,-39.82 99.82,-39.82c39.81,0 72.56,13.02 98.24,39.04c25.67,26.02 38.51,58.76 38.51,98.24c0,11.52 -1.41,22.87 -4.19,34.05l-173.97,0l0,0.01zm-1.57,-62.36l88.01,0c-5.94,-20.95 -20.08,-31.43 -42.43,-31.43c-22.7,0 -37.9,10.48 -45.58,31.43z"/>
   <path id="svg_4" fill="url(#SVGID_00000164495859469285636840000011211990822566506117_)" d="m725.65,105.78997l96.92,0l0,254.11c0,20.97 -3.92,39.48 -11.79,55.54c-7.86,16.07 -18.43,28.74 -31.69,37.99c-13.29,9.24 -27.86,16.15 -43.75,20.69c-15.9,4.53 -32.58,6.82 -50.05,6.82c-30.74,0 -57.98,-5.6 -81.73,-16.76c-23.75,-11.18 -41.39,-26.91 -52.91,-47.16l78.58,-45.58c12.57,17.11 29.5,25.67 50.81,25.67c12.23,0 22.87,-3.06 31.96,-9.18s13.63,-15.45 13.63,-28.03l0,-26.19c-16.78,20.61 -40.18,30.91 -70.22,30.91c-34.93,0 -63.65,-12.74 -86.18,-38.24c-22.53,-25.5 -33.79,-57.12 -33.79,-94.83c0,-37.73 11.26,-69.34 33.79,-94.84c22.53,-25.49 51.25,-38.24 86.18,-38.24c30.04,0 53.44,10.3 70.22,30.91l0,-23.59l0.02,0zm-80.43,159.27c8.55,9.08 19.83,13.62 33.79,13.62c13.98,0 25.24,-4.53 33.8,-13.62c8.55,-9.07 12.84,-20.25 12.84,-33.52c0,-13.27 -4.28,-24.45 -12.84,-33.54c-8.57,-9.08 -19.83,-13.62 -33.8,-13.62c-13.96,0 -25.24,4.53 -33.79,13.62c-8.57,9.08 -12.84,20.26 -12.84,33.54c0.01,13.28 4.28,24.45 12.84,33.52z"/>
   <path id="svg_5" fill="url(#SVGID_00000161591422920712039450000007891438628491759546_)" d="m949.88,269.78997c8.4,17.46 26.2,26.19 53.44,26.19c16.07,0 30.91,-5.58 44.55,-16.76l63.39,53.44c-26.19,28.28 -63.21,42.43 -111.07,42.43c-44.7,0 -80.6,-13.01 -107.67,-39.03c-27.06,-26.02 -40.61,-58.77 -40.61,-98.24c0,-39.82 13.18,-73 39.56,-99.55c26.38,-26.55 59.63,-39.82 99.82,-39.82c39.81,0 72.56,13.02 98.24,39.04c25.67,26.02 38.51,58.76 38.51,98.24c0,11.52 -1.41,22.87 -4.19,34.05l-173.97,0l0,0.01zm-1.56,-62.36l88.01,0c-5.94,-20.95 -20.08,-31.43 -42.43,-31.43c-22.71,0 -37.91,10.48 -45.58,31.43z"/>
   <path id="svg_6" fill="url(#SVGID_00000156545818536845618770000000647364689565557644_)" d="m1323.97,98.44997c28.63,0 51.61,9.88 68.89,29.6c17.29,19.75 25.94,49.17 25.94,88.29l0,151.41l-96.92,0l0,-140.93c0,-23.39 -10.84,-35.1 -32.49,-35.1c-11.52,0 -20.34,3.66 -26.46,11.01c-6.11,7.33 -9.16,17.46 -9.16,30.38l0,134.65l-96.94,0l0,-261.97l96.94,0l0,25.67c16.06,-22 39.46,-33.01 70.2,-33.01z"/>
   <path id="svg_7" fill="url(#SVGID_00000011711149648394111400000015871008381126850955_)" d="m1635.71,0.99997l96.92,0l0,366.76l-96.92,0l0,-23.58c-16.76,20.61 -40.17,30.91 -70.2,30.91c-35.29,0 -64.1,-13.1 -86.45,-39.29c-22.36,-26.2 -33.54,-59.21 -33.54,-99.02c0,-39.82 11.18,-72.83 33.54,-99.03c22.34,-26.19 51.16,-39.29 86.45,-39.29c30.04,0 53.44,10.3 70.2,30.91l0,-128.37zm-80.43,270.88c8.57,9.43 19.83,14.15 33.8,14.15c13.96,0 25.22,-4.72 33.79,-14.15c8.55,-9.43 12.84,-21.14 12.84,-35.1c0,-13.98 -4.28,-25.67 -12.84,-35.1c-8.57,-9.44 -19.83,-14.15 -33.79,-14.15c-13.98,0 -25.24,4.71 -33.8,14.15c-8.55,9.43 -12.84,21.12 -12.84,35.1c0,13.96 4.29,25.67 12.84,35.1z"/>
   <path id="svg_8" fill="url(#SVGID_00000126290261647632019990000006421275997991310526_)" d="m1868.33,182.80997c0,4.19 3.22,7.52 9.68,9.96c6.47,2.44 14.59,4.28 24.38,5.5c9.77,1.22 20.25,3.58 31.43,7.07c11.18,3.5 21.66,7.86 31.44,13.1c9.77,5.24 17.89,13.54 24.36,24.89c6.46,11.35 9.69,25.06 9.69,41.12c0,16.76 -3.75,31.44 -11.27,44.01c-7.51,12.57 -17.37,22 -29.6,28.28c-12.23,6.29 -24.72,10.93 -37.46,13.88c-12.76,2.97 -25.92,4.46 -39.56,4.46c-63.21,0 -104.08,-20.78 -122.6,-62.34l84.35,-37.73c6.63,17.81 19.03,26.72 37.2,26.72c11.87,0 17.82,-3.85 17.82,-11.52c0,-4.53 -4.38,-8.21 -13.1,-11.01c-8.74,-2.8 -19.22,-5.68 -31.44,-8.65c-12.23,-2.97 -24.53,-6.99 -36.93,-12.05c-12.4,-5.05 -22.97,-13.52 -31.69,-25.41c-8.74,-11.87 -13.1,-26.72 -13.1,-44.53c0,-28.64 10.91,-50.83 32.74,-66.54c21.83,-15.71 47.06,-23.58 75.71,-23.58c57.29,0 95.17,22.19 113.7,66.54l-80.16,28.82c-6.29,-14.67 -16.07,-22.01 -29.35,-22.01c-10.83,0.01 -16.24,3.68 -16.24,11.02z"/>
  </g>
 </g>
</svg>