<svg width="2000" height="280" xmlns="http://www.w3.org/2000/svg" xml:space="preserve" version="1.1">
 <defs>
  <linearGradient y2="0.39542" x2="14.42494" y1="0.50303" x1="0.10781" id="SVGID_1_">
   <stop stop-color="#B81317" offset="0"/>
   <stop stop-color="#E96323" offset="0.5225"/>
   <stop stop-color="#E74310" offset="1"/>
  </linearGradient>
  <linearGradient y2="0.35955" x2="15.0391" y1="0.51239" x1="-1.12137" id="SVGID_00000026134590506911239560000008521096222757756033_">
   <stop stop-color="#B81317" offset="0"/>
   <stop stop-color="#E96323" offset="0.5225"/>
   <stop stop-color="#E74310" offset="1"/>
  </linearGradient>
  <linearGradient y2="0.37283" x2="21.41957" y1="0.52687" x1="-3.58639" id="SVGID_00000052068929389244589620000017197744334686881456_">
   <stop stop-color="#B81317" offset="0"/>
   <stop stop-color="#E96323" offset="0.5225"/>
   <stop stop-color="#E74310" offset="1"/>
  </linearGradient>
  <linearGradient y2="0.37563" x2="11.62152" y1="0.53275" x1="-2.64313" id="SVGID_00000115514480108086446270000006509597866604099970_">
   <stop stop-color="#B81317" offset="0"/>
   <stop stop-color="#E96323" offset="0.5225"/>
   <stop stop-color="#E74310" offset="1"/>
  </linearGradient>
  <linearGradient y2="0.42244" x2="30.45851" y1="0.52976" x1="-10.69949" id="SVGID_00000161626343892599550170000012050613297570391221_">
   <stop stop-color="#B81317" offset="0"/>
   <stop stop-color="#E96323" offset="0.5225"/>
   <stop stop-color="#E74310" offset="1"/>
  </linearGradient>
  <linearGradient y2="0.39186" x2="10.14879" y1="0.54897" x1="-4.11585" id="SVGID_00000087402543948510670010000011432700142468722347_">
   <stop stop-color="#B81317" offset="0"/>
   <stop stop-color="#E96323" offset="0.5225"/>
   <stop stop-color="#E74310" offset="1"/>
  </linearGradient>
  <linearGradient y2="0.409" x2="9.33213" y1="0.55779" x1="-5.22104" id="SVGID_00000007394114172275874360000012220604178823307420_">
   <stop stop-color="#B81317" offset="0"/>
   <stop stop-color="#E96323" offset="0.5225"/>
   <stop stop-color="#E74310" offset="1"/>
  </linearGradient>
  <linearGradient y2="0.44084" x2="26.67047" y1="0.54845" x1="-20.93424" id="SVGID_00000121264788622687992270000017149529703983455382_">
   <stop stop-color="#B81317" offset="0"/>
   <stop stop-color="#E96323" offset="0.5225"/>
   <stop stop-color="#E74310" offset="1"/>
  </linearGradient>
  <linearGradient y2="0.4511" x2="5.39344" y1="0.55871" x1="-5.37334" id="SVGID_00000057849230475880345680000008011993355058750099_">
   <stop stop-color="#B81317" offset="0"/>
   <stop stop-color="#E96323" offset="0.5225"/>
   <stop stop-color="#E74310" offset="1"/>
  </linearGradient>
  <linearGradient y2="0.45663" x2="6.01855" y1="0.56885" x1="-9.12021" id="SVGID_00000059989298861157323610000007548516512586054569_">
   <stop stop-color="#B81317" offset="0"/>
   <stop stop-color="#E96323" offset="0.5225"/>
   <stop stop-color="#E74310" offset="1"/>
  </linearGradient>
 </defs>
 <g>
  <title>Layer 1</title>
  <g id="svg_1">
   <g id="svg_2">
    <path id="svg_3" fill="url(#SVGID_1_)" d="m107.03,280.52002c-27.69,0 -50.65,-5.85 -68.85,-17.59c-18.21,-11.72 -30.94,-27.56 -38.18,-47.53l57.25,-33.3c9.73,23.2 26.95,34.8 51.64,34.8c20.46,0 30.68,-5.81 30.68,-17.43c0,-7.67 -5.9,-13.84 -17.69,-18.55c-4.98,-2.06 -15.92,-5.53 -32.82,-10.41c-23.95,-6.99 -42.92,-16.78 -56.89,-29.38s-20.96,-30.13 -20.96,-52.58c0,-24.19 8.68,-43.78 26.01,-58.74c17.34,-14.98 38.98,-22.46 64.93,-22.46c21.94,0 41.4,5.12 58.37,15.34s29.93,25.07 38.91,44.53l-56.12,32.93c-8.23,-19.46 -21.83,-29.19 -40.8,-29.19c-7.99,0 -14.03,1.63 -18.15,4.88c-4.11,3.27 -6.17,7.4 -6.17,12.42c0,5.77 3.05,10.65 9.15,14.67c6.09,4.02 17.99,8.66 35.66,13.92c12.47,4.48 22.63,8.15 30.51,10.99c7.88,2.84 16.43,7.3 25.68,13.4c9.23,6.11 16.11,13.94 20.61,23.52c4.5,9.58 6.75,20.84 6.75,33.78c0,25.71 -9.11,45.79 -27.32,60.25s-42.27,21.73 -72.2,21.73z" class="st0"/>
    <path id="svg_4" fill="url(#SVGID_00000026134590506911239560000008521096222757756033_)" d="m348.75,87.81002l62.12,0l0,187.1l-62.12,0l0,-18.71c-11.23,15.96 -28.56,23.94 -52.01,23.94c-20.21,0 -36.74,-6.92 -49.58,-20.76c-12.85,-13.84 -19.28,-33.73 -19.28,-59.68l0,-111.89l62.12,0l0,104.03c0,9.73 2.57,17.1 7.67,22.07c5.12,5.01 11.91,7.5 20.4,7.5c9.73,0 17.27,-2.93 22.65,-8.8c5.36,-5.85 8.04,-14.27 8.04,-25.25l0,-99.55l-0.01,0z"/>
    <path id="svg_5" fill="url(#SVGID_00000052068929389244589620000017197744334686881456_)" d="m508.91,122.60002c3.49,-12.22 10.48,-21.69 20.96,-28.44c10.48,-6.73 22.2,-10.1 35.18,-10.1l0,68.85c-14.23,-2.25 -27.13,0.37 -38.74,7.86c-11.59,7.48 -17.4,19.71 -17.4,36.66l0,77.46l-62.12,0l0,-187.1l62.12,0l0,34.81z"/>
    <path id="svg_6" fill="url(#SVGID_00000115514480108086446270000006509597866604099970_)" d="m709.09,87.81002l68.86,0l-69.98,187.1l-67.35,0l-69.98,-187.1l68.85,0l34.8,107.39l34.8,-107.39z"/>
    <path id="svg_7" fill="url(#SVGID_00000161626343892599550170000012050613297570391221_)" d="m852.22,61.81002c-7.1,7.1 -15.52,10.65 -25.25,10.65s-18.15,-3.56 -25.26,-10.65c-7.11,-7.11 -10.67,-15.53 -10.67,-25.26s3.56,-18.09 10.67,-25.07c7.11,-6.99 15.53,-10.48 25.26,-10.48s18.15,3.49 25.25,10.48c7.11,6.99 10.67,15.34 10.67,25.07s-3.56,18.15 -10.67,25.26zm-56.31,213.1l0,-187.1l62.12,0l0,187.1l-62.12,0z"/>
    <path id="svg_8" fill="url(#SVGID_00000087402543948510670010000011432700142468722347_)" d="m1014.43,87.81002l68.86,0l-69.98,187.1l-67.35,0l-69.98,-187.1l68.85,0l34.8,107.39l34.8,-107.39z"/>
    <path id="svg_9" fill="url(#SVGID_00000007394114172275874360000012220604178823307420_)" d="m1224.74,87.81002l62.12,0l0,187.1l-62.12,0l0,-17.21c-12.73,14.96 -30.45,22.44 -53.14,22.44c-24.94,0 -45.84,-9.41 -62.68,-28.24c-16.84,-18.83 -25.26,-42.34 -25.26,-70.54c0,-28.18 8.42,-51.69 25.26,-70.54c16.84,-18.83 37.73,-28.24 62.68,-28.24c22.69,0 40.41,7.48 53.14,22.46l0,-17.23zm-67.73,123.12c7.22,7.48 16.71,11.23 28.44,11.23s21.2,-3.75 28.44,-11.23c7.24,-7.48 10.86,-17.34 10.86,-29.57c0,-12.22 -3.62,-22.07 -10.86,-29.55c-7.24,-7.5 -16.71,-11.23 -28.44,-11.23s-21.21,3.73 -28.44,11.23c-7.24,7.48 -10.86,17.34 -10.86,29.55c0,12.23 3.62,22.09 10.86,29.57z"/>
    <path id="svg_10" fill="url(#SVGID_00000121264788622687992270000017149529703983455382_)" d="m1322.77,274.91002l0,-273.16l62.12,0l0,273.16l-62.12,0z"/>
    <path id="svg_11" fill="url(#SVGID_00000057849230475880345680000008011993355058750099_)" d="m1733.07,241.05002c-26.57,26.31 -59.06,39.47 -97.48,39.47c-38.42,0 -70.91,-13.16 -97.48,-39.47c-26.57,-26.33 -39.85,-58.69 -39.85,-97.11s13.28,-70.78 39.85,-97.11c26.57,-26.31 59.06,-39.47 97.48,-39.47c38.42,0 70.91,13.16 97.48,39.47c26.57,26.33 39.85,58.69 39.85,97.11s-13.28,70.78 -39.85,97.11zm-148,-46.02c13.48,13.35 30.32,20.02 50.52,20.02c20.21,0 37.05,-6.67 50.52,-20.02c13.46,-13.35 20.21,-30.38 20.21,-51.08s-6.75,-37.73 -20.21,-51.08c-13.48,-13.35 -30.32,-20.01 -50.52,-20.01c-20.21,0 -37.05,6.67 -50.52,20.01c-13.46,13.35 -20.21,30.38 -20.21,51.08s6.75,37.73 20.21,51.08z"/>
    <path id="svg_12" fill="url(#SVGID_00000059989298861157323610000007548516512586054569_)" d="m1905.76,12.98002c26.44,0 48.66,8.6 66.62,25.82c17.96,17.21 26.94,39.17 26.94,65.85c0,26.7 -8.98,48.64 -26.94,65.87c-17.96,17.21 -40.17,25.82 -66.62,25.82l-34.8,0l0,78.58l-66.98,0l0,-261.94l101.78,0zm0,119.74c7.5,0 13.8,-2.62 18.9,-7.86c5.12,-5.23 7.67,-11.98 7.67,-20.21s-2.55,-14.9 -7.67,-20.01c-5.1,-5.12 -11.4,-7.67 -18.9,-7.67l-34.8,0l0,55.75l34.8,0z"/>
   </g>
  </g>
 </g>
</svg>