<svg width="1999.9999999999998" height="550" xmlns="http://www.w3.org/2000/svg" xml:space="preserve" version="1.1">
 <defs>
  <linearGradient y2="0.50001" x2="6.75722" y1="0.50001" x1="-0.07957" id="SVGID_1_">
   <stop stop-color="#050126" offset="0"/>
   <stop stop-color="#6C1062" offset="0.3156"/>
   <stop stop-color="#A41883" offset="0.5"/>
   <stop stop-color="#9A3995" offset="0.5686"/>
   <stop stop-color="#7B99CA" offset="0.7813"/>
   <stop stop-color="#68D6EB" offset="0.9297"/>
   <stop stop-color="#60EEF8" offset="1"/>
  </linearGradient>
  <linearGradient y2="0.49999" x2="6.3061" y1="0.49999" x1="-1.33393" id="SVGID_00000174587575496584707950000007255661497247412399_">
   <stop stop-color="#050126" offset="0"/>
   <stop stop-color="#6C1062" offset="0.3156"/>
   <stop stop-color="#A41883" offset="0.5"/>
   <stop stop-color="#9A3995" offset="0.5686"/>
   <stop stop-color="#7B99CA" offset="0.7813"/>
   <stop stop-color="#68D6EB" offset="0.9297"/>
   <stop stop-color="#60EEF8" offset="1"/>
  </linearGradient>
  <linearGradient y2="0.49999" x2="4.7925" y1="0.49999" x1="-2.08188" id="SVGID_00000026157004595032250250000015132004665256072835_">
   <stop stop-color="#050126" offset="0"/>
   <stop stop-color="#6C1062" offset="0.3156"/>
   <stop stop-color="#A41883" offset="0.5"/>
   <stop stop-color="#9A3995" offset="0.5686"/>
   <stop stop-color="#7B99CA" offset="0.7813"/>
   <stop stop-color="#68D6EB" offset="0.9297"/>
   <stop stop-color="#60EEF8" offset="1"/>
  </linearGradient>
  <linearGradient y2="0.50001" x2="3.88297" y1="0.50001" x1="-3.34644" id="SVGID_00000001661768032334492140000016170652249361044406_">
   <stop stop-color="#050126" offset="0"/>
   <stop stop-color="#6C1062" offset="0.3156"/>
   <stop stop-color="#A41883" offset="0.5"/>
   <stop stop-color="#9A3995" offset="0.5686"/>
   <stop stop-color="#7B99CA" offset="0.7813"/>
   <stop stop-color="#68D6EB" offset="0.9297"/>
   <stop stop-color="#60EEF8" offset="1"/>
  </linearGradient>
  <linearGradient y2="0.49999" x2="2.6894" y1="0.49999" x1="-4.12222" id="SVGID_00000080907452426577123730000016674772642094943415_">
   <stop stop-color="#050126" offset="0"/>
   <stop stop-color="#6C1062" offset="0.3156"/>
   <stop stop-color="#A41883" offset="0.5"/>
   <stop stop-color="#9A3995" offset="0.5686"/>
   <stop stop-color="#7B99CA" offset="0.7813"/>
   <stop stop-color="#68D6EB" offset="0.9297"/>
   <stop stop-color="#60EEF8" offset="1"/>
  </linearGradient>
  <linearGradient y2="0.50001" x2="1.68785" y1="0.50001" x1="-5.5425" id="SVGID_00000014630373047377751720000009076261377213786538_">
   <stop stop-color="#050126" offset="0"/>
   <stop stop-color="#6C1062" offset="0.3156"/>
   <stop stop-color="#A41883" offset="0.5"/>
   <stop stop-color="#9A3995" offset="0.5686"/>
   <stop stop-color="#7B99CA" offset="0.7813"/>
   <stop stop-color="#68D6EB" offset="0.9297"/>
   <stop stop-color="#60EEF8" offset="1"/>
  </linearGradient>
 </defs>
 <g>
  <title>Layer 1</title>
  <g id="svg_1">
   <path id="svg_2" fill="url(#SVGID_1_)" d="m169.64,433.97003c-43.92,0 -80.31,-9.29 -109.13,-27.89c-28.9,-18.58 -49.06,-43.68 -60.51,-75.31l90.75,-52.8c15.42,36.77 42.7,55.17 81.85,55.17c32.42,0 48.61,-9.21 48.61,-27.65c0,-12.14 -9.35,-21.94 -28.01,-29.39c-7.89,-3.26 -25.26,-8.76 -52.05,-16.51c-37.93,-11.07 -68,-26.59 -90.14,-46.57c-22.15,-19.95 -33.2,-47.74 -33.2,-83.32c0,-38.35 13.72,-69.4 41.21,-93.12c27.48,-23.72 61.77,-35.58 102.89,-35.58c34.81,0 65.65,8.12 92.53,24.31c26.88,16.23 47.44,39.75 61.69,70.59l-88.97,52.2c-13.03,-30.84 -34.61,-46.27 -64.64,-46.27c-12.67,0 -22.26,2.59 -28.78,7.75c-6.52,5.18 -9.8,11.72 -9.8,19.67c0,9.15 4.86,16.9 14.53,23.25c9.63,6.38 28.5,13.74 56.51,22.08c19.75,7.1 35.86,12.91 48.37,17.41c12.47,4.51 26.03,11.58 40.68,21.25s25.54,22.1 32.67,37.28c7.12,15.2 10.69,33.03 10.69,53.55c0,40.72 -14.45,72.56 -43.27,95.49c-28.91,22.94 -67.04,34.41 -114.48,34.41z" class="st0"/>
   <path id="svg_3" fill="url(#SVGID_00000174587575496584707950000007255661497247412399_)" d="m657.72,425.07003l-110.3,0l-84.23,-126.33l0,126.33l-98.44,0l0,-415.18l98.44,0l0,242.58l76.54,-123.96l113.86,0l-99.66,148.29l103.79,148.27z"/>
   <path id="svg_4" fill="url(#SVGID_00000026157004595032250250000015132004665256072835_)" d="m868.28,128.51003l109.13,0l-101.44,291.82c-15.79,44.67 -38.13,76.89 -66.99,96.66c-28.9,19.77 -66.26,28.68 -112.12,26.7l0,-92.53c20.97,0 36.79,-2.57 47.48,-7.71c10.65,-5.14 19.35,-14.43 26.07,-27.87l-118.6,-287.07l110.3,0l59.91,172.01l46.26,-172.01z"/>
   <path id="svg_5" fill="url(#SVGID_00000001661768032334492140000016170652249361044406_)" d="m1171.38,9.89003c41.89,0 77.07,13.66 105.57,40.94c28.46,27.28 42.7,62.07 42.7,104.37c0,42.32 -14.25,77.11 -42.7,104.39c-28.5,27.28 -63.67,40.92 -105.57,40.92l-55.17,0l0,124.55l-106.17,0l0,-415.17l161.34,0zm0,189.8c11.86,0 21.82,-4.15 29.95,-12.45c8.1,-8.32 12.14,-18.98 12.14,-32.04c0,-13.03 -4.05,-23.62 -12.14,-31.73c-8.14,-8.1 -18.09,-12.14 -29.95,-12.14l-55.17,0l0,88.36l55.17,0z"/>
   <path id="svg_6" fill="url(#SVGID_00000080907452426577123730000016674772642094943415_)" d="m1547.98,128.51003l109.13,0l-110.91,296.56l-106.78,0l-110.91,-296.56l109.13,0l55.17,170.23l55.17,-170.23z"/>
   <path id="svg_7" fill="url(#SVGID_00000014630373047377751720000009076261377213786538_)" d="m1851.04,9.89003c41.89,0 77.11,13.66 105.57,40.94c28.5,27.28 42.7,62.07 42.7,104.37c0,42.32 -14.21,77.11 -42.7,104.39c-28.46,27.28 -63.67,40.92 -105.57,40.92l-55.17,0l0,124.55l-106.13,0l0,-415.17l161.3,0zm0,189.8c11.86,0 21.86,-4.15 29.95,-12.45c8.1,-8.32 12.14,-18.98 12.14,-32.04c0,-13.03 -4.05,-23.62 -12.14,-31.73c-8.1,-8.1 -18.09,-12.14 -29.95,-12.14l-55.17,0l0,88.36l55.17,0z"/>
  </g>
 </g>
</svg>