<svg width="2000" height="345" xmlns="http://www.w3.org/2000/svg" xml:space="preserve" version="1.1">
 <defs>
  <linearGradient y2="0.50002" x2="11.34895" y1="0.50002" x1="0.01683" id="SVGID_1_">
   <stop stop-color="#449AF9" offset="0"/>
   <stop stop-color="#64EFE2" offset="0.5"/>
   <stop stop-color="#FFFFFF" offset="1"/>
  </linearGradient>
  <linearGradient y2="0.49999" x2="15.22775" y1="0.49999" x1="-1.58894" id="SVGID_00000056396896913990473790000018379433563317606053_">
   <stop stop-color="#449AF9" offset="0"/>
   <stop stop-color="#64EFE2" offset="0.5"/>
   <stop stop-color="#FFFFFF" offset="1"/>
  </linearGradient>
  <linearGradient y2="0.49999" x2="13.4015" y1="0.49999" x1="-2.55292" id="SVGID_00000051364032748873558500000001334787798229259946_">
   <stop stop-color="#449AF9" offset="0"/>
   <stop stop-color="#64EFE2" offset="0.5"/>
   <stop stop-color="#FFFFFF" offset="1"/>
  </linearGradient>
  <linearGradient y2="0.50002" x2="11.9833" y1="0.50002" x1="-3.58789" id="SVGID_00000152252516812874440560000009371578316619707044_">
   <stop stop-color="#449AF9" offset="0"/>
   <stop stop-color="#64EFE2" offset="0.5"/>
   <stop stop-color="#FFFFFF" offset="1"/>
  </linearGradient>
  <linearGradient y2="0.49999" x2="31.76321" y1="0.49999" x1="-13.68959" id="SVGID_00000096763784738782338230000012254192367832889221_">
   <stop stop-color="#449AF9" offset="0"/>
   <stop stop-color="#64EFE2" offset="0.5"/>
   <stop stop-color="#FFFFFF" offset="1"/>
  </linearGradient>
  <linearGradient y2="0.49999" x2="10.47448" y1="0.49999" x1="-5.15545" id="SVGID_00000125592494045863694070000010317166291375596945_">
   <stop stop-color="#449AF9" offset="0"/>
   <stop stop-color="#64EFE2" offset="0.5"/>
   <stop stop-color="#FFFFFF" offset="1"/>
  </linearGradient>
  <linearGradient y2="0.49999" x2="10.18301" y1="0.49999" x1="-6.73519" id="SVGID_00000128451588353694011900000012871251451090186376_">
   <stop stop-color="#449AF9" offset="0"/>
   <stop stop-color="#64EFE2" offset="0.5"/>
   <stop stop-color="#FFFFFF" offset="1"/>
  </linearGradient>
  <linearGradient y2="0.5" x2="8.86078" y1="0.5" x1="-7.62641" id="SVGID_00000057860895873362637170000009605502228703714475_">
   <stop stop-color="#449AF9" offset="0"/>
   <stop stop-color="#64EFE2" offset="0.5"/>
   <stop stop-color="#FFFFFF" offset="1"/>
  </linearGradient>
 </defs>
 <g>
  <title>Layer 1</title>
  <g id="svg_1">
   <path id="svg_2" fill="url(#SVGID_1_)" d="m287.62,291.34002c-32.49,31.88 -72.3,47.82 -119.45,47.82s-86.96,-15.94 -119.45,-47.82c-32.49,-31.88 -48.72,-71.23 -48.72,-118.08s16.23,-86.2 48.73,-118.1c32.48,-31.87 72.3,-47.82 119.45,-47.82s86.95,15.95 119.45,47.82c32.48,31.9 48.73,71.25 48.73,118.1s-16.26,86.2 -48.74,118.08zm-174.98,-63.01c14.66,14.66 33.17,21.99 55.53,21.99s40.87,-7.32 55.53,-21.99c14.65,-14.65 21.97,-33 21.97,-55.07c0,-22.07 -7.32,-40.42 -21.97,-55.08c-14.66,-14.65 -33.17,-21.99 -55.53,-21.99s-40.87,7.34 -55.53,21.99c-14.66,14.66 -21.99,33.01 -21.99,55.08c0,22.07 7.33,40.42 21.99,55.07z" class="st0"/>
   <path id="svg_3" fill="url(#SVGID_00000056396896913990473790000018379433563317606053_)" d="m510.42,98.91002c24.78,0 44.65,8.55 59.61,25.62c14.96,17.07 22.44,42.53 22.44,76.38l0,131.01l-83.86,0l0,-121.94c0,-20.25 -9.38,-30.38 -28.1,-30.38c-9.97,0 -17.61,3.18 -22.9,9.52c-5.29,6.35 -7.94,15.12 -7.94,26.3l0,116.5l-83.86,0l0,-226.66l83.86,0l0,22.21c13.91,-19.04 34.17,-28.56 60.75,-28.56z"/>
   <path id="svg_4" fill="url(#SVGID_00000051364032748873558500000001334787798229259946_)" d="m700.35,247.15002c7.26,15.12 22.66,22.66 46.24,22.66c13.9,0 26.75,-4.83 38.53,-14.51l54.86,46.24c-22.68,24.48 -54.7,36.73 -96.11,36.73c-38.69,0 -69.74,-11.26 -93.16,-33.78c-23.42,-22.51 -35.13,-50.83 -35.13,-84.99c0,-34.46 11.4,-63.16 34.24,-86.13c22.81,-22.96 51.6,-34.46 86.35,-34.46c34.44,0 62.78,11.27 84.99,33.78c22.21,22.52 33.33,50.85 33.33,84.99c0,9.97 -1.22,19.81 -3.64,29.47l-150.5,0zm-1.35,-53.95l76.15,0c-5.14,-18.13 -17.38,-27.2 -36.72,-27.2c-19.65,0 -32.79,9.07 -39.43,27.2z"/>
   <path id="svg_5" fill="url(#SVGID_00000152252516812874440560000009371578316619707044_)" d="m1087.94,168.27002c27.2,15.4 40.79,38.83 40.79,70.26c0,29.01 -9.44,51.83 -28.33,68.44c-18.9,16.62 -46.31,24.94 -82.28,24.94l-134.18,0l0,-317.32l126.02,0c35.66,0 62.86,7.71 81.6,23.12c18.74,15.42 28.1,37.48 28.1,66.18c0.01,27.51 -10.58,48.97 -31.72,64.38zm-83.41,-75.7l-29.92,0l0,42.61l34.91,-0.45c12.99,-1.82 19.48,-8.77 19.48,-20.86c0,-6.95 -2.42,-12.23 -7.25,-15.86c-4.84,-3.63 -10.58,-5.44 -17.22,-5.44zm8.16,161.38c7.25,0 13.3,-2.12 18.13,-6.35c4.83,-4.23 7.25,-9.68 7.25,-16.33c0,-12.69 -6.79,-20.09 -20.39,-22.21l-43.07,-0.45l0,45.34l38.08,0z"/>
   <path id="svg_6" fill="url(#SVGID_00000096763784738782338230000012254192367832889221_)" d="m1153.67,331.92002l0,-330.92l83.86,0l0,330.92l-83.86,0z"/>
   <path id="svg_7" fill="url(#SVGID_00000125592494045863694070000010317166291375596945_)" d="m1384.86,338.27002c-33.85,0 -62.63,-11.48 -86.35,-34.46c-23.73,-22.96 -35.59,-51.38 -35.59,-85.22c0,-33.85 11.79,-62.25 35.36,-85.22c23.57,-22.96 52.43,-34.46 86.57,-34.46c34.16,0 63.02,11.49 86.59,34.46c23.57,22.97 35.35,51.38 35.35,85.22c0,33.85 -11.78,62.26 -35.35,85.22c-23.57,22.98 -52.42,34.46 -86.58,34.46zm-27.42,-90.9c7.09,7.42 16.23,11.12 27.42,11.12s20.33,-3.7 27.43,-11.12c7.1,-7.39 10.65,-16.99 10.65,-28.78c0,-11.78 -3.55,-21.38 -10.65,-28.78c-7.1,-7.4 -16.25,-11.1 -27.43,-11.1s-20.33,3.7 -27.42,11.1c-7.1,7.4 -10.66,17 -10.66,28.78c0,11.79 3.56,21.39 10.66,28.78z"/>
   <path id="svg_8" fill="url(#SVGID_00000128451588353694011900000012871251451090186376_)" d="m1644.15,338.27002c-34.77,0 -63.63,-11.4 -86.59,-34.24c-22.97,-22.81 -34.46,-51.29 -34.46,-85.44c0,-34.14 11.48,-62.63 34.46,-85.44c22.96,-22.82 51.82,-34.24 86.59,-34.24c22.35,0 42.83,5.38 61.42,16.1c18.59,10.73 32.87,25.16 42.83,43.29l-70.72,40.34c-7.55,-12.69 -18.74,-19.04 -33.53,-19.04c-10.58,0 -19.43,3.71 -26.52,11.1c-7.1,7.42 -10.66,16.7 -10.66,27.88s3.56,20.48 10.66,27.88c7.09,7.4 15.94,11.1 26.52,11.1c15.7,0 26.88,-6.49 33.53,-19.49l70.72,40.79c-9.96,18.44 -24.25,32.95 -42.83,43.52c-18.58,10.59 -39.06,15.89 -61.42,15.89z"/>
   <path id="svg_9" fill="url(#SVGID_00000057860895873362637170000009605502228703714475_)" d="m2000,331.92002l-92.93,0l-54.4,-90.67l0,90.67l-83.86,0l0,-317.33l83.86,0l0,178.6l47.6,-87.94l95.2,0l-68.9,113.33l73.43,113.34z"/>
  </g>
 </g>
</svg>