<svg width="2000" height="280" xmlns="http://www.w3.org/2000/svg" xml:space="preserve" version="1.1">
 <defs>
  <linearGradient y2="0.47071" x2="10.50687" y1="0.50187" x1="-0.12954" id="SVGID_1_">
   <stop stop-color="#2E2757" offset="0.00562"/>
   <stop stop-color="#3E3068" offset="0.3256"/>
   <stop stop-color="#5D4089" offset="1"/>
  </linearGradient>
  <linearGradient y2="0.46136" x2="10.65304" y1="0.50573" x1="-1.36541" id="SVGID_00000090282001366323129000000009810537219604507573_">
   <stop stop-color="#2E2757" offset="0.00562"/>
   <stop stop-color="#3E3068" offset="0.3256"/>
   <stop stop-color="#5D4089" offset="1"/>
  </linearGradient>
  <linearGradient y2="0.46654" x2="14.16959" y1="0.51127" x1="-3.76983" id="SVGID_00000133497462124229041880000018406965839191453363_">
   <stop stop-color="#2E2757" offset="0.00562"/>
   <stop stop-color="#3E3068" offset="0.3256"/>
   <stop stop-color="#5D4089" offset="1"/>
  </linearGradient>
  <linearGradient y2="0.46807" x2="7.71346" y1="0.51368" x1="-2.82949" id="SVGID_00000043446205092708561040000003867245582857729668_">
   <stop stop-color="#2E2757" offset="0.00562"/>
   <stop stop-color="#3E3068" offset="0.3256"/>
   <stop stop-color="#5D4089" offset="1"/>
  </linearGradient>
  <linearGradient y2="0.48135" x2="18.51942" y1="0.51209" x1="-10.79686" id="SVGID_00000053539290347022003210000007265410257853973901_">
   <stop stop-color="#2E2757" offset="0.00562"/>
   <stop stop-color="#3E3068" offset="0.3256"/>
   <stop stop-color="#5D4089" offset="1"/>
  </linearGradient>
  <linearGradient y2="0.4744" x2="6.2486" y1="0.52002" x1="-4.29434" id="SVGID_00000133518555743037323690000010205038630309564834_">
   <stop stop-color="#2E2757" offset="0.00562"/>
   <stop stop-color="#3E3068" offset="0.3256"/>
   <stop stop-color="#5D4089" offset="1"/>
  </linearGradient>
  <linearGradient y2="0.48012" x2="5.47237" y1="0.52331" x1="-5.49427" id="SVGID_00000111172100422499322710000005982598602050119095_">
   <stop stop-color="#2E2757" offset="0.00562"/>
   <stop stop-color="#3E3068" offset="0.3256"/>
   <stop stop-color="#5D4089" offset="1"/>
  </linearGradient>
  <linearGradient y2="0.48817" x2="12.8117" y1="0.51941" x1="-19.67007" id="SVGID_00000085950145451579380190000005717605709791273131_">
   <stop stop-color="#2E2757" offset="0.00562"/>
   <stop stop-color="#3E3068" offset="0.3256"/>
   <stop stop-color="#5D4089" offset="1"/>
  </linearGradient>
  <linearGradient y2="0.49196" x2="2.58806" y1="0.52312" x1="-5.51066" id="SVGID_00000008134424561314471610000011031677132867064762_">
   <stop stop-color="#2E2757" offset="0.00562"/>
   <stop stop-color="#3E3068" offset="0.3256"/>
   <stop stop-color="#5D4089" offset="1"/>
  </linearGradient>
  <linearGradient y2="0.49455" x2="2.06239" y1="0.52714" x1="-9.16975" id="SVGID_00000047750755353557094160000000382102545661792167_">
   <stop stop-color="#2E2757" offset="0.00562"/>
   <stop stop-color="#3E3068" offset="0.3256"/>
   <stop stop-color="#5D4089" offset="1"/>
  </linearGradient>
  <linearGradient y2="0.49776" x2="2.54201" y1="0.53034" x1="-27.50413" id="SVGID_00000022533357477187191560000017480207571575834755_">
   <stop stop-color="#2E2757" offset="0.00562"/>
   <stop stop-color="#3E3068" offset="0.3256"/>
   <stop stop-color="#5D4089" offset="1"/>
  </linearGradient>
  <linearGradient y2="0.49938" x2="1.04218" y1="0.53197" x1="-29.00396" id="SVGID_00000116199732903836240140000016329949427323555721_">
   <stop stop-color="#2E2757" offset="0.00562"/>
   <stop stop-color="#3E3068" offset="0.3256"/>
   <stop stop-color="#5D4089" offset="1"/>
  </linearGradient>
 </defs>
 <g>
  <title>Layer 1</title>
  <g id="svg_1">
   <path id="svg_2" fill="url(#SVGID_1_)" d="m98.52,256.74c-25.64,0 -47.02,-5.34 -64.1,-16.02c-17.09,-10.69 -28.57,-25.14 -34.42,-43.35l57.69,-33.41c7.87,20.03 22.04,30.03 42.52,30.03c15.29,0 22.94,-4.05 22.94,-12.15c0,-2.24 -0.56,-4.27 -1.69,-6.06c-1.13,-1.81 -3.26,-3.38 -6.41,-4.73s-5.91,-2.41 -8.27,-3.2c-2.36,-0.78 -6.47,-1.97 -12.31,-3.55c-5.85,-1.57 -10.24,-2.81 -13.16,-3.7c-47.01,-14.19 -70.51,-39.48 -70.51,-75.93c0,-21.59 7.81,-39.47 23.45,-53.64c15.62,-14.17 36.15,-21.26 61.56,-21.26c20.02,0 37.96,4.73 53.82,14.17c15.85,9.44 27.49,23.06 34.92,40.83l-56.01,32.73c-6.52,-16.65 -17.32,-24.97 -32.38,-24.97c-5.85,0 -10.29,1.18 -13.33,3.55c-3.04,2.36 -4.56,5.34 -4.56,8.93c0,4.96 2.64,8.78 7.93,11.48c5.28,2.69 15.47,6.19 30.54,10.46c11.24,3.37 20.47,6.57 27.67,9.61c7.19,3.04 14.73,7.32 22.59,12.83c7.88,5.51 13.78,12.6 17.72,21.25c3.93,8.66 5.9,18.84 5.9,30.54c0,24.07 -8.27,42.67 -24.8,55.83c-16.53,13.15 -38.97,19.73 -67.3,19.73z" class="st0"/>
   <path id="svg_3" fill="url(#SVGID_00000090282001366323129000000009810537219604507573_)" d="m312.08,82.65l62.41,0l0,168.69l-62.41,0l0,-16.53c-10.35,14.17 -25.42,21.26 -45.21,21.26c-18.45,0 -33.23,-6.36 -44.37,-19.07c-11.14,-12.7 -16.71,-31.65 -16.71,-56.85l0,-97.51l62.42,0l0,90.75c0,15.07 6.97,22.61 20.91,22.61c7.43,0 13.11,-2.36 17.04,-7.09c3.93,-4.72 5.91,-11.24 5.91,-19.57l0,-86.69l0.01,0z"/>
   <path id="svg_4" fill="url(#SVGID_00000133497462124229041880000018406965839191453363_)" d="m463.91,115.38c3.14,-11.47 9.33,-20.35 18.56,-26.65c9.22,-6.29 19.9,-9.44 32.05,-9.44l0,67.47c-13.49,-1.8 -25.31,0.85 -35.43,7.93c-10.11,7.09 -15.17,18.39 -15.17,33.91l0,62.75l-62.42,0l0,-168.7l62.42,0l0,32.73l-0.01,0z"/>
   <path id="svg_5" fill="url(#SVGID_00000043446205092708561040000003867245582857729668_)" d="m642.73,82.65l69.16,0l-64.1,168.69l-64.11,0l-64.1,-168.69l69.16,0l26.99,84.35l27,-84.35z"/>
   <path id="svg_6" fill="url(#SVGID_00000053539290347022003210000007265410257853973901_)" d="m756.75,69.83c-9.46,0 -17.61,-3.43 -24.46,-10.29c-6.87,-6.86 -10.29,-14.9 -10.29,-24.13c0,-9.22 3.42,-17.25 10.29,-24.12c6.86,-6.86 15.01,-10.29 24.46,-10.29c9.22,0 17.25,3.43 24.12,10.29c6.86,6.87 10.29,14.9 10.29,24.12c0,9.23 -3.43,17.27 -10.29,24.13c-6.86,6.86 -14.9,10.29 -24.12,10.29zm-31.38,181.51l0,-168.69l62.42,0l0,168.69l-62.42,0z"/>
   <path id="svg_7" fill="url(#SVGID_00000133518555743037323690000010205038630309564834_)" d="m924.44,82.65l69.16,0l-64.1,168.69l-64.11,0l-64.1,-168.69l69.16,0l26.99,84.35l27,-84.35z"/>
   <path id="svg_8" fill="url(#SVGID_00000111172100422499322710000005982598602050119095_)" d="m1113.7,82.65l62.41,0l0,168.69l-62.41,0l0,-15.18c-10.8,13.28 -25.87,19.91 -45.21,19.91c-22.72,0 -41.28,-8.44 -55.67,-25.31c-14.4,-16.87 -21.59,-38.12 -21.59,-63.77s7.19,-46.89 21.59,-63.77c14.39,-16.87 32.95,-25.3 55.67,-25.3c19.34,0 34.41,6.64 45.21,19.9l0,-15.17zm-51.79,106.95c5.5,6.07 12.75,9.11 21.76,9.11c8.99,0 16.24,-3.04 21.76,-9.11c5.51,-6.07 8.27,-13.61 8.27,-22.61s-2.76,-16.53 -8.27,-22.61c-5.52,-6.07 -12.77,-9.11 -21.76,-9.11c-9.01,0 -16.26,3.04 -21.76,9.11c-5.52,6.07 -8.27,13.61 -8.27,22.61s2.75,16.54 8.27,22.61z"/>
   <path id="svg_9" fill="url(#SVGID_00000085950145451579380190000005717605709791273131_)" d="m1203.11,251.34l0,-246.29l62.42,0l0,246.29l-62.42,0z"/>
   <path id="svg_10" fill="url(#SVGID_00000008134424561314471610000011031677132867064762_)" d="m1569,221.15c-24.18,23.73 -53.81,35.59 -88.9,35.59c-35.09,0 -64.73,-11.86 -88.91,-35.59c-24.18,-23.73 -36.27,-53.03 -36.27,-87.9c0,-34.86 12.09,-64.15 36.27,-87.88c24.18,-23.73 53.82,-35.6 88.91,-35.6c35.09,0 64.72,11.87 88.9,35.6c24.18,23.73 36.27,53.03 36.27,87.88c-0.01,34.87 -12.09,64.17 -36.27,87.9zm-130.23,-46.9c10.91,10.92 24.68,16.36 41.33,16.36c16.64,0 30.41,-5.45 41.33,-16.36c10.91,-10.91 16.36,-24.57 16.36,-40.99c0,-16.42 -5.46,-30.08 -16.36,-40.99c-10.92,-10.91 -24.69,-16.35 -41.33,-16.35c-16.65,0 -30.42,5.45 -41.33,16.35c-10.92,10.92 -16.36,24.58 -16.36,40.99c0,16.42 5.45,30.08 16.36,40.99z"/>
   <path id="svg_11" fill="url(#SVGID_00000047750755353557094160000000382102545661792167_)" d="m1725.03,15.18c24.52,0 44.98,7.7 61.41,23.11c16.42,15.41 24.63,35.93 24.63,61.57s-8.21,46.17 -24.63,61.57c-16.43,15.4 -36.89,23.11 -61.41,23.11l-26.99,0l0,66.8l-67.48,0l0,-236.16l94.47,0zm0,103.91c5.18,0 9.56,-1.74 13.16,-5.24c3.59,-3.48 5.4,-8.14 5.4,-14c0,-5.84 -1.81,-10.51 -5.4,-14.01c-3.6,-3.49 -7.98,-5.23 -13.16,-5.23l-26.99,0l0,38.47l26.99,0l0,0.01z"/>
   <path id="svg_12" fill="url(#SVGID_00000022533357477187191560000017480207571575834755_)" d="m1831.31,15.18l67.48,0l0,236.17l-67.48,0l0,-236.17z"/>
   <path id="svg_13" fill="url(#SVGID_00000116199732903836240140000016329949427323555721_)" d="m1932.52,15.18l67.48,0l0,236.17l-67.48,0l0,-236.17z"/>
  </g>
 </g>
</svg>