<svg width="500" height="97" xmlns="http://www.w3.org/2000/svg" xml:space="preserve" version="1.1">
 <defs>
  <linearGradient y2="0.49995" x2="-0.06832" y1="0.49995" x1="9.61487" id="SVGID_1_">
   <stop stop-color="#82C392" offset="0"/>
   <stop stop-color="#3BB475" offset="0.2718"/>
   <stop stop-color="#03A85F" offset="0.5"/>
   <stop stop-color="#02A559" offset="0.5856"/>
   <stop stop-color="#009642" offset="1"/>
  </linearGradient>
  <linearGradient y2="0.5" x2="-1.10923" y1="0.5" x1="8.60649" id="SVGID_00000045616920600081259770000005735244930835558554_">
   <stop stop-color="#82C392" offset="0"/>
   <stop stop-color="#3BB475" offset="0.2718"/>
   <stop stop-color="#03A85F" offset="0.5"/>
   <stop stop-color="#02A559" offset="0.5856"/>
   <stop stop-color="#009642" offset="1"/>
  </linearGradient>
  <linearGradient y2="0.49985" x2="-2.59336" y1="0.49985" x1="8.29719" id="SVGID_00000148636709247305755110000016275605931160050602_">
   <stop stop-color="#82C392" offset="0"/>
   <stop stop-color="#3BB475" offset="0.2718"/>
   <stop stop-color="#03A85F" offset="0.5"/>
   <stop stop-color="#02A559" offset="0.5856"/>
   <stop stop-color="#009642" offset="1"/>
  </linearGradient>
  <linearGradient y2="0.50017" x2="-3.35074" y1="0.50017" x1="6.36498" id="SVGID_00000103253472576099999640000012052845467459792003_">
   <stop stop-color="#82C392" offset="0"/>
   <stop stop-color="#3BB475" offset="0.2718"/>
   <stop stop-color="#03A85F" offset="0.5"/>
   <stop stop-color="#02A559" offset="0.5856"/>
   <stop stop-color="#009642" offset="1"/>
  </linearGradient>
  <linearGradient y2="0.5" x2="-4.57697" y1="0.5" x1="5.28601" id="SVGID_00000029724663830538307270000016240177312772007047_">
   <stop stop-color="#82C392" offset="0"/>
   <stop stop-color="#3BB475" offset="0.2718"/>
   <stop stop-color="#03A85F" offset="0.5"/>
   <stop stop-color="#02A559" offset="0.5856"/>
   <stop stop-color="#009642" offset="1"/>
  </linearGradient>
  <linearGradient y2="0.49995" x2="-8.03852" y1="0.49995" x1="4.71114" id="SVGID_00000169522176434268430860000001519855065217964694_">
   <stop stop-color="#82C392" offset="0"/>
   <stop stop-color="#3BB475" offset="0.2718"/>
   <stop stop-color="#03A85F" offset="0.5"/>
   <stop stop-color="#02A559" offset="0.5856"/>
   <stop stop-color="#009642" offset="1"/>
  </linearGradient>
  <linearGradient y2="0.5" x2="-7.05803" y1="0.5" x1="2.80496" id="SVGID_00000150075829966158401540000010418046611661958072_">
   <stop stop-color="#82C392" offset="0"/>
   <stop stop-color="#3BB475" offset="0.2718"/>
   <stop stop-color="#03A85F" offset="0.5"/>
   <stop stop-color="#02A559" offset="0.5856"/>
   <stop stop-color="#009642" offset="1"/>
  </linearGradient>
  <linearGradient y2="0.49995" x2="-9.07475" y1="0.49995" x1="1.81581" id="SVGID_00000049219165265045373400000009433313274383353774_">
   <stop stop-color="#82C392" offset="0"/>
   <stop stop-color="#3BB475" offset="0.2718"/>
   <stop stop-color="#03A85F" offset="0.5"/>
   <stop stop-color="#02A559" offset="0.5856"/>
   <stop stop-color="#009642" offset="1"/>
  </linearGradient>
  <linearGradient y2="0.49994" x2="-27.09611" y1="0.49994" x1="1.95344" id="SVGID_00000104703187099350366620000010676487278727964820_">
   <stop stop-color="#82C392" offset="0"/>
   <stop stop-color="#3BB475" offset="0.2718"/>
   <stop stop-color="#03A85F" offset="0.5"/>
   <stop stop-color="#02A559" offset="0.5856"/>
   <stop stop-color="#009642" offset="1"/>
  </linearGradient>
 </defs>
 <g>
  <title>Layer 1</title>
  <g id="svg_1">
   <g id="svg_2">
    <path id="svg_3" fill="url(#SVGID_1_)" d="m36.74,73.1l-13.15,-22.9l-7.57,0l0,22.9l-15.92,0l0,-69.71l27.88,0c6.64,0 12.28,2.32 16.93,6.97c4.64,4.65 6.97,10.29 6.97,16.93c0,4.25 -1.18,8.18 -3.54,11.8c-2.35,3.62 -5.46,6.43 -9.31,8.42l14.83,25.59l-17.12,0zm-20.71,-54.78l0,17.93l11.95,0c2.19,0 4.06,-0.86 5.62,-2.59c1.56,-1.72 2.34,-3.85 2.34,-6.37s-0.78,-4.65 -2.34,-6.37c-1.56,-1.72 -3.43,-2.59 -5.62,-2.59l-11.95,0l0,-0.01z" class="st0"/>
    <path id="svg_4" fill="url(#SVGID_00000045616920600081259770000005735244930835558554_)" d="m94.5,23.3l14.94,0l0,49.79l-14.94,0l0,-4.68c-3.52,4.05 -8.46,6.08 -14.84,6.08c-6.57,0 -12.19,-2.54 -16.83,-7.62c-4.65,-5.08 -6.97,-11.3 -6.97,-18.67c0,-7.37 2.32,-13.59 6.97,-18.67c4.64,-5.08 10.26,-7.62 16.83,-7.62c6.37,0 11.32,2.03 14.84,6.07l0,-4.68zm-20.42,33.76c2.19,2.19 5.05,3.29 8.57,3.29c3.52,0 6.37,-1.1 8.56,-3.29c2.19,-2.19 3.29,-5.15 3.29,-8.86s-1.1,-6.67 -3.29,-8.86c-2.19,-2.19 -5.05,-3.29 -8.56,-3.29c-3.52,0 -6.38,1.1 -8.57,3.29c-2.19,2.19 -3.29,5.15 -3.29,8.86s1.1,6.67 3.29,8.86z"/>
    <path id="svg_5" fill="url(#SVGID_00000148636709247305755110000016275605931160050602_)" d="m149.57,21.91c5.31,0 9.74,1.83 13.29,5.48c3.55,3.65 5.33,8.7 5.33,15.14l0,30.57l-14.94,0l0,-28.38c0,-2.92 -0.82,-5.16 -2.44,-6.72c-1.63,-1.56 -3.7,-2.34 -6.22,-2.34c-2.85,0 -5.11,0.86 -6.77,2.59c-1.66,1.72 -2.49,4.28 -2.49,7.67l0,27.19l-14.94,0l0,-49.81l14.94,0l0,4.68c2.98,-4.04 7.73,-6.07 14.24,-6.07z"/>
    <path id="svg_6" fill="url(#SVGID_00000103253472576099999640000012052845467459792003_)" d="m215,23.3l14.54,0l0,47.3c0,7.83 -2.56,13.76 -7.67,17.78c-5.11,4.02 -11.32,6.02 -18.62,6.02c-11.22,0 -19.09,-4.01 -23.6,-12.05l12.75,-7.37c2.26,4.18 6.04,6.27 11.35,6.27c3.52,0 6.27,-0.91 8.27,-2.74c1.98,-1.81 2.98,-4.45 2.98,-7.91l0,-4.58c-3.45,4.31 -8.3,6.47 -14.54,6.47c-6.97,0 -12.8,-2.47 -17.48,-7.42s-7.02,-10.91 -7.02,-17.88s2.34,-12.93 7.02,-17.88c4.68,-4.94 10.51,-7.42 17.48,-7.42c6.24,0 11.09,2.16 14.54,6.47l0,-5.06zm-20.72,32.27c2.26,2.12 5.15,3.19 8.67,3.19c3.52,0 6.41,-1.06 8.66,-3.19c2.26,-2.12 3.39,-4.91 3.39,-8.37c0,-3.45 -1.13,-6.24 -3.39,-8.37c-2.26,-2.12 -5.15,-3.19 -8.66,-3.19c-3.52,0 -6.41,1.06 -8.67,3.19c-2.26,2.12 -3.38,4.92 -3.38,8.37c0,3.46 1.12,6.25 3.38,8.37z"/>
    <path id="svg_7" fill="url(#SVGID_00000029724663830538307270000016240177312772007047_)" d="m283.11,66.87c-5.11,5.08 -11.35,7.62 -18.72,7.62c-7.37,0 -13.61,-2.54 -18.72,-7.62c-5.11,-5.08 -7.67,-11.3 -7.67,-18.67c0,-7.37 2.55,-13.59 7.67,-18.67c5.11,-5.08 11.35,-7.62 18.72,-7.62c7.37,0 13.61,2.54 18.72,7.62c5.11,5.08 7.67,11.31 7.67,18.67c0,7.37 -2.56,13.59 -7.67,18.67zm-26.89,-10.21c2.19,2.19 4.91,3.29 8.17,3.29c3.25,0 5.97,-1.1 8.16,-3.29s3.29,-5.01 3.29,-8.46c0,-3.45 -1.1,-6.27 -3.29,-8.46c-2.19,-2.19 -4.91,-3.29 -8.16,-3.29c-3.26,0 -5.98,1.1 -8.17,3.29c-2.19,2.19 -3.29,5.01 -3.29,8.46c0,3.45 1.1,6.27 3.29,8.46z"/>
    <path id="svg_8" fill="url(#SVGID_00000169522176434268430860000001519855065217964694_)" d="m340.57,57.76l24.9,0l0,15.34l-40.83,0l0,-69.71l15.94,0l0,54.37l-0.01,0z"/>
    <path id="svg_9" fill="url(#SVGID_00000150075829966158401540000010418046611661958072_)" d="m414.06,66.87c-5.11,5.08 -11.35,7.62 -18.72,7.62s-13.61,-2.54 -18.72,-7.62c-5.11,-5.08 -7.67,-11.3 -7.67,-18.67c0,-7.37 2.55,-13.59 7.67,-18.67c5.11,-5.08 11.35,-7.62 18.72,-7.62s13.61,2.54 18.72,7.62c5.11,5.08 7.67,11.31 7.67,18.67c0,7.37 -2.55,13.59 -7.67,18.67zm-26.89,-10.21c2.19,2.19 4.91,3.29 8.17,3.29c3.25,0 5.97,-1.1 8.16,-3.29s3.29,-5.01 3.29,-8.46c0,-3.45 -1.1,-6.27 -3.29,-8.46c-2.19,-2.19 -4.91,-3.29 -8.16,-3.29c-3.26,0 -5.98,1.1 -8.17,3.29c-2.19,2.19 -3.29,5.01 -3.29,8.46c0.01,3.45 1.1,6.27 3.29,8.46z"/>
    <path id="svg_10" fill="url(#SVGID_00000049219165265045373400000009433313274383353774_)" d="m478,73.1l-16.93,0l-15.93,-22.01l0,22.01l-14.94,0l0,-69.71l14.94,0l0,41.73l14.94,-21.81l17.43,0l-18.12,24.9l18.61,24.89z"/>
    <path id="svg_11" fill="url(#SVGID_00000104703187099350366620000010676487278727964820_)" d="m497.27,16.28c-1.76,1.76 -3.87,2.64 -6.32,2.64c-2.46,0 -4.57,-0.88 -6.32,-2.64c-1.76,-1.76 -2.64,-3.87 -2.64,-6.32c0,-2.45 0.88,-4.56 2.64,-6.32c1.76,-1.76 3.87,-2.64 6.32,-2.64c2.45,0 4.56,0.88 6.32,2.64c1.76,1.76 2.64,3.87 2.64,6.32c-0.01,2.46 -0.89,4.56 -2.64,6.32zm-13.8,56.82l0,-49.8l14.94,0l0,49.79l-14.94,0l0,0.01z"/>
   </g>
  </g>
 </g>
</svg>