<svg width="500" height="90" xmlns="http://www.w3.org/2000/svg" xml:space="preserve" version="1.1">
 <defs>
  <linearGradient y2="0.50015" x2="0.07333" y1="0.50015" x1="10.53753" id="SVGID_1_">
   <stop stop-color="#FEF7E5" offset="0"/>
   <stop stop-color="#FEF0C3" offset="0"/>
   <stop stop-color="#FFE48C" offset="0"/>
   <stop stop-color="#FFCE00" offset="0.5506"/>
   <stop stop-color="#FBC900" offset="0.6156"/>
   <stop stop-color="#E5B200" offset="1"/>
  </linearGradient>
  <linearGradient y2="0.50043" x2="-0.96876" y1="0.50043" x1="9.53572" id="SVGID_00000025443744829438519950000016757573879884206010_">
   <stop stop-color="#FEF7E5" offset="0"/>
   <stop stop-color="#FEF0C3" offset="0"/>
   <stop stop-color="#FFE48C" offset="0"/>
   <stop stop-color="#FFCE00" offset="0.5506"/>
   <stop stop-color="#FBC900" offset="0.6156"/>
   <stop stop-color="#E5B200" offset="1"/>
  </linearGradient>
  <linearGradient y2="0.49976" x2="-2.43418" y1="0.49976" x1="9.33321" id="SVGID_00000166675086072405936350000006039396808558340539_">
   <stop stop-color="#FEF7E5" offset="0"/>
   <stop stop-color="#FEF0C3" offset="0"/>
   <stop stop-color="#FFE48C" offset="0"/>
   <stop stop-color="#FFCE00" offset="0.5506"/>
   <stop stop-color="#FBC900" offset="0.6156"/>
   <stop stop-color="#E5B200" offset="1"/>
  </linearGradient>
  <linearGradient y2="0.50003" x2="-3.20628" y1="0.50003" x1="7.28664" id="SVGID_00000062173166078729714010000008165363930735265465_">
   <stop stop-color="#FEF7E5" offset="0"/>
   <stop stop-color="#FEF0C3" offset="0"/>
   <stop stop-color="#FFE48C" offset="0"/>
   <stop stop-color="#FFCE00" offset="0.5506"/>
   <stop stop-color="#FBC900" offset="0.6156"/>
   <stop stop-color="#E5B200" offset="1"/>
  </linearGradient>
  <linearGradient y2="0.49987" x2="-4.43532" y1="0.49987" x1="6.22761" id="SVGID_00000158739180039266983730000012908000535173927344_">
   <stop stop-color="#FEF7E5" offset="0"/>
   <stop stop-color="#FEF0C3" offset="0"/>
   <stop stop-color="#FFE48C" offset="0"/>
   <stop stop-color="#FFCE00" offset="0.5506"/>
   <stop stop-color="#FBC900" offset="0.6156"/>
   <stop stop-color="#E5B200" offset="1"/>
  </linearGradient>
  <linearGradient y2="0.50015" x2="-6.09516" y1="0.50015" x1="4.76802" id="SVGID_00000116949281459794841350000017046460458725342899_">
   <stop stop-color="#FEF7E5" offset="0"/>
   <stop stop-color="#FEF0C3" offset="0"/>
   <stop stop-color="#FFE48C" offset="0"/>
   <stop stop-color="#FFCE00" offset="0.5506"/>
   <stop stop-color="#FBC900" offset="0.6156"/>
   <stop stop-color="#E5B200" offset="1"/>
  </linearGradient>
  <linearGradient y2="0.49973" x2="-7.82137" y1="0.49973" x1="3.94602" id="SVGID_00000061458718169881930600000013782812359354377897_">
   <stop stop-color="#FEF7E5" offset="0"/>
   <stop stop-color="#FEF0C3" offset="0"/>
   <stop stop-color="#FFE48C" offset="0"/>
   <stop stop-color="#FFCE00" offset="0.5506"/>
   <stop stop-color="#FBC900" offset="0.6156"/>
   <stop stop-color="#E5B200" offset="1"/>
  </linearGradient>
  <linearGradient y2="0.49987" x2="-8.14029" y1="0.49987" x1="2.52257" id="SVGID_00000037680038614733381720000017778751037476156320_">
   <stop stop-color="#FEF7E5" offset="0"/>
   <stop stop-color="#FEF0C3" offset="0"/>
   <stop stop-color="#FFE48C" offset="0"/>
   <stop stop-color="#FFCE00" offset="0.5506"/>
   <stop stop-color="#FBC900" offset="0.6156"/>
   <stop stop-color="#E5B200" offset="1"/>
  </linearGradient>
  <linearGradient y2="0.49962" x2="-16.43656" y1="0.49962" x1="2.40517" id="SVGID_00000073697593097639682170000012755419532520294569_">
   <stop stop-color="#FEF7E5" offset="0"/>
   <stop stop-color="#FEF0C3" offset="0"/>
   <stop stop-color="#FFE48C" offset="0"/>
   <stop stop-color="#FFCE00" offset="0.5506"/>
   <stop stop-color="#FBC900" offset="0.6156"/>
   <stop stop-color="#E5B200" offset="1"/>
  </linearGradient>
  <linearGradient y2="0.49997" x2="0.07281" y1="0.49997" x1="10.53471" id="SVGID_00000052061677978498122810000014834961276055119260_">
   <stop stop-color="#FEF7E5" offset="0"/>
   <stop stop-color="#FEF0C3" offset="0"/>
   <stop stop-color="#FFE48C" offset="0"/>
   <stop stop-color="#FFCE00" offset="0.5506"/>
   <stop stop-color="#FBC900" offset="0.6156"/>
   <stop stop-color="#E5B200" offset="1"/>
  </linearGradient>
  <linearGradient y2="0.49993" x2="-0.96823" y1="0.49993" x1="9.53465" id="SVGID_00000116218961252946912270000006029644613850076558_">
   <stop stop-color="#FEF7E5" offset="0"/>
   <stop stop-color="#FEF0C3" offset="0"/>
   <stop stop-color="#FFE48C" offset="0"/>
   <stop stop-color="#FFCE00" offset="0.5506"/>
   <stop stop-color="#FBC900" offset="0.6156"/>
   <stop stop-color="#E5B200" offset="1"/>
  </linearGradient>
  <linearGradient y2="0.50013" x2="-2.43445" y1="0.50013" x1="9.33375" id="SVGID_00000023994871793448132170000016698727982664402622_">
   <stop stop-color="#FEF7E5" offset="0"/>
   <stop stop-color="#FEF0C3" offset="0"/>
   <stop stop-color="#FFE48C" offset="0"/>
   <stop stop-color="#FFCE00" offset="0.5506"/>
   <stop stop-color="#FBC900" offset="0.6156"/>
   <stop stop-color="#E5B200" offset="1"/>
  </linearGradient>
  <linearGradient y2="0.4999" x2="-3.20967" y1="0.4999" x1="7.29115" id="SVGID_00000155110088672095674900000004193097491429563320_">
   <stop stop-color="#FEF7E5" offset="0"/>
   <stop stop-color="#FEF0C3" offset="0"/>
   <stop stop-color="#FFE48C" offset="0"/>
   <stop stop-color="#FFCE00" offset="0.5506"/>
   <stop stop-color="#FBC900" offset="0.6156"/>
   <stop stop-color="#E5B200" offset="1"/>
  </linearGradient>
  <linearGradient y2="0.50013" x2="-4.43259" y1="0.50013" x1="6.22474" id="SVGID_00000098188651063425713440000008237906789294460297_">
   <stop stop-color="#FEF7E5" offset="0"/>
   <stop stop-color="#FEF0C3" offset="0"/>
   <stop stop-color="#FFE48C" offset="0"/>
   <stop stop-color="#FFCE00" offset="0.5506"/>
   <stop stop-color="#FBC900" offset="0.6156"/>
   <stop stop-color="#E5B200" offset="1"/>
  </linearGradient>
  <linearGradient y2="0.49997" x2="-6.09455" y1="0.49997" x1="4.76786" id="SVGID_00000003080305678875081410000010473082137544517041_">
   <stop stop-color="#FEF7E5" offset="0"/>
   <stop stop-color="#FEF0C3" offset="0"/>
   <stop stop-color="#FFE48C" offset="0"/>
   <stop stop-color="#FFCE00" offset="0.5506"/>
   <stop stop-color="#FBC900" offset="0.6156"/>
   <stop stop-color="#E5B200" offset="1"/>
  </linearGradient>
  <linearGradient y2="0.50012" x2="-7.82155" y1="0.50012" x1="3.94666" id="SVGID_00000073723366984499986040000010800541664341622163_">
   <stop stop-color="#FEF7E5" offset="0"/>
   <stop stop-color="#FEF0C3" offset="0"/>
   <stop stop-color="#FFE48C" offset="0"/>
   <stop stop-color="#FFCE00" offset="0.5506"/>
   <stop stop-color="#FBC900" offset="0.6156"/>
   <stop stop-color="#E5B200" offset="1"/>
  </linearGradient>
  <linearGradient y2="0.50013" x2="-8.13589" y1="0.50013" x1="2.52145" id="SVGID_00000155865759943724091550000017710799398483261077_">
   <stop stop-color="#FEF7E5" offset="0"/>
   <stop stop-color="#FEF0C3" offset="0"/>
   <stop stop-color="#FFE48C" offset="0"/>
   <stop stop-color="#FFCE00" offset="0.5506"/>
   <stop stop-color="#FBC900" offset="0.6156"/>
   <stop stop-color="#E5B200" offset="1"/>
  </linearGradient>
  <linearGradient y2="0.50004" x2="-16.42513" y1="0.50004" x1="2.40482" id="SVGID_00000054944240148297338770000003815346236880061879_">
   <stop stop-color="#FEF7E5" offset="0"/>
   <stop stop-color="#FEF0C3" offset="0"/>
   <stop stop-color="#FFE48C" offset="0"/>
   <stop stop-color="#FFCE00" offset="0.5506"/>
   <stop stop-color="#FBC900" offset="0.6156"/>
   <stop stop-color="#E5B200" offset="1"/>
  </linearGradient>
 </defs>
 <g>
  <title>Layer 1</title>
  <g id="svg_1">
   <g id="svg_2">
    <path id="svg_3" fill="url(#SVGID_1_)" d="m1191.48,2700.76l-4.46,-7.77l-2.57,0l0,7.77l-5.41,0l0,-23.65l9.46,0c2.25,0 4.17,0.79 5.74,2.36c1.58,1.58 2.37,3.49 2.37,5.74c0,1.44 -0.4,2.78 -1.2,4c-0.8,1.23 -1.85,2.18 -3.16,2.85l5.03,8.68l-5.8,0l0,0.02zm-7.03,-18.58l0,6.08l4.05,0c0.74,0 1.38,-0.29 1.91,-0.88c0.53,-0.59 0.79,-1.31 0.79,-2.16c0,-0.86 -0.27,-1.58 -0.79,-2.16c-0.53,-0.59 -1.17,-0.88 -1.91,-0.88l-4.05,0z" class="st0"/>
    <path id="svg_4" fill="url(#SVGID_00000025443744829438519950000016757573879884206010_)" d="m1211.08,2683.87l5.07,0l0,16.89l-5.07,0l0,-1.59c-1.19,1.37 -2.87,2.06 -5.03,2.06c-2.23,0 -4.13,-0.86 -5.71,-2.59c-1.58,-1.72 -2.36,-3.83 -2.36,-6.33c0,-2.5 0.79,-4.61 2.36,-6.34c1.58,-1.72 3.48,-2.58 5.71,-2.58c2.16,0 3.84,0.69 5.03,2.06l0,-1.58zm-6.93,11.45c0.74,0.74 1.71,1.11 2.91,1.11c1.19,0 2.16,-0.37 2.91,-1.11c0.74,-0.74 1.11,-1.75 1.11,-3.01c0,-1.26 -0.37,-2.26 -1.11,-3.01c-0.74,-0.74 -1.71,-1.11 -2.91,-1.11c-1.19,0 -2.16,0.37 -2.91,1.11c-0.74,0.74 -1.11,1.75 -1.11,3.01c0,1.27 0.37,2.27 1.11,3.01z"/>
    <path id="svg_5" fill="url(#SVGID_00000166675086072405936350000006039396808558340539_)" d="m1229.76,2683.4c1.8,0 3.3,0.62 4.51,1.86c1.21,1.24 1.81,2.95 1.81,5.14l0,10.37l-5.07,0l0,-9.63c0,-0.99 -0.28,-1.75 -0.83,-2.28c-0.55,-0.53 -1.26,-0.79 -2.11,-0.79c-0.97,0 -1.73,0.29 -2.3,0.88c-0.56,0.59 -0.84,1.45 -0.84,2.6l0,9.22l-5.07,0l0,-16.89l5.07,0l0,1.59c1.01,-1.39 2.63,-2.07 4.83,-2.07z"/>
    <path id="svg_6" fill="url(#SVGID_00000062173166078729714010000008165363930735265465_)" d="m1251.96,2683.87l4.93,0l0,16.05c0,2.66 -0.87,4.67 -2.6,6.03c-1.73,1.36 -3.84,2.04 -6.32,2.04c-3.81,0 -6.48,-1.36 -8.01,-4.09l4.32,-2.5c0.77,1.42 2.05,2.13 3.85,2.13c1.19,0 2.13,-0.31 2.8,-0.93c0.68,-0.62 1.01,-1.51 1.01,-2.69l0,-1.55c-1.17,1.46 -2.82,2.2 -4.93,2.2c-2.36,0 -4.34,-0.84 -5.93,-2.52c-1.59,-1.68 -2.38,-3.7 -2.38,-6.06s0.79,-4.39 2.38,-6.06c1.59,-1.68 3.56,-2.52 5.93,-2.52c2.12,0 3.76,0.73 4.93,2.2l0,-1.73l0.02,0zm-7.03,10.95c0.77,0.72 1.75,1.08 2.94,1.08c1.19,0 2.17,-0.36 2.94,-1.08c0.77,-0.72 1.15,-1.67 1.15,-2.84c0,-1.17 -0.38,-2.12 -1.15,-2.84c-0.77,-0.72 -1.75,-1.08 -2.94,-1.08c-1.19,0 -2.17,0.36 -2.94,1.08c-0.77,0.72 -1.15,1.67 -1.15,2.84c0,1.17 0.39,2.12 1.15,2.84z"/>
    <path id="svg_7" fill="url(#SVGID_00000158739180039266983730000012908000535173927344_)" d="m1275.07,2698.65c-1.73,1.72 -3.85,2.59 -6.35,2.59s-4.62,-0.86 -6.35,-2.59c-1.73,-1.72 -2.6,-3.83 -2.6,-6.33c0,-2.5 0.87,-4.61 2.6,-6.34c1.73,-1.72 3.85,-2.58 6.35,-2.58s4.62,0.86 6.35,2.58c1.73,1.72 2.6,3.84 2.6,6.34c0,2.5 -0.87,4.61 -2.6,6.33zm-9.12,-3.46c0.74,0.74 1.67,1.11 2.77,1.11c1.1,0 2.03,-0.37 2.77,-1.11c0.74,-0.74 1.12,-1.7 1.12,-2.87c0,-1.17 -0.37,-2.13 -1.12,-2.87c-0.74,-0.74 -1.67,-1.12 -2.77,-1.12c-1.1,0 -2.03,0.37 -2.77,1.12c-0.74,0.74 -1.11,1.7 -1.11,2.87c-0.01,1.17 0.36,2.13 1.11,2.87z"/>
    <path id="svg_8" fill="url(#SVGID_00000116949281459794841350000017046460458725342899_)" d="m1305.04,2677.11l0,5.2l-6.08,0l0,18.45l-5.41,0l0,-18.45l-6.08,0l0,-5.2l17.57,0z"/>
    <path id="svg_9" fill="url(#SVGID_00000061458718169881930600000013782812359354377897_)" d="m1317.14,2683.4c1.8,0 3.3,0.62 4.51,1.86c1.21,1.24 1.81,2.95 1.81,5.14l0,10.37l-5.07,0l0,-9.63c0,-0.99 -0.28,-1.75 -0.83,-2.28c-0.55,-0.53 -1.26,-0.79 -2.11,-0.79c-0.97,0 -1.73,0.29 -2.3,0.88c-0.56,0.59 -0.84,1.45 -0.84,2.6l0,9.22l-5.07,0l0,-23.65l5.07,0l0,8.34c1.01,-1.38 2.62,-2.06 4.83,-2.06z"/>
    <path id="svg_10" fill="url(#SVGID_00000037680038614733381720000017778751037476156320_)" d="m1341.39,2698.65c-1.73,1.72 -3.85,2.59 -6.35,2.59s-4.62,-0.86 -6.35,-2.59c-1.73,-1.72 -2.6,-3.83 -2.6,-6.33c0,-2.5 0.87,-4.61 2.6,-6.34c1.73,-1.72 3.85,-2.58 6.35,-2.58s4.62,0.86 6.35,2.58c1.73,1.72 2.6,3.84 2.6,6.34c0.01,2.5 -0.86,4.61 -2.6,6.33zm-9.12,-3.46c0.74,0.74 1.67,1.11 2.77,1.11c1.1,0 2.03,-0.37 2.77,-1.11c0.74,-0.74 1.12,-1.7 1.12,-2.87c0,-1.17 -0.37,-2.13 -1.12,-2.87c-0.74,-0.74 -1.67,-1.12 -2.77,-1.12c-1.1,0 -2.03,0.37 -2.77,1.12c-0.74,0.74 -1.11,1.7 -1.11,2.87c0,1.17 0.37,2.13 1.11,2.87z"/>
    <path id="svg_11" fill="url(#SVGID_00000073697593097639682170000012755419532520294569_)" d="m1351.94,2686.88c0.31,-1.08 0.95,-1.91 1.91,-2.48c0.96,-0.57 2.01,-0.86 3.16,-0.86l0,5.74c-1.24,-0.2 -2.39,0.01 -3.46,0.62c-1.07,0.62 -1.6,1.7 -1.6,3.23l0,7.64l-5.07,0l0,-16.89l5.07,0l0,3l-0.01,0z"/>
   </g>
  </g>
  <g id="svg_12">
   <g id="svg_13">
    <path id="svg_14" fill="url(#SVGID_00000052061677978498122810000014834961276055119260_)" d="m34.93,67.46l-12.53,-21.83l-7.22,0l0,21.83l-15.18,0l0,-66.45l26.58,0c6.33,0 11.71,2.21 16.14,6.64c4.43,4.43 6.65,9.81 6.65,16.14c0,4.05 -1.13,7.8 -3.37,11.25c-2.25,3.45 -5.21,6.13 -8.88,8.02l14.14,24.4l-16.33,0zm-19.74,-52.21l0,17.09l11.39,0c2.09,0 3.88,-0.82 5.36,-2.47c1.49,-1.64 2.23,-3.67 2.23,-6.08s-0.75,-4.43 -2.23,-6.08c-1.49,-1.64 -3.28,-2.47 -5.36,-2.47l-11.39,0l0,0.01z"/>
    <path id="svg_15" fill="url(#SVGID_00000116218961252946912270000006029644613850076558_)" d="m89.99,19.99l14.24,0l0,47.47l-14.24,0l0,-4.46c-3.36,3.86 -8.07,5.79 -14.14,5.79c-6.27,0 -11.62,-2.42 -16.04,-7.26c-4.43,-4.84 -6.64,-10.77 -6.64,-17.8s2.21,-12.96 6.64,-17.8c4.43,-4.84 9.78,-7.26 16.04,-7.26c6.08,0 10.79,1.93 14.14,5.79l0,-4.47zm-19.46,32.19c2.09,2.09 4.81,3.13 8.17,3.13c3.35,0 6.08,-1.04 8.16,-3.13c2.09,-2.09 3.13,-4.91 3.13,-8.45s-1.04,-6.36 -3.13,-8.45c-2.09,-2.09 -4.81,-3.13 -8.16,-3.13c-3.36,0 -6.08,1.04 -8.17,3.13c-2.09,2.09 -3.13,4.91 -3.13,8.45s1.04,6.35 3.13,8.45z"/>
    <path id="svg_16" fill="url(#SVGID_00000023994871793448132170000016698727982664402622_)" d="m142.49,18.66c5.06,0 9.29,1.74 12.67,5.22c3.39,3.48 5.08,8.29 5.08,14.43l0,29.14l-14.24,0l0,-27.06c0,-2.78 -0.78,-4.92 -2.33,-6.41c-1.55,-1.48 -3.53,-2.23 -5.93,-2.23c-2.72,0 -4.87,0.82 -6.46,2.47s-2.37,4.08 -2.37,7.31l0,25.92l-14.24,0l0,-47.46l14.24,0l0,4.46c2.85,-3.85 7.38,-5.79 13.58,-5.79z"/>
    <path id="svg_17" fill="url(#SVGID_00000155110088672095674900000004193097491429563320_)" d="m204.86,19.99l13.86,0l0,45.09c0,7.47 -2.44,13.12 -7.31,16.95c-4.87,3.83 -10.79,5.74 -17.75,5.74c-10.69,0 -18.19,-3.83 -22.5,-11.48l12.15,-7.02c2.15,3.99 5.76,5.98 10.82,5.98c3.36,0 5.98,-0.87 7.88,-2.61c1.9,-1.74 2.85,-4.25 2.85,-7.55l0,-4.36c-3.29,4.11 -7.91,6.17 -13.86,6.17c-6.64,0 -12.2,-2.36 -16.66,-7.07s-6.69,-10.4 -6.69,-17.04c0,-6.64 2.23,-12.33 6.69,-17.04c4.46,-4.71 10.02,-7.07 16.66,-7.07c5.95,0 10.57,2.06 13.86,6.17l0,-4.86zm-19.75,30.76c2.15,2.03 4.91,3.04 8.26,3.04c3.35,0 6.11,-1.01 8.26,-3.04c2.15,-2.03 3.23,-4.68 3.23,-7.97c0,-3.29 -1.08,-5.95 -3.23,-7.97c-2.15,-2.03 -4.91,-3.04 -8.26,-3.04c-3.36,0 -6.11,1.01 -8.26,3.04c-2.15,2.03 -3.23,4.69 -3.23,7.97c0.01,3.29 1.08,5.95 3.23,7.97z"/>
    <path id="svg_18" fill="url(#SVGID_00000098188651063425713440000008237906789294460297_)" d="m269.79,61.52c-4.87,4.84 -10.82,7.26 -17.85,7.26s-12.97,-2.42 -17.85,-7.26c-4.87,-4.84 -7.31,-10.77 -7.31,-17.8s2.43,-12.96 7.31,-17.8c4.87,-4.84 10.82,-7.26 17.85,-7.26s12.97,2.42 17.85,7.26c4.87,4.84 7.31,10.78 7.31,17.8s-2.44,12.97 -7.31,17.8zm-25.63,-9.72c2.09,2.09 4.68,3.13 7.79,3.13c3.1,0 5.69,-1.04 7.78,-3.13c2.09,-2.09 3.14,-4.78 3.14,-8.07c0,-3.29 -1.05,-5.98 -3.14,-8.07c-2.09,-2.09 -4.68,-3.14 -7.78,-3.14c-3.1,0 -5.7,1.05 -7.79,3.14c-2.09,2.09 -3.13,4.78 -3.13,8.07c0,3.29 1.04,5.98 3.13,8.07z"/>
    <path id="svg_19" fill="url(#SVGID_00000003080305678875081410000010473082137544517041_)" d="m353.99,1.01l0,14.62l-17.09,0l0,51.83l-15.19,0l0,-51.83l-17.09,0l0,-14.62l49.37,0z"/>
    <path id="svg_20" fill="url(#SVGID_00000073723366984499986040000010800541664341622163_)" d="m387.98,18.66c5.06,0 9.29,1.74 12.67,5.22c3.39,3.48 5.08,8.29 5.08,14.43l0,29.14l-14.24,0l0,-27.06c0,-2.78 -0.78,-4.92 -2.33,-6.41c-1.55,-1.48 -3.53,-2.23 -5.93,-2.23c-2.72,0 -4.87,0.82 -6.46,2.47s-2.37,4.08 -2.37,7.31l0,25.92l-14.24,0l0,-66.45l14.24,0l0,23.45c2.85,-3.85 7.38,-5.79 13.58,-5.79z"/>
    <path id="svg_21" fill="url(#SVGID_00000155865759943724091550000017710799398483261077_)" d="m456.14,61.52c-4.87,4.84 -10.82,7.26 -17.85,7.26c-7.02,0 -12.97,-2.42 -17.85,-7.26c-4.87,-4.84 -7.31,-10.77 -7.31,-17.8s2.43,-12.96 7.31,-17.8c4.87,-4.84 10.82,-7.26 17.85,-7.26c7.02,0 12.97,2.42 17.85,7.26c4.87,4.84 7.31,10.78 7.31,17.8s-2.44,12.97 -7.31,17.8zm-25.63,-9.72c2.09,2.09 4.68,3.13 7.79,3.13c3.1,0 5.69,-1.04 7.78,-3.13c2.09,-2.09 3.14,-4.78 3.14,-8.07c0,-3.29 -1.05,-5.98 -3.14,-8.07c-2.09,-2.09 -4.68,-3.14 -7.78,-3.14c-3.1,0 -5.7,1.05 -7.79,3.14c-2.09,2.09 -3.13,4.78 -3.13,8.07c0,3.29 1.04,5.98 3.13,8.07z"/>
    <path id="svg_22" fill="url(#SVGID_00000054944240148297338770000003815346236880061879_)" d="m485.76,28.44c0.88,-3.04 2.67,-5.36 5.36,-6.98c2.69,-1.61 5.65,-2.42 8.88,-2.42l0,16.14c-3.48,-0.57 -6.73,0.02 -9.73,1.75c-3.01,1.74 -4.51,4.76 -4.51,9.07l0,21.46l-14.24,0l0,-47.47l14.24,0l0,8.45z"/>
   </g>
  </g>
 </g>
</svg>