<svg width="500" height="90" xmlns="http://www.w3.org/2000/svg" xml:space="preserve" version="1.1">
 <defs>
  <linearGradient y2="0.50015" x2="0.07333" y1="0.50015" x1="10.53753" id="SVGID_1_">
   <stop stop-color="#FEF7E5" offset="0"/>
   <stop stop-color="#FEF0C3" offset="0"/>
   <stop stop-color="#FFE48C" offset="0"/>
   <stop stop-color="#FFCE00" offset="0.5506"/>
   <stop stop-color="#FBC900" offset="0.6156"/>
   <stop stop-color="#E5B200" offset="1"/>
  </linearGradient>
  <linearGradient y2="0.50043" x2="-0.96876" y1="0.50043" x1="9.53572" id="SVGID_00000012462501059886238900000001601060468922817706_">
   <stop stop-color="#FEF7E5" offset="0"/>
   <stop stop-color="#FEF0C3" offset="0"/>
   <stop stop-color="#FFE48C" offset="0"/>
   <stop stop-color="#FFCE00" offset="0.5506"/>
   <stop stop-color="#FBC900" offset="0.6156"/>
   <stop stop-color="#E5B200" offset="1"/>
  </linearGradient>
  <linearGradient y2="0.49976" x2="-2.43418" y1="0.49976" x1="9.33321" id="SVGID_00000084494130238144662950000007490497566593150608_">
   <stop stop-color="#FEF7E5" offset="0"/>
   <stop stop-color="#FEF0C3" offset="0"/>
   <stop stop-color="#FFE48C" offset="0"/>
   <stop stop-color="#FFCE00" offset="0.5506"/>
   <stop stop-color="#FBC900" offset="0.6156"/>
   <stop stop-color="#E5B200" offset="1"/>
  </linearGradient>
  <linearGradient y2="0.50003" x2="-3.20628" y1="0.50003" x1="7.28664" id="SVGID_00000058558455728911545690000002611145715649847427_">
   <stop stop-color="#FEF7E5" offset="0"/>
   <stop stop-color="#FEF0C3" offset="0"/>
   <stop stop-color="#FFE48C" offset="0"/>
   <stop stop-color="#FFCE00" offset="0.5506"/>
   <stop stop-color="#FBC900" offset="0.6156"/>
   <stop stop-color="#E5B200" offset="1"/>
  </linearGradient>
  <linearGradient y2="0.49987" x2="-4.43532" y1="0.49987" x1="6.22761" id="SVGID_00000173125594578059256540000001673615011761225650_">
   <stop stop-color="#FEF7E5" offset="0"/>
   <stop stop-color="#FEF0C3" offset="0"/>
   <stop stop-color="#FFE48C" offset="0"/>
   <stop stop-color="#FFCE00" offset="0.5506"/>
   <stop stop-color="#FBC900" offset="0.6156"/>
   <stop stop-color="#E5B200" offset="1"/>
  </linearGradient>
  <linearGradient y2="0.50015" x2="-6.09516" y1="0.50015" x1="4.76802" id="SVGID_00000061454698694334238390000009117909522189750454_">
   <stop stop-color="#FEF7E5" offset="0"/>
   <stop stop-color="#FEF0C3" offset="0"/>
   <stop stop-color="#FFE48C" offset="0"/>
   <stop stop-color="#FFCE00" offset="0.5506"/>
   <stop stop-color="#FBC900" offset="0.6156"/>
   <stop stop-color="#E5B200" offset="1"/>
  </linearGradient>
  <linearGradient y2="0.49973" x2="-7.82137" y1="0.49973" x1="3.94602" id="SVGID_00000022555685550206119900000010537571634772302014_">
   <stop stop-color="#FEF7E5" offset="0"/>
   <stop stop-color="#FEF0C3" offset="0"/>
   <stop stop-color="#FFE48C" offset="0"/>
   <stop stop-color="#FFCE00" offset="0.5506"/>
   <stop stop-color="#FBC900" offset="0.6156"/>
   <stop stop-color="#E5B200" offset="1"/>
  </linearGradient>
  <linearGradient y2="0.49987" x2="-8.14029" y1="0.49987" x1="2.52257" id="SVGID_00000008845946594410277400000014012683146900740240_">
   <stop stop-color="#FEF7E5" offset="0"/>
   <stop stop-color="#FEF0C3" offset="0"/>
   <stop stop-color="#FFE48C" offset="0"/>
   <stop stop-color="#FFCE00" offset="0.5506"/>
   <stop stop-color="#FBC900" offset="0.6156"/>
   <stop stop-color="#E5B200" offset="1"/>
  </linearGradient>
  <linearGradient y2="0.49962" x2="-16.43656" y1="0.49962" x1="2.40517" id="SVGID_00000072248619231513085390000013331021194464281785_">
   <stop stop-color="#FEF7E5" offset="0"/>
   <stop stop-color="#FEF0C3" offset="0"/>
   <stop stop-color="#FFE48C" offset="0"/>
   <stop stop-color="#FFCE00" offset="0.5506"/>
   <stop stop-color="#FBC900" offset="0.6156"/>
   <stop stop-color="#E5B200" offset="1"/>
  </linearGradient>
  <linearGradient y2="0.58568" x2="24.69099" y1="0.4986" x1="-0.10907" id="SVGID_00000074401581905890662630000004698986412728006539_">
   <stop stop-color="#449AF9" offset="0"/>
   <stop stop-color="#64EFE2" offset="0.5"/>
   <stop stop-color="#FFFFFF" offset="1"/>
  </linearGradient>
  <linearGradient y2="0.60824" x2="23.74782" y1="0.4928" x1="-1.15193" id="SVGID_00000136411323758646304290000002717025334897797515_">
   <stop stop-color="#449AF9" offset="0"/>
   <stop stop-color="#64EFE2" offset="0.5"/>
   <stop stop-color="#FFFFFF" offset="1"/>
  </linearGradient>
  <linearGradient y2="0.6061" x2="25.25941" y1="0.48751" x1="-2.64065" id="SVGID_00000054952538966727318140000000565277205564046464_">
   <stop stop-color="#449AF9" offset="0"/>
   <stop stop-color="#64EFE2" offset="0.5"/>
   <stop stop-color="#FFFFFF" offset="1"/>
  </linearGradient>
  <linearGradient y2="0.57082" x2="21.50048" y1="0.48709" x1="-3.39426" id="SVGID_00000114062770139843961720000006487973485432514494_">
   <stop stop-color="#449AF9" offset="0"/>
   <stop stop-color="#64EFE2" offset="0.5"/>
   <stop stop-color="#FFFFFF" offset="1"/>
  </linearGradient>
  <linearGradient y2="0.59204" x2="20.6503" y1="0.4766" x1="-4.62026" id="SVGID_00000040550711730018337150000000142395337574358670_">
   <stop stop-color="#449AF9" offset="0"/>
   <stop stop-color="#64EFE2" offset="0.5"/>
   <stop stop-color="#FFFFFF" offset="1"/>
  </linearGradient>
  <linearGradient y2="0.56096" x2="13.87693" y1="0.47721" x1="-4.51598" id="SVGID_00000127006610112623733700000017897035255362334865_">
   <stop stop-color="#449AF9" offset="0"/>
   <stop stop-color="#64EFE2" offset="0.5"/>
   <stop stop-color="#FFFFFF" offset="1"/>
  </linearGradient>
  <linearGradient y2="0.55695" x2="17.32061" y1="0.47156" x1="-7.57915" id="SVGID_00000049934498553480392550000011192164261290899587_">
   <stop stop-color="#449AF9" offset="0"/>
   <stop stop-color="#64EFE2" offset="0.5"/>
   <stop stop-color="#FFFFFF" offset="1"/>
  </linearGradient>
  <linearGradient y2="0.55423" x2="48.26679" y1="0.47002" x1="-26.17816" id="SVGID_00000163072896203293424050000001586080484161008306_">
   <stop stop-color="#449AF9" offset="0"/>
   <stop stop-color="#64EFE2" offset="0.5"/>
   <stop stop-color="#FFFFFF" offset="1"/>
  </linearGradient>
  <linearGradient y2="0.57318" x2="17.51543" y1="0.45459" x1="-10.38463" id="SVGID_00000172420862204601916130000016102140549299169203_">
   <stop stop-color="#449AF9" offset="0"/>
   <stop stop-color="#64EFE2" offset="0.5"/>
   <stop stop-color="#FFFFFF" offset="1"/>
  </linearGradient>
 </defs>
 <g>
  <title>Layer 1</title>
  <g id="svg_1">
   <g id="svg_2">
    <path id="svg_3" fill="url(#SVGID_1_)" d="m1191.48,2700.76l-4.46,-7.77l-2.57,0l0,7.77l-5.41,0l0,-23.65l9.46,0c2.25,0 4.17,0.79 5.74,2.36c1.58,1.58 2.37,3.49 2.37,5.74c0,1.44 -0.4,2.78 -1.2,4c-0.8,1.23 -1.85,2.18 -3.16,2.85l5.03,8.68l-5.8,0l0,0.02zm-7.03,-18.58l0,6.08l4.05,0c0.74,0 1.38,-0.29 1.91,-0.88c0.53,-0.59 0.79,-1.31 0.79,-2.16c0,-0.86 -0.27,-1.58 -0.79,-2.16c-0.53,-0.59 -1.17,-0.88 -1.91,-0.88l-4.05,0z" class="st0"/>
    <path id="svg_4" fill="url(#SVGID_00000012462501059886238900000001601060468922817706_)" d="m1211.08,2683.87l5.07,0l0,16.89l-5.07,0l0,-1.59c-1.19,1.37 -2.87,2.06 -5.03,2.06c-2.23,0 -4.13,-0.86 -5.71,-2.59c-1.58,-1.72 -2.36,-3.83 -2.36,-6.33c0,-2.5 0.79,-4.61 2.36,-6.34c1.58,-1.72 3.48,-2.58 5.71,-2.58c2.16,0 3.84,0.69 5.03,2.06l0,-1.58zm-6.93,11.45c0.74,0.74 1.71,1.11 2.91,1.11c1.19,0 2.16,-0.37 2.91,-1.11c0.74,-0.74 1.11,-1.75 1.11,-3.01c0,-1.26 -0.37,-2.26 -1.11,-3.01c-0.74,-0.74 -1.71,-1.11 -2.91,-1.11c-1.19,0 -2.16,0.37 -2.91,1.11c-0.74,0.74 -1.11,1.75 -1.11,3.01c0,1.27 0.37,2.27 1.11,3.01z"/>
    <path id="svg_5" fill="url(#SVGID_00000084494130238144662950000007490497566593150608_)" d="m1229.76,2683.4c1.8,0 3.3,0.62 4.51,1.86c1.21,1.24 1.81,2.95 1.81,5.14l0,10.37l-5.07,0l0,-9.63c0,-0.99 -0.28,-1.75 -0.83,-2.28c-0.55,-0.53 -1.26,-0.79 -2.11,-0.79c-0.97,0 -1.73,0.29 -2.3,0.88c-0.56,0.59 -0.84,1.45 -0.84,2.6l0,9.22l-5.07,0l0,-16.89l5.07,0l0,1.59c1.01,-1.39 2.63,-2.07 4.83,-2.07z"/>
    <path id="svg_6" fill="url(#SVGID_00000058558455728911545690000002611145715649847427_)" d="m1251.96,2683.87l4.93,0l0,16.05c0,2.66 -0.87,4.67 -2.6,6.03c-1.73,1.36 -3.84,2.04 -6.32,2.04c-3.81,0 -6.48,-1.36 -8.01,-4.09l4.32,-2.5c0.77,1.42 2.05,2.13 3.85,2.13c1.19,0 2.13,-0.31 2.8,-0.93c0.68,-0.62 1.01,-1.51 1.01,-2.69l0,-1.55c-1.17,1.46 -2.82,2.2 -4.93,2.2c-2.36,0 -4.34,-0.84 -5.93,-2.52c-1.59,-1.68 -2.38,-3.7 -2.38,-6.06s0.79,-4.39 2.38,-6.06c1.59,-1.68 3.56,-2.52 5.93,-2.52c2.12,0 3.76,0.73 4.93,2.2l0,-1.73l0.02,0zm-7.03,10.95c0.77,0.72 1.75,1.08 2.94,1.08c1.19,0 2.17,-0.36 2.94,-1.08c0.77,-0.72 1.15,-1.67 1.15,-2.84c0,-1.17 -0.38,-2.12 -1.15,-2.84c-0.77,-0.72 -1.75,-1.08 -2.94,-1.08c-1.19,0 -2.17,0.36 -2.94,1.08c-0.77,0.72 -1.15,1.67 -1.15,2.84c0,1.17 0.39,2.12 1.15,2.84z"/>
    <path id="svg_7" fill="url(#SVGID_00000173125594578059256540000001673615011761225650_)" d="m1275.07,2698.65c-1.73,1.72 -3.85,2.59 -6.35,2.59s-4.62,-0.86 -6.35,-2.59c-1.73,-1.72 -2.6,-3.83 -2.6,-6.33c0,-2.5 0.87,-4.61 2.6,-6.34c1.73,-1.72 3.85,-2.58 6.35,-2.58s4.62,0.86 6.35,2.58c1.73,1.72 2.6,3.84 2.6,6.34c0,2.5 -0.87,4.61 -2.6,6.33zm-9.12,-3.46c0.74,0.74 1.67,1.11 2.77,1.11c1.1,0 2.03,-0.37 2.77,-1.11c0.74,-0.74 1.12,-1.7 1.12,-2.87c0,-1.17 -0.37,-2.13 -1.12,-2.87c-0.74,-0.74 -1.67,-1.12 -2.77,-1.12c-1.1,0 -2.03,0.37 -2.77,1.12c-0.74,0.74 -1.11,1.7 -1.11,2.87c-0.01,1.17 0.36,2.13 1.11,2.87z"/>
    <path id="svg_8" fill="url(#SVGID_00000061454698694334238390000009117909522189750454_)" d="m1305.04,2677.11l0,5.2l-6.08,0l0,18.45l-5.41,0l0,-18.45l-6.08,0l0,-5.2l17.57,0z"/>
    <path id="svg_9" fill="url(#SVGID_00000022555685550206119900000010537571634772302014_)" d="m1317.14,2683.4c1.8,0 3.3,0.62 4.51,1.86c1.21,1.24 1.81,2.95 1.81,5.14l0,10.37l-5.07,0l0,-9.63c0,-0.99 -0.28,-1.75 -0.83,-2.28c-0.55,-0.53 -1.26,-0.79 -2.11,-0.79c-0.97,0 -1.73,0.29 -2.3,0.88c-0.56,0.59 -0.84,1.45 -0.84,2.6l0,9.22l-5.07,0l0,-23.65l5.07,0l0,8.34c1.01,-1.38 2.62,-2.06 4.83,-2.06z"/>
    <path id="svg_10" fill="url(#SVGID_00000008845946594410277400000014012683146900740240_)" d="m1341.39,2698.65c-1.73,1.72 -3.85,2.59 -6.35,2.59s-4.62,-0.86 -6.35,-2.59c-1.73,-1.72 -2.6,-3.83 -2.6,-6.33c0,-2.5 0.87,-4.61 2.6,-6.34c1.73,-1.72 3.85,-2.58 6.35,-2.58s4.62,0.86 6.35,2.58c1.73,1.72 2.6,3.84 2.6,6.34c0.01,2.5 -0.86,4.61 -2.6,6.33zm-9.12,-3.46c0.74,0.74 1.67,1.11 2.77,1.11c1.1,0 2.03,-0.37 2.77,-1.11c0.74,-0.74 1.12,-1.7 1.12,-2.87c0,-1.17 -0.37,-2.13 -1.12,-2.87c-0.74,-0.74 -1.67,-1.12 -2.77,-1.12c-1.1,0 -2.03,0.37 -2.77,1.12c-0.74,0.74 -1.11,1.7 -1.11,2.87c0,1.17 0.37,2.13 1.11,2.87z"/>
    <path id="svg_11" fill="url(#SVGID_00000072248619231513085390000013331021194464281785_)" d="m1351.94,2686.88c0.31,-1.08 0.95,-1.91 1.91,-2.48c0.96,-0.57 2.01,-0.86 3.16,-0.86l0,5.74c-1.24,-0.2 -2.39,0.01 -3.46,0.62c-1.07,0.62 -1.6,1.7 -1.6,3.23l0,7.64l-5.07,0l0,-16.89l5.07,0l0,3l-0.01,0z"/>
   </g>
  </g>
  <g id="svg_12">
   <path id="svg_13" fill="url(#SVGID_00000074401581905890662630000004698986412728006539_)" d="m34.04,67.97l-12.21,-21.28l-7.03,0l0,21.28l-14.8,0l0,-64.75l25.9,0c6.16,0 11.41,2.16 15.73,6.47c4.32,4.32 6.48,9.56 6.48,15.73c0,3.95 -1.1,7.6 -3.29,10.96c-2.19,3.37 -5.07,5.97 -8.65,7.82l13.78,23.78l-15.91,0l0,-0.01zm-19.24,-50.88l0,16.65l11.1,0c2.03,0 3.78,-0.8 5.23,-2.41c1.45,-1.6 2.17,-3.58 2.17,-5.92s-0.73,-4.32 -2.17,-5.92c-1.45,-1.6 -3.19,-2.41 -5.23,-2.41l-11.1,0l0,0.01z"/>
   <path id="svg_14" fill="url(#SVGID_00000136411323758646304290000002717025334897797515_)" d="m87.7,21.71l13.87,0l0,46.26l-13.87,0l0,-4.35c-3.27,3.76 -7.86,5.64 -13.78,5.64c-6.11,0 -11.32,-2.36 -15.63,-7.08c-4.32,-4.72 -6.47,-10.5 -6.47,-17.34s2.16,-12.63 6.47,-17.35c4.31,-4.72 9.53,-7.08 15.63,-7.08c5.92,0 10.51,1.88 13.78,5.64l0,-4.34zm-18.97,31.37c2.03,2.03 4.69,3.05 7.96,3.05c3.27,0 5.92,-1.02 7.95,-3.05c2.03,-2.04 3.05,-4.78 3.05,-8.23s-1.02,-6.2 -3.05,-8.23c-2.03,-2.03 -4.69,-3.05 -7.95,-3.05c-3.27,0 -5.92,1.02 -7.96,3.05c-2.03,2.03 -3.05,4.78 -3.05,8.23s1.02,6.19 3.05,8.23z"/>
   <path id="svg_15" fill="url(#SVGID_00000054952538966727318140000000565277205564046464_)" d="m138.86,20.42c4.93,0 9.05,1.7 12.35,5.09c3.3,3.39 4.95,8.08 4.95,14.06l0,28.4l-13.87,0l0,-26.37c0,-2.71 -0.76,-4.8 -2.27,-6.25c-1.51,-1.45 -3.44,-2.17 -5.78,-2.17c-2.65,0 -4.75,0.8 -6.29,2.41c-1.54,1.6 -2.31,3.98 -2.31,7.12l0,25.26l-13.88,0l0,-46.26l13.88,0l0,4.35c2.76,-3.76 7.17,-5.64 13.22,-5.64z"/>
   <path id="svg_16" fill="url(#SVGID_00000114062770139843961720000006487973485432514494_)" d="m199.63,21.71l13.5,0l0,43.94c0,7.28 -2.37,12.78 -7.12,16.51c-4.75,3.73 -10.52,5.6 -17.3,5.6c-10.42,0 -17.73,-3.73 -21.92,-11.19l11.84,-6.85c2.1,3.89 5.61,5.83 10.54,5.83c3.27,0 5.83,-0.85 7.68,-2.55c1.85,-1.69 2.78,-4.15 2.78,-7.35l0,-4.25c-3.21,4.01 -7.71,6.01 -13.51,6.01c-6.47,0 -11.89,-2.3 -16.23,-6.89c-4.35,-4.59 -6.52,-10.13 -6.52,-16.61s2.17,-12.01 6.52,-16.61s9.76,-6.89 16.23,-6.89c5.8,0 10.3,2 13.51,6.01l0,-4.71zm-19.24,29.98c2.1,1.97 4.78,2.96 8.05,2.96c3.27,0 5.95,-0.99 8.05,-2.96c2.1,-1.97 3.15,-4.56 3.15,-7.77c0,-3.2 -1.05,-5.8 -3.15,-7.77c-2.1,-1.97 -4.78,-2.96 -8.05,-2.96c-3.27,0 -5.95,0.99 -8.05,2.96c-2.1,1.97 -3.14,4.57 -3.14,7.77c-0.01,3.21 1.04,5.8 3.14,7.77z"/>
   <path id="svg_17" fill="url(#SVGID_00000040550711730018337150000000142395337574358670_)" d="m262.9,62.19c-4.75,4.72 -10.54,7.08 -17.39,7.08c-6.85,0 -12.64,-2.36 -17.39,-7.08c-4.75,-4.72 -7.12,-10.5 -7.12,-17.34s2.37,-12.63 7.12,-17.35c4.75,-4.72 10.55,-7.08 17.39,-7.08c6.85,0 12.64,2.36 17.39,7.08c4.75,4.72 7.12,10.5 7.12,17.35s-2.37,12.62 -7.12,17.34zm-24.97,-9.48c2.03,2.03 4.56,3.05 7.59,3.05c3.02,0 5.55,-1.02 7.58,-3.05s3.06,-4.66 3.06,-7.86c0,-3.21 -1.02,-5.83 -3.06,-7.86s-4.56,-3.06 -7.58,-3.06c-3.03,0 -5.55,1.02 -7.59,3.06s-3.05,4.65 -3.05,7.86c-0.01,3.2 1.01,5.82 3.05,7.86z"/>
   <path id="svg_18" fill="url(#SVGID_00000127006610112623733700000017897035255362334865_)" d="m356.25,59.55c-6.54,6.47 -14.49,9.71 -23.87,9.71c-9.37,0 -17.33,-3.24 -23.86,-9.71c-6.54,-6.47 -9.81,-14.46 -9.81,-23.96c0,-9.5 3.27,-17.49 9.81,-23.96c6.54,-6.47 14.49,-9.71 23.86,-9.71c9.38,0 17.33,3.24 23.87,9.71c6.54,6.47 9.81,14.46 9.81,23.96c-0.01,9.5 -3.28,17.49 -9.81,23.96zm-37.33,-10.08c3.61,3.58 8.1,5.37 13.46,5.37c5.37,0 9.86,-1.79 13.46,-5.37c3.61,-3.58 5.41,-8.2 5.41,-13.87c0,-5.68 -1.81,-10.3 -5.41,-13.88c-3.61,-3.58 -8.1,-5.37 -13.46,-5.37c-5.36,0 -9.85,1.79 -13.46,5.37c-3.61,3.58 -5.41,8.2 -5.41,13.88c0,5.67 1.8,10.29 5.41,13.87z"/>
   <path id="svg_19" fill="url(#SVGID_00000049934498553480392550000011192164261290899587_)" d="m407.5,3.22l13.87,0l0,64.75l-13.87,0l0,-4.35c-3.27,3.76 -7.86,5.64 -13.78,5.64c-6.11,0 -11.32,-2.36 -15.63,-7.08c-4.32,-4.72 -6.47,-10.5 -6.47,-17.34s2.16,-12.63 6.47,-17.35c4.31,-4.72 9.53,-7.08 15.63,-7.08c5.92,0 10.51,1.88 13.78,5.64l0,-22.83zm-18.97,49.86c2.03,2.03 4.69,3.05 7.96,3.05c3.27,0 5.92,-1.02 7.95,-3.05c2.03,-2.04 3.05,-4.78 3.05,-8.23s-1.02,-6.2 -3.05,-8.23c-2.03,-2.03 -4.69,-3.05 -7.95,-3.05c-3.27,0 -5.92,1.02 -7.96,3.05c-2.03,2.03 -3.05,4.78 -3.05,8.23s1.02,6.19 3.05,8.23z"/>
   <path id="svg_20" fill="url(#SVGID_00000163072896203293424050000001586080484161008306_)" d="m444.36,15.19c-1.64,1.64 -3.59,2.45 -5.87,2.45c-2.28,0 -4.24,-0.81 -5.87,-2.45c-1.64,-1.63 -2.45,-3.59 -2.45,-5.87c0,-2.28 0.81,-4.24 2.45,-5.87c1.63,-1.63 3.59,-2.45 5.87,-2.45c2.28,0 4.24,0.82 5.87,2.45c1.63,1.64 2.45,3.59 2.45,5.87c0,2.28 -0.82,4.24 -2.45,5.87zm-12.82,52.78l0,-46.26l13.88,0l0,46.26l-13.88,0z"/>
   <path id="svg_21" fill="url(#SVGID_00000172420862204601916130000016102140549299169203_)" d="m482.7,20.42c4.93,0 9.05,1.7 12.35,5.09c3.3,3.39 4.95,8.08 4.95,14.06l0,28.4l-13.87,0l0,-26.37c0,-2.71 -0.76,-4.8 -2.27,-6.25c-1.51,-1.45 -3.44,-2.17 -5.78,-2.17c-2.65,0 -4.75,0.8 -6.29,2.41s-2.31,3.98 -2.31,7.12l0,25.26l-13.88,0l0,-46.26l13.88,0l0,4.35c2.77,-3.76 7.18,-5.64 13.22,-5.64z"/>
  </g>
 </g>
</svg>